<?xml version="1.0" encoding="UTF-8" standalone="no"?>
<svg width="227px" height="63px" viewBox="0 0 227 63" version="1.1" xmlns="http://www.w3.org/2000/svg" xmlns:xlink="http://www.w3.org/1999/xlink">
    <defs>
        <path d="M4.61621094,16.1277777 C4.61621094,9.49671791 9.98042657,4.20058596 16.6229377,4.29891206 L205.311614,7.09198561 C211.942746,7.19014327 218.317218,12.5569685 219.544918,19.055423 L222.413478,34.2392785 C223.643183,40.7483448 219.283094,46.3386877 212.654366,46.7268641 L16.6019,58.2076397 C9.98238673,58.5952765 4.61621094,53.5313665 4.61621094,46.9029224 L4.61621094,16.1277777 Z" id="path-1"></path>
        <mask id="mask-2" maskContentUnits="userSpaceOnUse" maskUnits="objectBoundingBox" x="0" y="0" width="218" height="53.8940163" fill="white">
            <use xlink:href="#path-1"></use>
        </mask>
        <mask id="mask-4" maskContentUnits="userSpaceOnUse" maskUnits="objectBoundingBox" x="0" y="0" width="218" height="53.8940163" fill="white">
            <use xlink:href="#path-1"></use>
        </mask>
    </defs>
    <g id="Page-1" stroke="none" stroke-width="1" fill="none" fill-rule="evenodd">
        <g id="Bt_Landing_get-passport">
            <path d="M0.616210938,16.1277777 L0.616210938,16.1277777 C0.616210938,7.26097758 7.81102051,0.168035007 16.6821414,0.299350216 L205.370818,3.09242377 C213.898167,3.21865028 221.894122,9.94290835 223.47539,18.3128711 L226.343951,33.4967266 C228.022138,42.3797007 221.921331,50.1910459 212.888204,50.7200233 L16.8357383,62.2007988 C7.91981214,62.7229129 0.616210938,55.8331678 0.616210938,46.9029224 L0.616210938,16.1277777 Z" id="Mask" fill="#F7CA46"></path>
            <mask id="mask-3" fill="white">
                <use xlink:href="#path-1"></use>
            </mask>
            <g id="Mask-Copy" stroke="#FFFFFF" mask="url(#mask-2)" stroke-width="2" stroke-dasharray="3">
                <use mask="url(#mask-4)" xlink:href="#path-1"></use>
            </g>
            <path d="M66.574,19.884 C69.0233456,20.1186678 71.3699888,20.4413313 73.614,20.852 C73.5259996,20.3386641 73.4673335,19.8986685 73.438,19.532 L76.804,19.18 C77.0386678,20.5733403 77.4786634,22.1866575 78.124,24.02 C78.1680002,24.1373339 78.2046665,24.2399996 78.234,24.328 C79.4513394,24.2253328 80.6466608,24.144667 81.82,24.086 C80.4706599,23.6753313 79.2826718,23.3306681 78.256,23.052 L79.29,19.62 C80.9033414,19.9720018 82.274661,20.3753311 83.404,20.83 L82.436,24.064 C83.1253368,24.0346665 83.7926634,24.0126667 84.438,23.998 L84.79,27.518 C83.0153245,27.5326667 81.2626753,27.6059993 79.532,27.738 C79.7520011,28.2513359 79.9793322,28.7646641 80.214,29.278 C80.3166672,29.4833344 80.4119996,29.6739991 80.5,29.85 C81.0280026,29.3659976 81.5413308,28.9040022 82.04,28.464 L84.614,30.884 C83.8659963,31.5880035 83.1106705,32.2993297 82.348,33.018 C83.140004,34.2500062 84.0419949,35.5406599 85.054,36.89 L81.688,38.694 C80.9399963,37.8139956 80.2140035,36.838672 79.51,35.768 C78.6886626,36.5746707 77.8673374,37.3813293 77.046,38.188 L74.384,35.768 C75.4986722,34.6239943 76.5839947,33.5460051 77.64,32.534 C76.9506632,31.0819927 76.3200029,29.593341 75.748,28.068 C74.339993,28.2146674 72.9466736,28.3979989 71.568,28.618 C71.626667,29.351337 71.685333,30.0919963 71.744,30.84 C72.5653374,30.6053322 73.3573295,30.3560013 74.12,30.092 L75.066,33.282 C74.0979952,33.6926687 73.078672,34.0519985 72.008,34.36 C72.1106672,35.5773394 72.2133328,36.7946606 72.316,38.012 L68.62,38.43 C68.5319996,37.3299945 68.4440004,36.2666718 68.356,35.24 C67.68133,35.3720007 66.9993368,35.4893328 66.31,35.592 L65.452,32.336 C66.3466711,32.1599991 67.2193291,31.9766676 68.07,31.786 C68.011333,30.9206623 67.9453337,30.0773374 67.872,29.256 C67.0506626,29.4173341 66.244004,29.5859991 65.452,29.762 L65.1,26.242 C65.9506709,26.0659991 66.7793293,25.9046674 67.586,25.758 C67.527333,24.9806628 67.468667,24.2326703 67.41,23.514 C66.9406643,23.4406663 66.4860022,23.374667 66.046,23.316 L66.574,19.884 Z M74.538,24.702 C74.2153317,23.5579943 73.9660009,22.5680042 73.79,21.732 L73.526,24.438 C72.7193293,24.3059993 71.9420037,24.1886672 71.194,24.086 C71.2233335,24.4380018 71.2526665,24.7899982 71.282,25.142 C72.3820055,24.9806659 73.467328,24.8340007 74.538,24.702 L74.538,24.702 Z M93.304,19.444 L94.404,22.546 C92.9079925,23.0886694 91.3460081,23.6826634 89.718,24.328 L91.39,24.68 C91.6686681,24.6066663 91.9619985,24.5480002 92.27,24.504 C93.6633403,24.504 94.5653313,24.6286654 94.976,24.878 C95.1226674,24.9220002 95.2546661,24.9806663 95.372,25.054 C95.8560024,23.1326571 96.4793295,21.2920088 97.242,19.532 L100.52,20.214 C100.153332,21.0500042 99.8233348,21.8933291 99.53,22.744 C100.644672,22.4946654 101.839994,22.37 103.116,22.37 C104.216006,22.37 105.110663,22.8393286 105.8,23.778 C106.460003,24.7900051 106.79,25.9633267 106.79,27.298 L106.79,27.848 C106.79,29.1826733 106.665335,30.9133227 106.416,33.04 C106.137332,35.2546777 105.829335,37.0219934 105.492,38.342 L102.148,37.66 C102.588002,35.6213231 102.910666,33.7146755 103.116,31.94 C103.321334,30.2826584 103.424,28.9333385 103.424,27.892 C103.424,27.2026632 103.336001,26.6820018 103.16,26.33 C102.954666,25.9193313 102.683335,25.714 102.346,25.714 C101.817997,25.714 101.143337,25.7799993 100.322,25.912 C99.7059969,26.0440007 99.0900031,26.2493319 98.474,26.528 C98.3273326,27.0853361 98.2026672,27.6426639 98.1,28.2 L97.154,28.002 C97.3153341,28.8086707 97.4033333,29.8206606 97.418,31.038 C97.418,33.3846784 97.1320029,35.0786615 96.56,36.12 C95.6799956,37.6600077 94.3306758,38.43 92.512,38.43 C90.6786575,38.43 89.3366709,37.8580057 88.486,36.714 C87.6793293,35.5406608 87.276,33.824678 87.276,31.566 C87.276,29.1313212 87.6866626,26.784678 88.508,24.526 L87.628,21.6 C89.6080099,20.7639958 91.499991,20.0453363 93.304,19.444 L93.304,19.444 Z M92.094,27.782 C91.6393311,27.8700004 91.2286685,27.9726661 90.862,28.09 C90.803333,28.427335 90.7520002,28.7499985 90.708,29.058 C91.5440042,29.1020002 92.3799958,29.1899993 93.216,29.322 L92.952,32.072 C92.1453293,31.9546661 91.346004,31.866667 90.554,31.808 C90.5833335,32.9960059 90.6933324,33.8173311 90.884,34.272 C91.1186678,34.8733363 91.5513302,35.174 92.182,35.174 C92.9300037,35.174 93.4506652,34.8880029 93.744,34.316 C94.0226681,33.7146637 94.162,32.8273392 94.162,31.654 C94.162,29.5273227 94.0080015,28.3833341 93.7,28.222 C93.4653322,27.9873322 93.2013348,27.8553335 92.908,27.826 C92.5853317,27.7966665 92.3140011,27.782 92.094,27.782 L92.094,27.782 Z M98.958,28.992 C100.292673,29.2266678 101.553994,29.541998 102.742,29.938 L101.796,33.018 C100.519994,32.5633311 99.2586729,32.2186678 98.012,31.984 L98.958,28.992 Z M115.546,24.944 L115.898,28.288 C115.355331,28.288 114.820003,28.2953333 114.292,28.31 C114.321333,28.706002 114.350667,29.1093313 114.38,29.52 C114.717335,29.4026661 115.047332,29.2780007 115.37,29.146 L116.316,32.336 C115.773331,32.6000013 115.20867,32.8346656 114.622,33.04 C114.71,34.3013396 114.790666,35.5553271 114.864,36.802 L111.344,37.154 C111.270666,36.0979947 111.197334,35.0713383 111.124,34.074 C110.698665,34.1620004 110.280669,34.2426663 109.87,34.316 L109.012,31.038 C109.657337,30.9059993 110.280664,30.7593341 110.882,30.598 C110.838,29.8793297 110.794,29.18267 110.75,28.508 C110.251331,28.5520002 109.760002,28.5959998 109.276,28.64 L108.924,25.296 C109.452003,25.237333 109.987331,25.1860002 110.53,25.142 C110.456666,24.0273278 110.383334,22.9566718 110.31,21.93 L113.83,21.6 C113.903334,22.7000055 113.984,23.8219943 114.072,24.966 C114.570669,24.9513333 115.061998,24.944 115.546,24.944 L115.546,24.944 Z M120.694,22.524 C120.400665,21.8933302 120.144001,21.24067 119.924,20.566 L123.554,19.092 C123.891335,20.162672 124.338664,21.1746619 124.896,22.128 C126.142673,22.2160004 127.095997,22.626663 127.756,23.36 C128.51867,24.2693379 128.922,25.427993 128.966,26.836 L128.966,28.112 C128.966,30.0480097 128.540671,31.3093304 127.69,31.896 C126.663328,32.5266698 125.394674,32.842 123.884,32.842 C122.607994,32.842 121.310007,32.7100013 119.99,32.446 C119.828666,34.587344 119.726,36.757989 119.682,38.958 L116.404,38.606 C116.462667,32.9299716 116.953995,27.5180257 117.878,22.37 L120.276,22.612 C120.422667,22.5826665 120.561999,22.5533335 120.694,22.524 L120.694,22.524 Z M120.65,25.934 C120.517999,26.9753385 120.393334,28.0239947 120.276,29.08 C121.405339,29.3146678 122.439329,29.4833328 123.378,29.586 C124.038003,29.586 124.573331,29.4833344 124.984,29.278 C125.336002,29.1459993 125.512,28.6400044 125.512,27.76 C125.512,26.689328 125.299335,26.0073348 124.874,25.714 C124.536665,25.4939989 124.05267,25.384 123.422,25.384 C122.952664,25.384 122.028674,25.5673315 120.65,25.934 L120.65,25.934 Z M132.75,20.214 L133.938,20.478 C134.554003,20.2139987 135.24333,20.0160007 136.006,19.884 C137.282006,19.884 138.110665,19.9866656 138.492,20.192 C139.108003,20.3826676 139.606665,20.844663 139.988,21.578 C140.457336,22.2673368 140.706667,23.6459897 140.736,25.714 C140.736,27.0780068 140.662667,28.2293286 140.516,29.168 C140.780001,28.5666637 141.139331,27.9873361 141.594,27.43 L142.21,27.738 C142.738003,27.5326656 143.273331,27.3786672 143.816,27.276 L141.154,26.396 C141.594002,25.3106612 142.048664,24.2986714 142.518,23.36 C142.136665,23.4920007 141.770002,23.6459991 141.418,23.822 L140.384,20.83 C142.349343,20.0819963 144.417322,19.708 146.588,19.708 C147.746672,19.708 148.68533,19.9426643 149.404,20.412 C150.093337,21.0573366 150.438,21.8199956 150.438,22.7 L150.438,23.184 C150.364666,24.6653407 150.108002,25.970661 149.668,27.1 L146.324,26.484 C146.749335,25.6773293 147.006,24.7533385 147.094,23.712 C147.094,23.315998 147.028001,23.0373341 146.896,22.876 C146.763999,22.8026663 146.617334,22.7513335 146.456,22.722 C145.73733,24.1153403 145.033337,25.6113253 144.344,27.21 C144.828002,27.1366663 145.311998,27.1 145.796,27.1 C146.55867,27.1 147.247997,27.1439996 147.864,27.232 C148.49467,27.3933341 149.095997,27.7233308 149.668,28.222 C150.29867,28.8673366 150.614,29.7473278 150.614,30.862 L150.614,31.478 C150.614,32.3140042 150.32067,32.9886641 149.734,33.502 C148.824662,34.3233374 147.600008,34.734 146.06,34.734 L144.938,34.734 C143.471326,34.734 142.305338,34.5140022 141.44,34.074 C140.515995,33.4286634 140.054,32.5340057 140.054,31.39 C140.054,31.2579993 140.061333,31.1480004 140.076,31.06 C140.032,31.1626672 139.995333,31.2506663 139.966,31.324 C139.159329,33.0253418 137.927342,33.876 136.27,33.876 C134.553991,33.876 133.292671,33.3626718 132.486,32.336 C131.737996,31.265328 131.364,29.7180101 131.364,27.694 C131.364,25.1273205 131.825995,22.6340121 132.75,20.214 L132.75,20.214 Z M135.83,22.964 C135.595332,23.0373337 135.375334,23.1106663 135.17,23.184 C134.964666,23.9613372 134.825334,24.7093297 134.752,25.428 C135.544004,25.486667 136.335996,25.5819993 137.128,25.714 L136.864,28.552 C136.115996,28.4346661 135.375337,28.346667 134.642,28.288 C134.671333,29.0946707 134.751999,29.666665 134.884,30.004 C135.074668,30.5320026 135.419331,30.796 135.918,30.796 C136.50467,30.796 136.907999,30.429337 137.128,29.696 C137.348001,28.9479963 137.458,27.8260075 137.458,26.33 C137.458,24.4819908 137.340668,23.4920007 137.106,23.36 C136.929999,23.1546656 136.717335,23.0373335 136.468,23.008 C136.218665,22.9786665 136.006001,22.964 135.83,22.964 L135.83,22.964 Z M145.62,29.674 C144.959997,29.674 144.241337,29.8793313 143.464,30.29 C143.390666,30.5100011 143.339333,30.7079991 143.31,30.884 C143.31,31.3973359 143.456665,31.7346659 143.75,31.896 C144.087335,32.0720009 144.497998,32.16 144.982,32.16 L145.466,32.16 C146.18467,32.16 146.697998,32.0426678 147.006,31.808 C147.240668,31.6319991 147.358,31.4046681 147.358,31.126 C147.358,30.6419976 147.226001,30.2826678 146.962,30.048 C146.727332,29.8279989 146.280003,29.7033335 145.62,29.674 L145.62,29.674 Z M147.952,34.58 C148.978672,35.0493357 149.836663,35.650663 150.526,36.384 L148.216,38.694 C147.511996,38.0926637 146.676005,37.4913363 145.708,36.89 L147.952,34.58 Z M136.358,34.646 C136.695335,34.646 137.355328,34.7926652 138.338,35.086 C139.790007,35.482002 140.699332,35.68 141.066,35.68 C142.034005,35.6359998 142.752664,35.3793357 143.222,34.91 L145.466,37.484 C144.615329,38.4226714 143.207343,38.9139998 141.242,38.958 C140.831331,38.958 140.002673,38.7820018 138.756,38.43 C137.435993,38.092665 136.636668,37.924 136.358,37.924 C135.551329,37.9386667 134.862003,38.28333 134.29,38.958 L132.574,36.208 C133.512671,35.1666615 134.773992,34.646 136.358,34.646 L136.358,34.646 Z" id="我的护照" fill="#FFFFFF" mask="url(#mask-3)"></path>
        </g>
    </g>
</svg>