<?xml version="1.0" encoding="utf-8"?>
<!-- Generator: Adobe Illustrator 16.0.0, SVG Export Plug-In . SVG Version: 6.00 Build 0)  -->
<!DOCTYPE svg PUBLIC "-//W3C//DTD SVG 1.1//EN" "http://www.w3.org/Graphics/SVG/1.1/DTD/svg11.dtd">
<svg version="1.1" id="图层_1" xmlns="http://www.w3.org/2000/svg" xmlns:xlink="http://www.w3.org/1999/xlink" x="0px" y="0px"
	 width="128.467px" height="130.979px" viewBox="0 0 128.467 130.979" enable-background="new 0 0 128.467 130.979"
	 xml:space="preserve">
<path fill="#C61C1E" d="M29.87,94.386c9.396,11.705,23.377,17.568,37.323,17.107c0.092,0.068,0.15,0.064,0.186-0.008
	c3.639-0.135,7.271-0.693,10.822-1.701c5.428-1.533,10.65-4.123,15.387-7.766c0.166,0.154,0.492,0.33,0.812,0.387
	c0.131,0.02,0.25,0.02,0.359-0.01c0.131-0.031,0.24-0.092,0.33-0.201c-0.574-0.229-0.961-0.346-1.213-0.395
	c0.166-0.131,0.338-0.252,0.504-0.385c3.113-2.502,5.811-5.328,8.09-8.393c0.436-0.186,0.816-0.221,2.33-0.469
	c-0.584-0.182-1.154-0.279-1.744-0.357c11.572-16.307,11.49-38.941-1.646-55.292c-5.949-7.399-13.729-12.47-22.18-15.08l-0.49-0.13
	l0.42,1.13c0.08,0.441,0.09,0.91,0.09,1.38l-0.109,1.642l6.49,2.711c0.443,0.24,0.881,0.497,1.316,0.753L65.528,44.736l0.719,0.061
	c0.352-0.021,0.67-0.101,0.961-0.301c0.221-0.148,0.43-0.229,0.609-0.239l0.291,0.052l0.199,0.079
	c-1.029,0.479-2.379,1.229-3.471,1.5l-0.389-0.102l-0.031-0.25l-11.319,8.15c0.11,0.179,0.229,0.358,0.37,0.568
	c0.018,0.019-0.159,0.507-0.301,0.925l-3.179,2.226c-0.106-0.077-0.194-0.14-0.231-0.16c-0.317-0.181-1.421,0.638-1.227,1.182
	l-0.916,0.642c0.35-0.476,0.744-0.884,0.693-1.281c-0.01-0.09-0.061-0.32-0.13-0.55l-4.021,2.899
	c-0.05,0.239-0.109,0.489-0.16,0.739c-0.129,0.08-0.24,0.109-0.31,0.109c-0.181,0-0.21-0.17-0.16-0.399l-2.79,2.011
	c0.18,0.292,0.428,0.513,0.72,0.782l-1.3,0.911c-0.094-0.353-0.104-0.786-0.16-1.164l-1.199,0.869
	c0.047,0.412,0.128,0.811,0.201,1.104l-0.369,0.258c-0.121-0.363-0.008-0.849-0.362-0.982l-1.83,1.319
	c0.44-0.13,0.71-0.32,1.09-0.72c0.474,1.703-0.224,0.693-0.336,1.39l-0.478,0.334c-0.183-0.191-0.344-0.447-0.547-0.813
	L24.43,74.343c-3.154-15.032,2.037-31.259,14.818-41.537c1.141-0.91,2.301-1.75,3.5-2.521l1.65-0.96l-0.561-1.01
	c-0.229-0.47-0.43-0.939-0.639-1.359l-0.601-0.931l-1.899,1.101c-1.301,0.84-2.57,1.761-3.801,2.75
	C17.148,45.735,13.999,74.636,29.87,94.386z M54.778,61.474c1.552,0.229,2.854,1.095,3.907,2.599c2.516,3.59,1.926,6.68-1.768,9.268
	c-1.049,0.732-2.051,1.182-3.006,1.34l0.279,0.268l-2.137,1.982c-1.319-1.441-2.646-3.117-3.984-5.025
	c-1.48-2.121-2.374-3.715-2.676-4.787l1.576-0.896c0.875-1.4,1.966-2.559,3.273-3.473C51.749,61.693,53.259,61.268,54.778,61.474z
	 M102.896,60.589l-0.189,0.154c-0.025-0.01-0.051-0.021-0.074-0.032l0.373-0.27l-0.045,0.063
	C102.933,60.541,102.917,60.559,102.896,60.589z M102.38,61.812c-0.889,0.534-1.398,0.908-1.646,1.152
	c-0.094-0.002-0.174-0.006-0.275-0.007c1.389-1.062,1.906-1.056,1.754-1.944l0.094-0.068c0.039,0.055,0.076,0.105,0.113,0.156
	C102.306,61.335,102.276,61.579,102.38,61.812z M86.308,71.445c-0.061,0.012-0.107,0.012-0.16,0.012
	c-0.375,0-0.549-0.027-0.664-0.152l0.705-0.494C86.376,70.87,86.464,71.021,86.308,71.445z M78.562,67.691
	c-0.871,0.609-1.57,1.258-2.104,1.941l-1.262-0.957c0.242-0.355,0.666-0.801,1.27-1.332c0.5-0.447,0.977-0.83,1.426-1.146
	c0.584-0.407,1.115-0.689,1.596-0.847c0.771-0.254,1.32-0.146,1.648,0.322c0.211,0.3,0.266,0.66,0.166,1.08
	c-0.066,0.262-0.221,0.605-0.459,1.031c-0.084,0.148-0.203,0.367-0.359,0.656c-0.217,0.355-0.531,0.896-0.947,1.615
	c0.209-0.107,0.352-0.189,0.422-0.24c0.666-0.467,1.293-1.178,1.877-2.135l1.439,0.775c-0.459,0.943-1.248,1.805-2.363,2.59
	c-0.561,0.393-1.066,0.662-1.525,0.812c-0.744,0.252-1.271,0.158-1.586-0.287c-0.271-0.393-0.303-0.91-0.09-1.551
	c0.125-0.385,0.373-0.875,0.742-1.475c0.188-0.311,0.473-0.764,0.854-1.365C79.247,67.214,78.999,67.384,78.562,67.691z
	 M76.292,74.294c-0.238-0.189-0.434-0.352-0.578-0.48c-0.291,0.783-0.797,1.432-1.518,1.936c-0.764,0.535-1.506,0.754-2.225,0.658
	c-0.721-0.096-1.344-0.52-1.869-1.271c-0.615-0.877-0.848-1.873-0.697-2.99l1.676-0.232c-0.1,0.984,0.051,1.76,0.449,2.332
	c0.43,0.611,0.977,0.686,1.645,0.219c0.955-0.67,1.115-1.812,0.479-3.439c-0.156-0.408-0.352-0.885-0.576-1.422l1.635-0.582
	c0.352,0.855,0.809,1.691,1.377,2.504c0.518,0.74,1.002,1.229,1.455,1.467C77.278,73.29,76.86,73.724,76.292,74.294z M64.718,85.886
	c0.33,0.311,0.589,0.689,0.91,1.189c-0.27,0.09-0.301,0.111-0.471,0.32c-0.479-0.02-0.859-0.061-1.269-0.16
	c0.15-0.34-0.08-0.469,0.16-0.709c-0.04-0.061-0.061-0.113-0.073-0.162l0.717-0.504L64.718,85.886z M60.729,90.396
	c0,0.109-0.061,0.148-0.15,0.18h-0.02l-0.061,0.08l-0.08-0.029c0.031-0.012,0.07-0.029,0.11-0.041l0.03-0.01l0.029-0.041
	C60.639,90.486,60.688,90.435,60.729,90.396z M56.667,92.115c-0.08,0.021-0.119,0.012-0.199,0.012
	c-0.221,0.209-0.41,0.289-0.54,0.279c-0.142-0.004-0.217-0.107-0.213-0.258l0.729-0.51C56.54,91.855,56.65,92.109,56.667,92.115z
	 M51.257,97.177c-0.149,0.029-0.299,0.039-0.439,0.039h-0.09c-0.596,0-1.101-0.186-1.396-0.6l0.442-0.309
	c0.011,0.037,0.025,0.064,0.034,0.109c0.05-0.061,0.07-0.111,0.109-0.182c0.211,0.102,0.42,0.201,0.631,0.311
	c0.082-0.309,0.101-0.562,0.097-0.85l0.357-0.25C51.551,95.906,51.577,97.177,51.257,97.177z M48.257,98.286
	c-0.448-0.01-0.871,0.008-1.203-0.074l0.512-0.357C47.785,97.976,48.002,98.113,48.257,98.286z M56.684,87.728l-1.237,1.146
	c-0.764-0.834-1.532-1.805-2.307-2.91c-0.856-1.225-1.374-2.146-1.55-2.768l0.912-0.521c0.506-0.811,1.14-1.48,1.896-2.012
	c0.871-0.607,1.746-0.854,2.627-0.736c0.897,0.133,1.652,0.635,2.263,1.506c1.453,2.078,1.111,3.867-1.026,5.363
	c-0.606,0.428-1.187,0.686-1.739,0.775L56.684,87.728z M53.13,87.544c0.453,0.648,0.451,1.406-0.008,2.273
	c-0.367,0.715-0.918,1.328-1.65,1.842l-1.242-1.062c0.396-0.277,0.743-0.582,1.038-0.914c0.369-0.42,0.489-0.719,0.364-0.9
	c-0.168-0.238-0.495-0.188-0.982,0.152c-0.527,0.369-1.115,0.963-1.76,1.781L47.618,89.7c0.233-0.164,0.57-0.584,1.012-1.26
	c0.502-0.754,0.677-1.238,0.524-1.455c-0.139-0.197-0.284-0.293-0.438-0.283c-0.107,0.016-0.282,0.105-0.522,0.271
	c-0.702,0.492-1.286,1.367-1.749,2.621l-1.521-0.504c0.445-1.514,1.236-2.666,2.371-3.461c0.535-0.375,1.07-0.594,1.607-0.656
	c0.666-0.072,1.176,0.145,1.529,0.648c0.314,0.449,0.477,0.938,0.484,1.461C51.892,86.675,52.63,86.829,53.13,87.544z
	 M48.044,78.558c-0.635,1.232-1.586,2.293-2.853,3.18L43.045,79.9c0.685-0.479,1.281-1.006,1.793-1.58
	c0.637-0.727,0.847-1.244,0.629-1.553c-0.29-0.416-0.856-0.328-1.696,0.26c-0.914,0.641-1.928,1.666-3.04,3.08l-2.201-1.752
	c0.405-0.285,0.987-1.012,1.747-2.178c0.867-1.303,1.169-2.141,0.908-2.514c-0.24-0.344-0.494-0.506-0.76-0.488
	c-0.187,0.021-0.486,0.18-0.901,0.469c-1.214,0.852-2.222,2.359-3.021,4.527l-2.629-0.873c0.77-2.609,2.135-4.602,4.096-5.977
	c0.924-0.646,1.849-1.025,2.777-1.137c1.149-0.125,2.03,0.248,2.641,1.123c0.545,0.777,0.824,1.619,0.838,2.523
	c1.688-0.703,2.965-0.439,3.829,0.797C48.839,75.749,48.835,77.058,48.044,78.558z M65.819,57.104
	c-0.365,0.317-0.719,0.629-1.064,0.931l-1.99-2.315c0.368-0.335,0.737-0.655,1.11-0.964c-0.842-0.539-1.619-1.141-2.33-1.803
	l1.854-2.293c0.791,0.776,1.739,1.48,2.847,2.112c0.275-0.225,0.551-0.439,0.822-0.646c-0.338-1.389-0.635-2.617-0.891-3.689
	l2.707-0.807c0.176,0.914,0.371,1.812,0.59,2.695c0.334-0.25,0.662-0.487,0.984-0.713l1.977,2.327
	c-0.373,0.261-0.738,0.524-1.094,0.79c0.363,0.408,0.771,0.896,1.229,1.458c0.322-0.271,0.639-0.547,0.951-0.828l1.992,2.314
	c-0.334,0.296-0.668,0.593-1,0.889c1.666,2.049,2.75,3.432,3.25,4.146l-2.189,1.904c-1.266-1.695-2.35-3.087-3.248-4.174
	c-0.607,0.502-1.219,1-1.832,1.491c0.734,1.558,1.494,3.104,2.277,4.645l-2.82,1.141c-0.674-1.337-1.311-2.623-1.912-3.855
	c-0.262,0.199-0.514,0.393-0.756,0.576l-1.977-2.327c0.463-0.354,0.93-0.713,1.402-1.076C66.397,58.37,66.103,57.727,65.819,57.104z
	 M87.022,61.554c0.211,0.301,0.266,0.66,0.164,1.079c-0.066,0.264-0.219,0.605-0.457,1.033c-0.084,0.147-0.205,0.366-0.361,0.655
	c-0.215,0.355-0.531,0.896-0.949,1.617c0.211-0.11,0.352-0.19,0.424-0.241c0.666-0.467,1.291-1.178,1.875-2.134l1.443,0.775
	c-0.463,0.939-1.252,1.802-2.369,2.583c-0.559,0.391-1.064,0.662-1.523,0.812c-0.746,0.252-1.271,0.158-1.584-0.287
	c-0.271-0.391-0.305-0.906-0.09-1.548c0.125-0.384,0.371-0.874,0.738-1.474c0.189-0.31,0.475-0.765,0.857-1.364
	c-0.059,0.031-0.307,0.202-0.744,0.508c-0.871,0.61-1.572,1.258-2.104,1.942l-1.262-0.956c0.24-0.357,0.664-0.802,1.27-1.332
	c0.502-0.449,0.977-0.831,1.428-1.146c0.582-0.407,1.115-0.689,1.596-0.848C86.146,60.978,86.694,61.086,87.022,61.554z
	 M86.522,58.155l1.59-0.952c0.811,1.34,1.658,2.64,2.541,3.9c0.416,0.594,0.914,1.276,1.488,2.047l-1.531,1.073
	c-0.658-0.874-1.191-1.605-1.605-2.194C87.976,60.557,87.147,59.266,86.522,58.155z M96.729,56.127
	c0.268,0.385,0.375,0.768,0.318,1.146c-0.066,0.377-0.295,0.703-0.688,0.977c-0.484,0.341-1.506,0.791-3.057,1.349
	c0.664,0.118,1.402-0.109,2.221-0.682l0.766,1.358c-0.975,0.682-1.812,1.03-2.518,1.049c-0.848,0.03-1.588-0.408-2.223-1.315
	c-0.469-0.667-0.57-1.419-0.307-2.257c0.24-0.77,0.701-1.392,1.379-1.866c0.668-0.467,1.377-0.704,2.133-0.714
	C95.62,55.166,96.278,55.483,96.729,56.127z M91.45,47.926c-0.143,2.356-1.252,4.265-3.326,5.718l-1.463,1.023
	c-1.879,1.314-3.672,1.944-5.381,1.889c-2.043-0.333-3.82-1.578-5.33-3.736c-1.752-2.5-2.727-5.404-2.926-8.714l1.027-0.161
	c1.145-1.544,2.557-2.903,4.236-4.082c0.977-0.684,1.922-1.221,2.836-1.614c1.016-0.276,2.219-0.215,3.609,0.188
	c1.615,0.585,3.121,1.872,4.518,3.865l0.783,1.12C91.118,44.966,91.589,46.468,91.45,47.926z M68.933,74.613
	c0.594,0.854,0.781,1.709,0.559,2.564c-0.213,0.811-0.746,1.516-1.605,2.117c-0.604,0.422-1.201,0.688-1.803,0.805
	c0.129,0.17,0.322,0.389,0.58,0.654l-1.232,1.133c-0.645-0.523-1.447-1.471-2.406-2.84c-0.571-0.818-1.151-1.885-1.741-3.199
	l1.438-0.805l0.09,0.205c0.549-0.635,1.049-1.109,1.499-1.428c0.853-0.596,1.687-0.826,2.499-0.688
	C67.626,73.267,68.335,73.761,68.933,74.613z M61.251,57.103c0.34-0.269,0.686-0.525,1.037-0.771l1.905,2.191
	c-0.384,0.27-0.755,0.544-1.114,0.826c0.293,0.352,0.582,0.697,0.867,1.039c0.119-0.16,0.223-0.312,0.312-0.449l2.239,1.772
	c-0.189,0.35-0.398,0.688-0.631,1.021c0.637,0.775,1.273,1.559,1.92,2.344l-2.344,1.99c-0.531-0.648-1.04-1.275-1.524-1.879
	c-0.235,0.259-0.475,0.503-0.717,0.732l-2.219-1.879c0.36-0.392,0.707-0.78,1.039-1.167c-0.436-0.533-0.852-1.038-1.248-1.519
	c-0.375,0.371-0.732,0.745-1.07,1.121l-1.906-2.191c0.363-0.407,0.742-0.806,1.138-1.189c-0.554-0.68-1.084-1.328-1.594-1.944
	l2.327-1.979C60.193,55.811,60.722,56.456,61.251,57.103z M31.583,90.433c-0.163-0.225-0.315-0.451-0.474-0.676L31.583,90.433z
	 M92.019,98.486c-4.531,3.641-9.59,6.189-14.852,7.682c-4.307,1.221-8.75,1.711-13.161,1.539c0.202-1.523,0.073-1.125,1.141-3.281
	c-1.089,0.83-1.82,1.83-2.959,2.973c0.03,0.1,0.05,0.158,0.06,0.18v-0.01c0,0.008,0.006,0.025,0.015,0.055
	c-6.053-0.488-11.992-2.273-17.367-5.311l7.593-5.477c-0.07-0.561-0.289-1.1-0.34-1.539c-0.013-0.102-0.05-0.355-0.057-0.611
	l0.52-0.363c0.059,0.258,0.041,0.605,0.047,0.756c0.051,0.9,0.7,0.76,0.35,1.391l1.33-0.961c-0.959-0.619-1.479-2.93,0.391-1.25
	c-0.05,0.061-0.1,0.102-0.15,0.16c0.271,0.15,0.471,0.26,0.75,0.381l1.631-1.182c-0.01-0.08-0.01-0.15-0.021-0.219
	c0.09,0,0.19,0.008,0.29,0.027l2.98-2.148c0.01-0.199,0.109-0.398,0.25-0.58l0.039-0.039l0.03,0.01l0.03,0.01h0.01
	c0.141-0.197,0.36-0.318,0.66-0.42l0.109-0.039l-0.129-0.141l0.27,0.1l0.141-0.039c0.069-0.021,0.139-0.039,0.219-0.061l-0.01,0.029
	l11.72-8.439c0.01-0.131,0.02-0.24,0.02-0.33c0.01-0.559-0.92-0.629-1.32-0.729c0.006-0.016,0.006-0.027,0.01-0.043l1.045-0.73
	c0.281,0.436,0.664,0.906,1.025,1.273l0.891-0.65c-0.164-0.641-0.426-1.186-0.42-1.672l0.977-0.684
	c-0.006,0.396-0.15,0.582-0.377,1.074c-0.219,0.449,0.48-0.221,0.65-0.699c0.09-0.258,0.111-0.459,0.086-0.627l4.051-2.838
	c0.494,0.518,1.395,0.93,0.436-0.088c0.459,0.271,0.75,0.531,1.049,0.889l0.5-0.359c0.32-0.449,0.881-0.619,0.979-1.318
	c0.281,0.039,0.33,0.051,0.553,0.158c0.078-0.148,0.09-0.158,0.238-0.238c-0.34-0.16-0.381-0.18-0.791-0.23
	c0.121-0.5,0.182-0.84,0.291-1l0.021-0.02v-0.008c0.1-0.221,0.25-0.199,0.43-0.08l0.029,0.02l0.182-0.18l0.08,0.398l0.229,0.23
	c-0.059-0.051-0.119-0.102-0.18-0.143l-0.039-0.039l0.068,0.34c-0.139,0.051-0.289,0.08-0.398,0.082
	c-0.271-0.01-0.43-0.158-0.17-0.488l0.16-0.143l-0.031-0.02c-0.15-0.07-0.24-0.07-0.32-0.01l-0.039,0.039v-0.004l-0.041,0.102
	c-0.02,0.09-0.039,0.209-0.039,0.35c-0.01,0.191,0.721,0.191,1.301,0.393l0.5-0.361c-0.061-0.188-0.121-0.359-0.131-0.408
	c0.34-0.201,0.301-0.23,0.15-0.641c0.18,0.27,0.34,0.49,0.51,0.67l14.383-10.364c0.008,0.374,0.033,0.749,0.027,1.125l-0.01,0.159
	l0.898,0.03c0.451-0.031,0.83-0.09,1.111-0.158c0.188-0.061,0.33-0.12,0.42-0.18c0.271-0.188,0.053-0.408-0.918-0.507
	c0.535-0.303,1.037-0.773,0.889-1.259l0.227-0.234c0.041,0.051,0.086,0.111,0.123,0.157l0.24,0.262l-0.021-0.432
	c-0.01-0.148-0.01-0.29-0.02-0.438s-0.02-0.289-0.029-0.438v-0.003v-0.001l-0.01-0.138l-0.006,0.004l-0.006-0.052l3.969-2.859
	C109.856,72.431,104.63,88.351,92.019,98.486z M65.118,46.495c0.15-0.21,0.459-0.43,0.82-0.46l-0.045,0.232l-0.584,0.41
	l-0.201-0.062l-0.021-0.01L65.118,46.495z M64.048,47.306l-0.127,0.344l-0.034,0.024l-0.199-0.128L64.048,47.306z M60.023,50.38
	l-1.262,0.883c0.002-0.069,0.028-0.232,0.076-0.567C58.858,50.549,59.38,50.469,60.023,50.38z M54.128,53.406
	c0.31-0.21,0.859-0.199,1.229-0.26c0,0.449-0.739,0.599-1.101,0.938c-0.119,0.069-0.209,0.09-0.279,0.091
	C53.667,54.167,53.757,53.667,54.128,53.406z M55.929,52.325c0.76-0.964,1.288-0.553,1.167,0.104l-1.13,0.791
	C55.917,52.787,55.87,52.4,55.929,52.325z M44.79,60.797c0.129-0.014,0.261-0.019,0.393-0.024l-0.268,0.188
	C44.874,60.905,44.835,60.854,44.79,60.797z M35.358,67.65l-0.51,0.357c-0.066-0.119-0.124-0.281-0.17-0.502
	C35.027,67.54,35.177,67.556,35.358,67.65z M83.497,72.767c0.08-0.061,0.17-0.061,0.32,0.01l0.031,0.021l-0.16,0.141
	c-0.26,0.33-0.102,0.48,0.17,0.488c0.109-0.002,0.26-0.029,0.398-0.08l-0.068-0.342l0.039,0.041c0.061,0.039,0.121,0.09,0.18,0.141
	l-0.229-0.229l-0.08-0.398l-0.182,0.18l-0.029-0.021c-0.18-0.119-0.33-0.141-0.43,0.08v0.008v0.004L83.497,72.767z M65.31,46.677
	l0.586-0.41l0.043-0.232c-0.359,0.03-0.67,0.25-0.818,0.46l-0.031,0.11l0.02,0.01L65.31,46.677z M31.109,89.757
	c0.158,0.225,0.311,0.453,0.474,0.676L31.109,89.757z M108.028,31.475l0.139-0.19l-0.199,0.25l0.051-0.05L108.028,31.475z
	 M109.458,40.486v0.009l0.016-0.021L109.458,40.486l0.141-0.19l-0.201,0.25l0.049-0.04L109.458,40.486z M108.028,31.485l0.023-0.034
	l-0.023,0.024V31.485z M44.398,114.306c-0.015,0-0.039-0.016-0.056-0.021l-0.086,0.111
	C44.305,114.365,44.346,114.343,44.398,114.306z M55.929,52.325c-0.06,0.075-0.011,0.462,0.037,0.896l1.13-0.791
	C57.216,51.772,56.688,51.361,55.929,52.325z M53.979,54.177c0.07-0.001,0.16-0.021,0.279-0.091
	c0.361-0.341,1.101-0.489,1.101-0.938c-0.37,0.061-0.92,0.05-1.229,0.26C53.757,53.667,53.667,54.167,53.979,54.177z M60.023,50.38
	c-0.643,0.089-1.165,0.169-1.186,0.315c-0.048,0.335-0.074,0.498-0.076,0.567L60.023,50.38z M35.358,67.65
	c-0.181-0.094-0.331-0.109-0.68-0.145c0.046,0.221,0.104,0.383,0.17,0.502L35.358,67.65z M44.79,60.797
	c0.047,0.058,0.084,0.108,0.125,0.163l0.268-0.188C45.049,60.778,44.917,60.783,44.79,60.797z M48.257,98.286
	c-0.255-0.174-0.474-0.311-0.691-0.434l-0.512,0.359C47.387,98.294,47.81,98.277,48.257,98.286z M64.048,86.527
	c-0.24,0.24-0.01,0.369-0.16,0.709c0.41,0.102,0.79,0.141,1.269,0.16c0.17-0.209,0.201-0.23,0.471-0.32
	c-0.32-0.5-0.58-0.881-0.91-1.189l-0.026-0.023l-0.717,0.502C63.988,86.413,64.008,86.466,64.048,86.527z M102.306,60.945
	l-0.094,0.068c0.152,0.889-0.365,0.883-1.754,1.944c0.102,0,0.184,0.005,0.275,0.007c0.248-0.244,0.758-0.618,1.646-1.152
	c-0.104-0.233-0.074-0.478,0.039-0.711C102.382,61.051,102.345,61,102.306,60.945z M86.147,71.456c0.051,0,0.1,0,0.16-0.012
	c0.156-0.424,0.068-0.574-0.119-0.635l-0.707,0.494C85.599,71.429,85.771,71.456,86.147,71.456z M89.118,12.415l-0.061,0.127
	l0.27-0.072C89.276,12.348,89.208,12.307,89.118,12.415z M102.63,60.712c0.025,0.01,0.049,0.022,0.076,0.032l0.188-0.154
	c0.021-0.029,0.037-0.048,0.064-0.083l0.045-0.063L102.63,60.712z M37.488,111.534l-0.02,0.012l-0.239,0.078
	c0.07,0.029,0.129,0.051,0.188,0.07l0.041,0.01l0.012,0.006c0.013,0.004,0.025,0.012,0.039,0.016l0.068,0.01l0.051,0.012l0.05,0.01
	h0.01l0,0l0,0l0.2,0.021h0.01c0.08,0.01,0.16,0.01,0.26,0.02l0.041,0.352v0.002v0.078v0.002v0.197v0.002v0.09v0.002l-0.011,0.148
	l-0.01,0.068l-0.024,0.139h0.004l-0.009,0.027l-0.001,0.004l-0.029,0.111l-0.011,0.039l-0.003,0.012l-0.007,0.025l-0.002,0.002
	l-0.028,0.092v0.018v0.002v0.02v0.002v0.039l0.03,0.027h0.021l0.039,0.021h0.01h0.011h0.05l0.02,0.01h0.03h0.03
	c0.1,0.008,0.25,0.02,0.449,0.037l0.431-1.52l0.01-0.025h-0.04l0.004-0.004H39.16l0.01-0.012l0.009-0.016l-0.318-0.061l-0.81-0.131
	l-0.5-0.07h-0.021l-0.03,0.006H37.488L37.488,111.534L37.488,111.534z M60.579,90.575c0.09-0.029,0.15-0.07,0.15-0.18
	c-0.04,0.039-0.09,0.09-0.141,0.139l-0.029,0.041H60.579z M60.417,90.626l0.08,0.029l0.061-0.08l-0.03,0.01
	C60.488,90.597,60.45,90.615,60.417,90.626z M50.548,96.548c-0.211-0.109-0.42-0.211-0.631-0.311
	c-0.039,0.068-0.06,0.119-0.109,0.18c-0.009-0.045-0.023-0.07-0.034-0.109l-0.442,0.311c0.296,0.414,0.801,0.6,1.396,0.6h0.09
	c0.141,0,0.29-0.01,0.439-0.041c0.318,0,0.294-1.271-0.255-1.729l-0.357,0.25C50.649,95.984,50.63,96.238,50.548,96.548z
	 M55.929,92.406c0.13,0.01,0.319-0.07,0.54-0.279c0.08,0,0.119,0.01,0.199-0.012c-0.018-0.006-0.129-0.26-0.224-0.477l-0.729,0.51
	C55.711,92.298,55.788,92.402,55.929,92.406z M63.921,47.649l0.127-0.343l-0.36,0.239l0.199,0.128L63.921,47.649z M9.429,63.059
	l0.35-0.244l0.101-0.17l-0.2-0.57c-0.008-0.025-0.011-0.044-0.018-0.066c-0.061,0.025-0.113,0.053-0.192,0.077
	C9.436,62.1,9.395,62.108,9.356,62.12C9.331,62.417,9.3,62.713,9.279,63.01C9.329,63.025,9.384,63.047,9.429,63.059z
	 M37.068,115.406l0.01-0.021l-0.32-0.061l-0.809-0.131l-0.5-0.068l-0.051,0.01h-0.01l-0.02,0.012l-0.24,0.08
	c0.07,0.027,0.129,0.049,0.189,0.068l0.04,0.01l0.021,0.012l0.029,0.01l0.07,0.01l0.05,0.012l0.05,0.01l0.211,0.021h0.01
	c0.08,0.01,0.16,0.01,0.26,0.02l0.04,0.352v0.078v0.201v0.09l-0.011,0.15l-0.01,0.068l-0.029,0.17l-0.03,0.109l-0.011,0.039
	l-0.039,0.131v0.021v0.02v0.039l0.029,0.031h0.021l0.04,0.02h0.01h0.01h0.051l0.02,0.01h0.03h0.03c0.1,0.01,0.25,0.02,0.449,0.039
	l0.43-1.521l0.011-0.029h-0.04L37.068,115.406z M24.929,23.645l-0.07,0.05l0.035,0.089c0.023-0.014,0.047-0.028,0.07-0.043
	l0.266-0.235c-0.054,0-0.116-0.003-0.184-0.011C25.029,23.544,24.996,23.593,24.929,23.645z M22.099,98.154
	c-0.024,0.008-0.045,0.01-0.068,0.016c-0.056,0.1-0.11,0.213-0.164,0.318c0.042,0.141,0.081,0.277,0.108,0.404
	c0.271-0.371,0.559-0.736,0.847-1.082c-0.204,0.139-0.416,0.254-0.603,0.314C22.179,98.136,22.139,98.146,22.099,98.154z
	 M10.111,70.382c-0.325-0.32-0.609-0.605-0.899-0.896c0.013,0.283,0.031,0.564,0.05,0.848L10.111,70.382z M28.45,107.267
	l-0.147,0.049l0.136,0.023L28.45,107.267z M21.304,27.298c-0.224,0.064-0.433,0.13-0.604,0.197c0.117,0.04,0.226,0.074,0.334,0.108
	C21.125,27.503,21.21,27.398,21.304,27.298z M19.124,93.589c-0.012-0.02-0.022-0.033-0.035-0.055
	c0.005,0.021,0.008,0.039,0.013,0.061C19.107,93.593,19.117,93.591,19.124,93.589z M16.431,91.105
	c0.031-0.002,0.063-0.004,0.094-0.002l0.102-0.109c-0.044,0.012-0.088,0.018-0.133,0.023C16.473,91.048,16.454,91.075,16.431,91.105
	z M112.388,29.926c-0.188-0.13-0.561-0.238-1.01-0.34l-0.229-0.039c0.123,0.303,0.318,0.755,0.729,1.397
	c0.6,0.601,1.033,1.023,1.617,1.606c0.344-0.198,0.67-0.396,0.967-0.607C113.933,31.612,112.823,30.208,112.388,29.926z
	 M47.309,121.517c-0.051-0.07-0.09-0.143-0.13-0.201l-0.011-0.01l-0.02-0.051l-0.05-0.061l-0.04-0.061l-0.03-0.041l-0.03-0.049
	l-0.06-0.061l-0.021-0.021l-0.02-0.039l-0.05-0.061l-0.021-0.021l-0.039-0.029l-0.031-0.051l-0.069-0.061l-0.01-0.02l-0.04-0.041
	l-0.051-0.051l-0.02-0.012l-0.029-0.027l-0.07-0.07l-0.07-0.07l-0.01-0.01l-0.01-0.01l-0.021-0.021
	c-0.069-0.059-0.14-0.129-0.22-0.209l-0.11,0.16l-0.43,0.629l0.229,0.092l1.561,0.604l-0.051-0.08L47.309,121.517z M91.028,115.068
	c-0.219-0.113-0.404-0.127-0.568-0.074c0.033,0.086,0.146,0.189,0.357,0.412c0,0.008,0,0.012,0,0.018
	c0.146-0.078,0.293-0.158,0.439-0.238C91.183,115.146,91.11,115.111,91.028,115.068z M93.733,113.546l-0.025,0.068l0.008,0.119
	c0.057-0.035,0.113-0.068,0.17-0.104C93.833,113.607,93.784,113.575,93.733,113.546z M56.068,122.216l-0.18-0.078l-0.26-0.15
	l0.01-0.01l-0.26-0.141l-0.021,0.051l-0.01,0.02c-0.03,0.08-0.07,0.17-0.101,0.271l-0.029,0.07l0.01-0.012l-0.02,0.061l-0.021,0.029
	c-0.03,0.111-0.069,0.23-0.101,0.352l-0.039,0.16l-0.01,0.039l-0.03,0.143l-0.021,0.061l-0.02,0.1v-0.01l-0.08,0.369l-0.02,0.119
	h0.01l-0.08,0.391c0.09-0.043,0.18-0.082,0.26-0.123c0.17-0.078,0.311-0.17,0.439-0.277l0.33-0.32l0.01-0.01l0.19-0.279l0.06-0.08
	c0.07-0.121,0.121-0.25,0.16-0.371l0.061-0.221l-0.12-0.068L56.068,122.216z M89.958,115.757c-0.164-0.076-0.268-0.072-0.346-0.043
	l0.096,0.041l-0.029,0.051c-0.07,0.115-0.148,0.236-0.221,0.346c0.213-0.107,0.422-0.221,0.633-0.33
	C90.046,115.8,90.007,115.779,89.958,115.757z M92.618,13.086l0.01,0.029l0.23-0.44l-0.381-0.108l0.061,0.22
	c0.002,0.009,0.004,0.016,0.006,0.022l-0.006-0.002L92.618,13.086z M94.978,12.766l0.643-0.33l-0.062-0.03l-0.471-0.26l-0.459,0.409
	C94.438,12.806,94.638,12.856,94.978,12.766z M30.128,19.826c0.27,0.39,0.5,0.7,0.699,0.95l0.121,0.12l0.399-0.341l0.149-0.119
	l-0.02-0.03C31.159,19.976,30.667,19.637,30.128,19.826z M31.898,20.106c0.189-0.149,0.37-0.301,0.561-0.45l0.479-0.37l-0.13-0.06
	c-0.38-0.052-0.88-0.012-1.5,0.198l0.57,0.7L31.898,20.106z M33.659,18.636l0.05,0.069l0.09-0.06L33.659,18.636z M29.07,20.298
	l-1.121,0.809l0.149,0.26c0.08,0.021,0.159,0.011,0.271-0.029c0.1-0.029,0.219-0.08,0.359-0.17c0.275-0.156,0.542-0.541,0.816-0.968
	c0.251-0.049,0.409-0.075,0.474-0.093c0.03-0.01,0.04-0.021,0.021-0.03c-0.039-0.013-0.172-0.026-0.372-0.05l0.292-0.37l-0.48,0.348
	c-0.067-0.009-0.133-0.017-0.21-0.026l-1.729-0.36l-0.08,0.07l0.31,0.93C28.3,20.473,28.73,20.371,29.07,20.298z M30.04,19.557
	c0.08-0.031,0.17-0.062,0.279-0.102c0.28-0.12,0.65-0.281,1.04-0.471l0.49-0.26l-0.38,0.04c-0.18,0.02-0.36,0.028-0.551,0.05h-0.08
	l-0.569,0.37C29.679,19.586,29.708,19.666,30.04,19.557z M30.62,17.396l0.35,0.068l0.08-0.067l1.13-1.521l-0.49,0.359
	c-0.2,0.14-0.399,0.3-0.601,0.45l-0.56,0.43l0.021,0.04C30.559,17.196,30.579,17.266,30.62,17.396z M45.007,10.836l0.431-0.03
	l0.88-0.449l-0.061-0.12c-0.119-0.311-0.049-0.649-0.039-1.41c-1.78,0.991-1.54,1.33-1.25,1.931L45.007,10.836z M46.628,10.016
	l0.199-0.24c0.101-0.21,0.11-0.431,0.03-0.641l-0.36-0.409l0.051,0.619L46.628,10.016z M43.822,114.956
	c0.134,0.004,0.268,0.006,0.396-0.018c0.09-0.021,0.17-0.041,0.25-0.07c0.24-0.08,0.47-0.211,0.689-0.391l0.08-0.09v-0.051
	l0.01-0.051v-0.02l-0.673-0.283l0.023-0.029l-1.899-0.83c-0.89-0.414-1.759-0.865-2.62-1.334l-0.001-0.004l-0.496-0.268
	c-0.154-0.086-0.311-0.166-0.463-0.254l-2.23-1.391l-0.28,0.52c-0.008,0.111-0.003,0.219,0.009,0.324
	c-0.024,0.012-0.05,0.023-0.075,0.035c-0.447-0.238-0.601-0.039-0.524,0.271c-0.183,0.102-0.364,0.205-0.549,0.318
	c0.369,0.537,0.596,0.973,0.84,1.24c-0.104,0.057-0.205,0.115-0.301,0.18l-0.25,0.221l0.441,0.26l0.028-0.016l0.358,0.223
	l-0.027,0.014l0.05,0.029l0.45,0.271l0.02-0.01l0.34,0.211v0.01l0.11,0.059l0.264,0.145c0.802,0.453,1.615,0.881,2.437,1.293
	c0.003,0.037,0.016,0.057,0.05,0.043c0.003-0.002,0.011-0.008,0.014-0.01c0.342,0.17,0.681,0.346,1.026,0.51l0.236,0.104
	l0.004,0.006l0.72,0.34l0.24,0.109l-0.163-0.299l0.053-0.029c0.058-0.037,0.105-0.074,0.16-0.113c0.027,0.014,0.061,0.02,0.12,0.006
	c0.04-0.01,0.08-0.02,0.13-0.039c0.141-0.051,0.36-0.131,0.689-0.24l-0.262-0.24c0.056-0.047,0.117-0.094,0.172-0.143
	L43.822,114.956z M44.398,114.306c-0.053,0.037-0.094,0.061-0.142,0.09l0.086-0.109C44.359,114.29,44.383,114.306,44.398,114.306z
	 M37.499,111.534l0.03-0.006h0.021l0.5,0.07l0.81,0.129l0.318,0.061l-0.009,0.018l-0.01,0.01h0.004l-0.004,0.004h0.04l-0.01,0.025
	l-0.431,1.521c-0.199-0.02-0.35-0.029-0.449-0.039h-0.03h-0.03l-0.02-0.01h-0.05h-0.011h-0.01l-0.039-0.02h-0.021l-0.03-0.029
	v-0.037v-0.002v-0.02v-0.002v-0.02l0.028-0.09l0.002-0.002l0.007-0.027l0.003-0.01l0.011-0.041l0.029-0.109l0.001-0.004l0.009-0.027
	l-0.004-0.002l0.024-0.137l0.01-0.07l0.011-0.148v-0.002v-0.09v-0.002v-0.195v-0.002v-0.078v-0.002l-0.041-0.352
	c-0.1-0.012-0.18-0.012-0.26-0.021h-0.01l-0.2-0.02l0,0l0,0l-0.01-0.002l-0.05-0.01l-0.051-0.01l-0.068-0.01
	c-0.014-0.006-0.026-0.012-0.039-0.016l-0.012-0.008l-0.041-0.01c-0.06-0.02-0.118-0.039-0.188-0.068l0.239-0.08l0.02-0.01
	l-0.001-0.002h0.001h0.011V111.534z M31.898,106.386c-0.061,0.32-0.13,0.689-0.22,1.141l1.149-0.451l-0.479-0.369l-0.45-0.359
	V106.386z M36.099,109.406l-0.479,0.51l0.839-0.27L36.099,109.406z M45.579,117.847l-0.071-1.25l-0.269-0.08v-0.012h-0.01
	l0.01-0.141l0.01-0.389l-0.12,0.09l-0.83,1.27l0.92,0.371L45.579,117.847z M53.917,117.695l0.17-0.139l0.021-0.021l0.07-0.119
	l0.03-0.068v-0.182l0.03-0.029l-0.231-0.051l-0.17-0.039L53.917,117.695z M49.278,117.363l-0.2,0.07l0.021,0.01l0.03,0.051
	l0.029,0.039l0.041,0.062l0.049,0.061l0.021,0.051l0.01,0.01c0.021,0.031,0.04,0.061,0.06,0.102l0.031,0.049l0.039-0.143
	C49.579,117.343,49.818,117.193,49.278,117.363z M51.749,119.816l-0.049-0.33l-0.131,0.291L51.749,119.816z M86.528,114.835
	l0.039-0.051l-1.029,0.391l-0.355,0.125l-0.016-0.045l-0.949,0.32l0.199,0.41c0.242-0.082,0.418-0.172,0.545-0.264l-0.014,0.863
	C86.837,115.956,86.257,115.556,86.528,114.835z M81.269,118.847l0.16,0.119c0.328,0.17,0.689,0.229,1.139,0.08l0.17-0.051
	l0.842-0.479c0.721-0.49,0.83-0.891,0.641-1.361l-0.869-1.229l-0.371,0.119c-0.43,0.131-0.869,0.262-1.299,0.381l-0.73,0.189
	l0.82,0.279c0.559,0.18,1.189,0.371,1.91,0.58c-0.771,0.471-1.49,0.67-1.951,0.93L81.269,118.847z M10.999,56.587
	c0,0,0-0.011,0.01-0.011c0.041-0.11,0.111-0.93,0.58-2.31l-1.02,0.34C10.917,55.985,10.958,56.606,10.999,56.587z M26.608,103.736
	c0.03-0.008,0.06-0.02,0.091-0.029c0.209-0.068,0.479-0.219,0.68-0.438l0.209-0.771l-0.06-0.061l-0.8,0.631
	C26.108,103.636,26.257,103.816,26.608,103.736z M98.108,13.995l0.031,0.076l0.021,0.056l-0.006-0.001l0.025,0.054l0.006,0.016
	h0.002l0.02,0.041c0.049,0.101,0.09,0.2,0.129,0.29l0.041,0.061l0.129-0.069l0.24-0.12l-0.273-0.165l-0.035-0.024l-0.01-0.004
	l-0.082-0.053l0.051-0.015l-0.311-0.199l0.021,0.062V13.995z M33.769,111.697l0.11,0.07l0.379,0.26l0.391-0.219
	c0.311-0.281,0.51-0.643,0.38-1.021c-0.521,0.34-0.909,0.619-1.19,0.84L33.769,111.697z M16.968,90.566l0.01,0.031 M108.708,45.556
	c0.369,1.109,0.709,0.551,1.66,0.229c2.514,0.445,2.217-0.066,0.895-0.284c1.844-0.443,1.443-0.027-0.426-0.666
	c0.072,0.215,0.143,0.428,0.215,0.634C110.407,45.386,109.575,45.376,108.708,45.556z M110.938,42.556
	c0.07-0.011,0.26-0.101,0.609-0.329C111.448,41.926,110.708,42.586,110.938,42.556z M109.438,40.556
	c0.02-0.039,0.049-0.079,0.059-0.101l-0.023,0.019l-0.016,0.021v-0.009l-0.012,0.02l-0.049,0.04l0.01,0.021l-0.43,0.29
	C107.448,41.916,108.647,41.655,109.438,40.556z M109.474,40.474l0.125-0.179l-0.141,0.189L109.474,40.474z M109.888,39.615
	c-0.619,0.21-0.729,0.181-0.629,0.5l0.139,0.431l0.201-0.25C109.718,40.095,109.817,39.865,109.888,39.615z M108.448,30.605
	c-0.621,0.21-0.73,0.18-0.631,0.5l0.15,0.43l0.199-0.25C108.288,31.085,108.378,30.855,108.448,30.605z M108.052,31.451l0.115-0.166
	l-0.139,0.19L108.052,31.451z M107.968,31.566l-0.43,0.279c-1.52,1.06-0.33,0.801,0.459-0.301c0.031-0.04,0.061-0.08,0.061-0.101
	l-0.006,0.006l-0.023,0.034v-0.01l-0.01,0.01l-0.051,0.05l0.01,0.011l0.031-0.04l-0.031,0.051L107.968,31.566z M31.298,63.565
	c-1.59-1.87-2.68,0.101-1.311-0.359c1.24,1.159,1.35,1.98,1.99-0.181c-0.02,0-0.04,0-0.061,0l-0.209,0.01
	C31.579,63.206,31.45,63.365,31.298,63.565z M27.837,49.696c-0.439,0.439-0.739,0.75-1.18,1.189
	C27.278,53.115,26.849,52.266,27.837,49.696z M24.257,34.285c0.4,0.311,0.671,0.521,1.07,0.83
	C25.329,38.716,27.749,33.115,24.257,34.285z M27.108,33.336c0.08,0.23,0.16,0.472,0.24,0.71
	C30.358,34.575,29.648,33.325,27.108,33.336z M22.358,33.336c0.08,0.239,0.16,0.48,0.24,0.71
	C24.659,33.525,24.29,33.995,22.358,33.336z M70.587,116.558v0.008 M70.599,116.527v-0.004l-0.006,0.023L70.599,116.527z
	 M70.528,116.716c-0.041,0.17,0.039,0.102,0.059-0.158l0.006-0.012l-0.006,0.01L70.528,116.716z M71.218,115.447
	c-0.66-0.211-1.131-0.371-1.779-0.59c0.391,0.309,0.67,0.529,1.061,0.83c0.102,0.367,0.109,0.646,0.102,0.836l0.02-0.057
	C70.718,116.247,70.897,115.906,71.218,115.447z M58.999,114.396c-0.439,0.449-0.75,0.75-1.18,1.189
	C59.398,118.066,58.679,116.187,58.999,114.396z M66.808,104.667c-0.438,0.439-0.74,0.75-1.18,1.189
	c0.732,0.521,1.016,0.986,1.123,0.756c0.756,1.328,0.068,1.215,1.727,0.652c-0.752-0.531-0.922-0.604-1.682-0.865
	C66.821,106.111,66.812,105.57,66.808,104.667z M59.218,105.626c1.41,1.141,0.13,1.93,1.55-0.121c-0.95-0.34-1.78-0.699-2.729-1.068
	C58.468,105.406,58.318,105.376,59.218,105.626z M73.823,24.395h-0.006 M73.823,24.395l-0.006,0.003l0.01-0.003l0.006-0.004
	l-0.006,0.002L73.823,24.395z M73.817,24.398l-0.15,0.047C73.511,24.505,73.599,24.524,73.817,24.398z M78.278,22.396
	c0.33-1.182,1.719-4.96-0.34-2.102C77.218,22.086,76.769,21.306,78.278,22.396z M76.388,17.325c-1.1,2.741,0.01,1.062,1.65,0.271
	C77.417,17.495,76.997,17.426,76.388,17.325z M80.128,17.256c0-1.011-0.041-1.119-0.33-2.09
	C79.077,16.956,78.628,16.166,80.128,17.256z M48.818,22.936l-0.9,0.409l0.181,0.358c0.479,0.812,1.11,1.271,1.76,1.682l1.22,0.931
	l3.03-1.188c6.467-1.835,13.247-2.053,19.757-0.76c-0.004,0-0.006,0.004-0.008,0.005l-0.023,0.018l0.051-0.018
	c1.426,0.283,2.842,0.614,4.234,1.045l0.1,0.04l-0.539-0.811c-1.461-1.84-3.08-2.98-4.781-4.05l-0.41-0.262l-1.879-0.301
	c-1.461-0.16-2.93-0.25-4.4-0.27l-0.42,0.02l-0.82,2.841c-0.309-0.54-0.529-1.069-0.689-1.561l-0.29-1.22l-1.92,0.068l0.61,1.102
	c0.1,0.349,0.14,0.698,0.04,1.068c-0.131,0.46-0.641-0.16-0.85-0.591c-0.091-0.18-0.17-0.449-0.24-0.76l-0.15-0.771l-4.07,0.529
	C54.499,21.026,51.62,21.836,48.818,22.936z M45.818,27.806l-0.48,0.971l1.07-0.611l3.1-1.229l0.191-0.15
	C48.108,26.766,46.587,26.995,45.818,27.806z M95.108,80.825l-0.521,0.869l0.07,0.301c0.041,0.289,0,0.391,0.221,0.33
	c0.08-0.021,0.18-0.051,0.32-0.1c0.15-0.061,0.33-0.121,0.57-0.201c-0.051-0.08-0.141-0.279-0.271-0.529L95.108,80.825z
	 M101.747,70.476c0.66,0.43-1.33,2.389-0.469,2.279l0.619-0.141l0.061-0.229c0.221-0.852,0.41-1.711,0.561-2.57l0.148-0.859
	l-0.289,0.199C101.868,69.585,101.599,70.036,101.747,70.476z M102.757,66.665l0.201-0.07l0.02-0.189l-0.199,0.141
	C102.679,66.636,102.679,66.675,102.757,66.665z M102.938,64.715c-0.021-0.005-0.037,0.021-0.041,0.065l-0.141,0.026
	c-0.561,0.139-1.359,0.408-1.699,0.568c-0.404,0.179-0.158,0.188,1.869-0.368l0.121,0.438l0.029-0.43v-0.07l0.01-0.2l-0.102,0.02
	L102.938,64.715z M52.269,122.505h-0.011 M82.813,14.666c-0.578,0.614-0.516,0.458,0.322,0.117c1.539,0.551,3.061,1.154,4.553,1.843
	l1.67,0.812l0.029-0.133c0.32-1.562,0.471-3.369,0.631-2.261c0.01,0.04,0.299,0.82,0.5,1.642l0.01,0.028l0.26-0.488
	c0.17-0.321,0.33-0.571,0.51-0.771l0.5-0.318l-2.131-1.109c-1.279-0.609-2.58-1.169-3.898-1.689l-1.561-0.54l-0.689,1.449
	c-1.25-0.349-0.371,0.091-0.318-1.648c-0.393-0.109-0.553-0.109-0.893-0.329l0.271-0.04l-0.801-0.28
	c-5.391-1.659-10.979-2.54-16.6-2.62l-0.92,0.03l-0.17,0.46c-0.289,0.471-0.739,0.891-0.859,1.01c-0.46,0.441-0.8,0.871-0.92,1.351
	l-0.01,0.439l2.838-0.09C71.147,11.602,77.118,12.668,82.813,14.666z M58.587,11.866l-1.429-1.3l0.009,1.49L58.587,11.866z
	 M100.688,23.186c-0.09,0.21-0.211,0.398-0.361,0.551c0.461,0,0.83-0.05,1.141-0.141c0.18-0.061,0.33-0.14,0.461-0.229
	c0.26-0.18,0.42-0.42,0.51-0.71l0.021-0.271l-0.551-0.5l-0.051,0.239c-0.121,0.229-0.301,0.46-0.529,0.659l-0.619,0.33
	L100.688,23.186z M97.817,22.706l0.961,0.75l-0.051-0.54c-0.061-0.3-0.109-0.56-0.16-0.819l-0.15-0.812l-0.1,0.04
	c-0.469,0.12-0.949,0.021-1.35-0.46c-0.369-0.42,1.24-0.689,1.119-1.239l0.471-0.271l-1.449-1.09l-0.271-0.16l-0.158,0.25
	l-0.15,0.26l0.07,0.061c0.08,0.08,0.109,0.132,0.102,0.132c-0.01,0-0.031-0.012-0.062-0.04l-0.109-0.142l-0.09,0.142l-1.25,2.079
	l0.699,0.46C96.538,21.756,97.188,22.226,97.817,22.706z M100.849,21.726l0.01-0.031l0.279-0.41l-0.32-0.239L100.849,21.726z
	 M99.438,23.986l0.27,0.21l0.299,0.28l-0.26-2.182c-0.02-0.659,0-1.27,0.021-1.818l0.02-0.2l-0.02-0.01l-1.061,0.908l-0.271,0.109
	l0.279,0.102c1.039,0.511,1.01,1.858,0.73,2.579L99.438,23.986z M96.278,18.186l0.129-0.071l0.24-0.13l-0.641-0.399l0.23,0.54
	L96.278,18.186z M91.997,16.156c-0.26,0.681-0.539,1.33-0.799,1.83l-0.191,0.319l0.66,0.359l0.641-0.648
	c0.312,0.408,0.48,0.64,0.621,0.88l0.299,0.699l0.67,0.398l0.08,0.051l0.59-0.659c0.371-0.351,0.781-0.649,1.291-0.949l0.182-0.11
	l-0.281-0.13c-1.42,0.471-1.238,0.33-0.578-0.149l0.719-0.521l-2.439-1.521l-1.189-0.619L91.997,16.156z M52.007,121.136l0.07-0.119
	l0.03-0.07v-0.18l0.05-0.051l-1.22-0.26l-0.63-0.182l-0.21,0.57l-0.08,0.211l-0.05,0.129l-0.02,0.08l-0.111,0.279
	c-0.09,0.24-0.18,0.48-0.279,0.721l-0.08,0.188h-0.01h-0.01l-0.08-0.029l-1.301-0.51l0.021-0.029h-0.011l0.061-0.102
	c0.109-0.17,0.221-0.34,0.33-0.5l0.09-0.119l0.03-0.039l0.06-0.068l0.061-0.08l0.039-0.041l0.08-0.102l0.111-0.119l0.069-0.08
	l0.08-0.09l0.06-0.061l0.08-0.08l0.36-0.34l-0.399-0.111l-0.061,0.031l-0.03,0.01l-0.03,0.021h-0.01l-0.09,0.049l-0.02,0.01
	l-0.061,0.021l-0.029,0.021l-0.031,0.01l-0.06,0.029l-0.021,0.012l-0.029,0.01l-0.02,0.012l-0.041,0.01l-0.01,0.01h-0.01
	c-0.02,0.01-0.04,0.01-0.061,0.01h-0.01h-0.02v-0.01l-0.01-0.01l0.01-0.01h-0.01l0.01-0.012v-0.01l0.01-0.012l0.01-0.01l0.03-0.051
	l0.011-0.01l0.02-0.021v-0.01l0.01-0.012c0.03-0.027,0.07-0.068,0.109-0.119h0.011l0.01-0.021l0.05-0.049l-1.25-0.361l-2.14-0.76
	l-0.03,0.109h0.01l-0.02,0.068l-0.04,0.191l-0.06,0.279l-0.01,0.039l-0.031,0.131l-0.029,0.107l-0.02,0.062l-0.03,0.141
	l-0.011,0.029c-0.039,0.15-0.08,0.291-0.129,0.43l-0.11,0.33l-0.011,0.021h-0.01v0.012l-0.09-0.041l-0.689-0.23l-0.99-0.299v-0.01
	h-0.01l0.01-0.143l0.01-0.75v-0.238v-0.15v-0.039v-0.121v-0.328l-0.01-0.279v-0.119l0.01-0.051v-0.041l-2.1-0.898
	c-7.45-3.469-14.23-8.65-19.721-15.48c-4.37-5.438-7.53-11.455-9.542-17.727l0.302,0.916l0.041,0.08l0.24-0.02
	c0.149-0.051,0.189-0.148,0.1-0.33l-0.689-0.67c-0.013-0.037-0.023-0.074-0.035-0.111l0.484-0.258c0.18-0.08,0.38-0.119,0.59-0.039
	c0.114,0.045,0.203,0.148,0.282,0.27c-0.021,0.045-0.039,0.082-0.062,0.129c0.044-0.012,0.078-0.02,0.12-0.029
	c0.146,0.256,0.255,0.555,0.39,0.67c0.022,0.02,0.044,0.025,0.066,0.033c-0.224,0.188-0.434,0.363-0.627,0.525l-0.254,0.219
	c-0.08-0.16-0.187-0.303-0.342-0.377h-0.26l0.51,1.25l0.14,0.32V86.31l0.16,0.363l0.06-0.014l0.496,1.098l-0.065,0.01l0.09,0.209
	c0.101,0.219,0.21,0.43,0.31,0.648l0.291,0.59l0.003-0.004l0.146,0.295l0.013-0.006l0.006,0.014l0.015,0.031l-0.013,0.01
	l0.185,0.371l0.005,0.012l0.006,0.01c0.096,0.186,0.199,0.375,0.297,0.561H14.78l0.04,0.068c0.004,0.008,0.008,0.016,0.011,0.021
	l0.259,0.5v-0.021l0.01,0.018c0.076,0.143,0.153,0.283,0.23,0.424l0,0l0.07,0.131l0,0c0.041,0.072,0.079,0.146,0.12,0.221l0.3,0.529
	l0.039-0.076l0.13,0.223l-0.069,0.014l0.33,0.58l0.112,0.172l0.06,0.098H16.42l0.02,0.029l0.201,0.332
	c0.073,0.119,0.149,0.236,0.223,0.354l-0.013-0.014l0.18,0.279l-0.008-0.016c0.136,0.215,0.269,0.43,0.408,0.646l0.511,0.766
	l-0.001,0.002l0.31,0.461l0.42,0.602l0.311,0.199c0.1,0.053,0.185,0.088,0.261,0.111l-0.211,0.199l0.08,0.107l0.183,0.248
	l0.258,0.361l0.06,0.08l0.014,0.002l0.267,0.367v0.002l0.109,0.148c0.199,0.258,0.401,0.51,0.604,0.764l0.236,0.307l0.001-0.006
	c0.001,0.002,0.001,0.002,0.002,0.004l0.098,0.123l0.432,0.531h-0.001l0.071,0.086l0.198,0.244l0.001-0.002l0.009,0.012l0.047,0.055
	l0.062,0.074v-0.002l0.131,0.152v-0.002l0.24,0.281l0.271-0.107l0.018,0.008c0.041,0.061,0.021,0.141-0.049,0.221l-0.061,0.039
	l0.199,0.221l0.663-0.793l0.714-0.289L24,101.109c-0.338,0.26-0.562,0.539-0.478,0.799c0.211-0.104,0.403-0.203,0.586-0.299
	l0.084,0.387c0.089,0.059,0.131,0.145,0.144,0.248c-0.726,0.375-1,0.598-0.034,0.322c-0.064,0.238-0.197,0.512-0.329,0.771v0.01
	l0.689,0.721l0.17,0.182l0.034-0.018l0.116,0.115l0.151,0.061l-0.052,0.092l0.36,0.359l0.09,0.09l0.39-0.127
	c0.112,0.09,0.2,0.197,0.275,0.312c0.02,0.057,0.047,0.113,0.08,0.174l-0.025,0.289l0.791,0.791l1.162,0.912l-0.173-0.031
	l0.66,0.568c0.172,0.146,0.353,0.289,0.527,0.436c0.062,0.066,0.102,0.098,0.124,0.102c0.346,0.287,0.688,0.578,1.039,0.855
	l0.34,0.26l0.412,0.01c-0.062,0.016-0.134,0.035-0.192,0.051l-0.11,0.029l0.4,0.311l0.109,0.07l1.181,0.068
	c-0.062-0.164-0.115-0.336-0.171-0.504l1.581,0.033c-0.554-0.236-1.037-0.445-1.513-0.646c0.018-0.006,0.037-0.008,0.053-0.012
	c0.08-0.021,0.16-0.062,0.22-0.092c0.08-0.045,0.143-0.098,0.195-0.152c0.102,0.006,0.206,0.016,0.314,0.023
	c0.047,0.139,0.095,0.279,0.14,0.42c0.225-0.059,0.423-0.105,0.608-0.146c0.185,0.361,0.712,0.562,1.712,0.486l0.42-0.061
	l-0.42-0.25l-1.539-1.131l-0.169,0.379c-0.145-0.039-0.297-0.084-0.462-0.137c-0.041-0.117-0.081-0.232-0.119-0.352
	c-0.167,0.047-0.314,0.088-0.465,0.129c-0.277-0.307-1.027-0.494-2.359-0.193c-0.26-0.359-1.029-0.402-1.59-0.525
	c-0.115-0.238-0.244-0.486-0.376-0.73c0.057-0.07,0.103-0.145,0.089-0.221c-0.085-0.596-0.243-1.074-0.462-1.461l1.212-0.656
	l-0.219-0.201l-0.15-0.141l-0.631,0.289c-0.175,0.117-0.32,0.242-0.44,0.369c-0.457-0.564-1.112-0.828-1.979-0.789l-0.1,0.02
	c-0.009-0.078-0.016-0.145-0.021-0.209c0.193-0.221,0.358-0.467,0.471-0.75l0.065-0.408c0.136-0.211,0.201-0.455,0.116-0.723
	l0.017-0.105c0.019-0.01,0.043-0.021,0.062-0.031l0.04-0.021l-0.07-0.068l-0.01-0.012v-0.002l-0.051-0.051l-0.109-0.117
	l-0.002,0.002l-0.197-0.203c-0.086-0.094-0.17-0.189-0.255-0.283l0.005-0.004l-0.121-0.131l-0.002,0.002
	c-0.474-0.521-0.94-1.051-1.4-1.59c0-0.014,0.003-0.021,0.003-0.033l0.021-0.07l-0.131-0.141l-0.012,0.102
	c-0.009-0.01-0.018-0.021-0.026-0.031l0.028-0.078l-0.882-0.941c-0.003-0.004-0.005-0.006-0.008-0.01l-0.018-0.023l-0.282-0.385
	l-0.014,0.016l-0.137-0.166l-0.18-0.24l-0.037,0.027l0.027-0.037l-0.24-0.318l-0.11-0.141l-0.71,0.43
	c-0.073,0.055-0.139,0.109-0.205,0.166c-0.007-0.049-0.009-0.098-0.025-0.146c-0.215,0.152-0.395,0.291-0.551,0.416
	c-0.015-0.039-0.028-0.08-0.043-0.119c0.223-0.158,0.435-0.312,0.624-0.463c0.106,0.008,0.208,0.016,0.32,0.025
	c-0.029-0.08-0.054-0.158-0.081-0.238l0.48-0.432l-1.049-1.449c-0.069,0.014-0.125,0.016-0.188,0.021
	c-0.021-0.023-0.043-0.049-0.066-0.072l0.153,0.012l-0.091-0.131l0,0l-0.119-0.17L20.58,93.99l-0.006,0.002
	c-0.028-0.041-0.055-0.082-0.084-0.121l-0.24-0.369l-0.023-0.004l0.014-0.037l-0.13-0.182l-0.39-0.66l-0.199,0.906
	c-0.01,0.002-0.021,0.004-0.03,0.004c-0.13-0.027-0.263-0.035-0.401,0.012c0.013,0.02,0.023,0.033,0.035,0.055
	c-0.007,0.002-0.016,0.004-0.022,0.006c-0.005-0.021-0.008-0.039-0.013-0.061c-0.064,0.021-0.106,0.045-0.163,0.066
	c-0.121-0.354-0.286-0.771-0.47-1.207c0.006-0.014,0.011-0.027,0.018-0.043c0.006-0.008,0.007-0.014,0.011-0.02
	c0.123-0.256,0.308-0.504,0.515-0.727l0.09-0.092l-0.58-1l-0.049,0.01l0.01-0.08l-0.51-0.879l-0.037,0.039l-0.323-0.619
	l-0.068,0.109l-1.092,0.561c-0.048,0.029-0.076,0.055-0.12,0.082c0.027-0.131,0.028-0.268-0.02-0.412
	c-0.145,0.104-0.26,0.191-0.377,0.281c-0.198-0.619-0.441-1.279-0.689-1.906c0.328,0.252,0.707,0.43,1.137,0.514l0.789-0.078
	l-0.449-0.891c-0.201-0.422-0.391-0.83-0.58-1.25l-0.32-0.73l-0.012-0.01l-0.198-0.48l-0.2,0.129l-1.17-1.029
	c-0.07,0.057-0.13,0.107-0.197,0.164c0.079-0.188,0.042-0.371-0.088-0.549c0.174-0.041,0.323-0.074,0.445-0.113
	c0.05-0.02,0.09-0.029,0.119-0.039l0.381-0.371l-0.131-0.389l-0.43-0.102c-0.479-0.064-0.675,0.053-0.94,0.531
	c-0.384-0.246-0.878-0.469-1.351-0.65c0.691-1.119,1.264-2.105,1.422-2.74c-0.53,0.59-0.91,1.01-1.431,1.6
	c-0.167-0.416-0.301-0.777-0.417-1.109c0.228-0.383,0.389-0.762,0.396-1.143c0-0.154-0.208-0.904-0.427-1.367
	c0.297-0.002,0.721,0.186,1.208,0.439l0.167,0.078c0.121,0.182,0.234,0.346,0.333,0.48l0.17,0.199l-0.121-0.438
	c-0.007-0.023-0.013-0.047-0.02-0.07l0,0l-0.252-0.98l0.032,0.041l-0.899-3.9l-0.121-0.09c-0.041,0.102-0.068,0.186-0.102,0.277
	l-0.309-0.307c-0.5-0.33-1.09-0.49-2.08-0.342l-0.096,0.023c-0.062-0.562-0.129-1.121-0.175-1.684l0.069,0.047
	c0.07,0.039,0.561,0,1.109-0.07l0.572-0.125c0.379,0.338,0.598,0.561,0.719,0.514l0.06-0.25l-0.05-0.289
	c-0.006-0.043-0.011-0.086-0.016-0.129h0.006l-0.036-0.234c-0.07-0.541-0.139-1.08-0.204-1.627l-0.021-0.229l-1.14,0.309
	c-0.076,0.041-0.136,0.092-0.184,0.152c-0.308-0.094-0.645-0.203-1.019-0.338c-0.047-1.184-0.051-2.367-0.021-3.549
	c0.472,0.631,0.698,0.854,0.753,0.805c0.074-0.055-0.152-0.576-0.467-1.171c0.003-0.003,0.006-0.003,0.008-0.007
	c0.011-0.021,0.013-0.051,0.016-0.081c0.116-0.071,0.227-0.154,0.331-0.244c0.018,0.014,0.035,0.021,0.053,0.035
	c0.149,0.131-0.21,1.109,0.14,1.369c0.082,0.059,0.16,0.1,0.236,0.137c0.001,0.004,0.002,0.006,0.003,0.01
	c-0.063,0.113-0.123,0.221-0.177,0.316l-0.072-0.232l-0.02,0.02c-0.18,0.223-0.26,0.359-0.221,0.391l0.29-0.135
	c-0.182,0.33-0.295,0.551-0.28,0.564h0.011c0.037-0.014,0.188-0.229,0.511-0.719c0.062,0.303,0.084,0.445,0.1,0.439l0.01-0.012
	c0.01-0.047,0.02-0.244,0.06-0.566c0.188,0.047,0.357,0.039,0.501-0.012l0.409-0.43v-0.26l-0.03,0.01l0.03-0.029l-0.11-3.061
	l-0.22,0.08c-0.215,0.274-0.05,1.038-0.23,1.46l-0.38-0.222c0.049,0.15,0.1,0.303,0.15,0.456c-0.108,0.049-0.243,0.069-0.44,0.026
	c0.137-0.216,0.201-0.454,0.12-0.703c-0.293,0.188-0.534,0.352-0.746,0.503c-0.091-0.031-0.189-0.06-0.287-0.089
	c0.001-0.012,0.001-0.023,0.001-0.036c0.005-0.014,0.008-0.024,0.013-0.038l-0.011,0.004c0.01-0.199,0.01-0.399,0.021-0.599
	c0.045-0.041,0.088-0.081,0.133-0.125c0.335-0.057,0.558-0.083,0.646-0.1c0.01,0,0.021,0,0.03,0c0.02-0.012,0.029-0.012,0.01-0.021
	c-0.039-0.021-0.204-0.059-0.448-0.129c0.003-0.003,0.006-0.006,0.009-0.009l0.159-0.29l0.13-0.08l-0.029-0.09l0.699-1.271
	c-0.247,0.084-0.432,0.14-0.574,0.188c-0.08-0.133-0.296-0.251-0.573-0.331c0-0.002,0-0.004,0.001-0.006
	c0.41-0.468,0.58-1.111,0.171-1.428c0.007-0.058,0.015-0.114,0.022-0.17c0.032,0.027,0.049,0.061,0.084,0.087
	c0.049,0.04,0.14-0.528,0.33-0.42l1.35,0.771l0.18-2.841l-0.72-0.15c-0.259-0.132-0.492-0.314-0.728-0.557
	c0.275-1.455,0.607-2.898,0.998-4.329l0.038-0.008c0.129,0.209,0.263,0.42,0.382,0.625l0.539,1.159l0.311-1.979
	c0.006-0.026,0.013-0.053,0.019-0.08h0.001l0.012-0.055c0.01-0.048,0.023-0.095,0.033-0.143l0.006-0.002l0.383-1.672
	c0.133-0.542,0.277-1.082,0.427-1.62c0.146-0.525,0.287-1.053,0.448-1.573l0.002-0.006l0.005-0.016
	c0.258-0.831,0.535-1.658,0.833-2.481l0.012-0.032l0,0v-0.001l0.002-0.006l0.498-1.274l-0.002-0.002
	c0.154-0.393,0.298-0.789,0.461-1.179l0.012-0.028l0.006-0.013l0.963-2.02l-0.083-0.113l0.094-0.057l0.021-0.04l0.21-0.762
	c0.018-0.031,0.034-0.062,0.053-0.093l0,0l0.057,0.177l0.028-0.053l0.002,0.002l0.04-0.079c0.09-0.201,0.19-0.401,0.29-0.602
	l0.16-0.29l-0.009,0.001l0.075-0.144l0.004,0.002l0.025-0.049h0.004l0.228-0.437c3.175-5.021,7.205-9.618,12.093-13.546l2.55-1.84
	l-2.431,0.45c-0.214,0.023-0.43,0.036-0.646,0.054c0.155-0.142,0.299-0.292,0.456-0.433l0.15-0.12l-0.44-0.021
	c-0.6,0.115-1.312,0.359-2.056,0.683c-0.004,0-0.009,0-0.013,0c-0.322-0.517-0.524-0.665-0.386,0.005l-0.596-0.007l-0.942,0.837
	c-0.067-0.065-0.189-0.141-0.397-0.227l-0.558-0.175l-0.073-0.156l-0.039-0.021l-0.09,0.09l-0.009,0.021l-0.062-0.021l-0.32,0.33
	l0.207,0.101l-0.234,0.548l-0.263-0.327l-0.229,0.238c-0.32,0.351-0.622,0.716-0.933,1.073l-0.038,0.016
	c-0.068,0.076-0.128,0.156-0.195,0.232l-0.024,0.018l-0.26,0.311c-0.16,0.181-0.32,0.371-0.47,0.561l-0.025,0.03l-0.135,0.161
	l0.011-0.002c-0.102,0.125-0.212,0.246-0.312,0.372l-0.359,0.45l0.061,0.56c0.172-0.067,0.381-0.133,0.604-0.197
	c-0.093,0.101-0.179,0.205-0.271,0.306c-0.108-0.035-0.217-0.068-0.334-0.108c0.038,0.118,0.079,0.236,0.118,0.354
	c-0.742,0.829-1.456,1.676-2.144,2.539c-0.105-0.037-0.212-0.073-0.336-0.113l-0.129-0.04l-0.221,0.319
	c-0.069,0.106-0.14,0.215-0.209,0.322l-0.001-0.001l-0.579,0.88c-0.511,0.811-1,1.631-1.471,2.449l-0.109,0.19l0.09,0.06
	c-13.72,20.66-13.233,48.652,3.129,69.009c8.291,10.318,19.381,17.09,31.32,20.09l0.36,0.08l0.92-1.307l-0.021-0.01l-0.01,0.01
	l-0.02-0.01c-0.061-0.039-0.11-0.08-0.17-0.129c-0.03-0.031-0.051-0.049-0.061-0.07l-0.02-0.051v-0.01v-0.012l0.02-0.068
	l0.021-0.051v-0.01l0.01-0.012l0.011-0.01v-0.01l0.049-0.051l0.041-0.051l0.02-0.02l0.01-0.012l0.02-0.021l0.021-0.02l0.06-0.051
	l0.051-0.041l0.05-0.039l0.06-0.051l0.391-0.35L52.007,121.136z M16.979,90.597l-0.01-0.029L16.979,90.597z M16.524,91.103
	c-0.03-0.002-0.062,0-0.094,0.002c0.022-0.029,0.042-0.059,0.062-0.088c0.045-0.006,0.089-0.014,0.133-0.023L16.524,91.103z
	 M28.45,107.267l-0.011,0.072l-0.136-0.023L28.45,107.267z M22.821,97.81c-0.288,0.346-0.575,0.711-0.847,1.082
	c-0.027-0.127-0.066-0.264-0.108-0.404c0.054-0.105,0.108-0.219,0.164-0.318c0.023-0.006,0.044-0.008,0.068-0.016
	c0.04-0.008,0.08-0.02,0.12-0.029C22.405,98.064,22.618,97.948,22.821,97.81z M10.111,70.382l-0.85-0.049
	c-0.019-0.283-0.037-0.564-0.05-0.848C9.501,69.777,9.787,70.06,10.111,70.382z M9.468,62.086c0.079-0.024,0.132-0.052,0.192-0.077
	c0.007,0.022,0.01,0.042,0.018,0.066l0.2,0.57l-0.101,0.17l-0.35,0.244c-0.044-0.014-0.101-0.034-0.149-0.05
	c0.021-0.297,0.051-0.593,0.076-0.891C9.394,62.108,9.435,62.099,9.468,62.086z M9.29,53.736H9.278H9.29z M24.963,23.742
	c-0.023,0.015-0.047,0.029-0.07,0.043l-0.035-0.089l0.07-0.05c0.066-0.053,0.101-0.102,0.117-0.148
	c0.067,0.006,0.13,0.01,0.184,0.01L24.963,23.742z M37.087,115.445l-0.43,1.521c-0.199-0.021-0.35-0.029-0.449-0.039h-0.03h-0.03
	l-0.02-0.01h-0.051h-0.01h-0.01l-0.04-0.02h-0.021l-0.029-0.031v-0.039v-0.02v-0.021l0.039-0.131l0.011-0.039l0.03-0.109l0.029-0.17
	l0.01-0.068l0.011-0.15v-0.09v-0.201v-0.078l-0.04-0.352c-0.1-0.01-0.18-0.01-0.26-0.02h-0.01l-0.211-0.021l-0.05-0.01l-0.05-0.012
	l-0.07-0.01l-0.029-0.01l-0.021-0.012l-0.04-0.01c-0.061-0.02-0.119-0.041-0.189-0.068l0.24-0.08l0.02-0.012h0.01l0.051-0.01
	l0.5,0.068l0.809,0.131l0.32,0.061l-0.01,0.021l-0.01,0.01h0.04L37.087,115.445z M45.829,121.042l-0.229-0.09l0.43-0.631l0.11-0.16
	c0.08,0.08,0.15,0.15,0.22,0.211l0.021,0.021l0.01,0.01l0.01,0.01l0.07,0.07l0.07,0.068l0.029,0.029l0.02,0.012l0.051,0.051
	l0.04,0.039l0.01,0.02l0.069,0.062l0.031,0.051l0.039,0.029l0.021,0.02l0.05,0.061l0.02,0.041l0.021,0.02l0.06,0.061l0.03,0.051
	l0.03,0.039l0.04,0.061l0.05,0.061l0.02,0.051l0.011,0.012c0.04,0.059,0.079,0.129,0.13,0.199l0.029,0.051l0.051,0.08
	L45.829,121.042z M31.579,18.485l0.621-0.218c0.579-0.11,1.139-0.2,1.489-0.46c0.479-0.37,1.5-1.244,2.496-1.779
	c0.142,0.209,0.275,0.401,0.394,0.558l0.031,0.04l-1.141,0.26l-0.18,0.091l0.049,0.26l0.16,0.26l0.99-0.71l0.381-0.22l-0.072,0.018
	l0.281-0.177l0.101-0.061l-0.05-0.091c-0.125-0.184-0.278-0.34-0.443-0.461c0.281-0.113,0.555-0.197,0.803-0.208
	c0.4-0.011,1,0.29,1.461,0.409c0.199,0.061,0.379,0.08,0.5,0.03c0.02,0,0.029-0.01,0.049-0.021c0.121-0.09,0.17-0.27,0.09-0.619
	c-0.1-0.461-0.369-0.761-0.459-1.119l0.01-0.142l-1.41,0.63c-0.519,0.269-1.03,0.562-1.545,0.846
	c-0.087-0.004-0.175-0.007-0.266,0.024c0.021,0.032,0.039,0.058,0.06,0.089c-1.122,0.627-2.236,1.279-3.329,1.991L31.579,18.485z
	 M35.648,19.655l0.81-0.469l-0.509-0.261L35.648,19.655z M53.218,123.687l-0.02-0.051l-0.031-0.102l-0.02-0.051
	c-0.05-0.119-0.1-0.25-0.15-0.369l-0.01-0.051l-0.05-0.129l-0.17-0.441l-0.05-0.129l-0.01-0.021l-0.08,0.051
	c-0.121,0.049-0.23,0.09-0.351,0.109h-0.01l-0.34,0.012l-0.261-0.08l0.16,1.51l0.131,0.029l1.41,0.27l-0.061-0.348
	C53.278,123.825,53.249,123.755,53.218,123.687z M53.639,11.755c0.029,0.23-0.11,0.46-0.26,0.682l-0.121,0.26l1.271-0.289l0.66-0.09
	l-0.021-0.149c-0.16-0.99-0.529-1.881-1.76-2.761l-0.029-0.01l-1.9,0.438l1.43,0.939C53.309,11.095,53.587,11.425,53.639,11.755z
	 M104.728,28.995l0.451,0.511l-0.07-0.29L104.728,28.995z M43.7,118.226c0.059,0.119,0.119,0.238,0.189,0.381l0.029,0.068
	l0.101,0.199c0.04,0.09,0.09,0.189,0.13,0.291l0.01,0.02l0.15-0.471l0.02-0.061l0.121-0.271l-0.171-0.061l-0.69-0.291l0.021,0.021
	l0.021,0.051l0.01,0.01v0.021L43.7,118.226z M43.019,15.865l1.16-0.52c1.69-0.659,3.399-1.239,5.12-1.729l3.15-0.729l-0.761-0.461
	c-0.7-0.27-1.28-0.318-1.67-0.948l-0.36-1.222l-0.75,0.17l-0.22,0.16l-0.101-0.08l-0.159,0.029l-4.03,1.37l0.24,2.54
	c-0.71-0.661-0.53-0.811-0.52-2.021c-2.141,1.181-1.361,1.45-1.08,2.319L43.019,15.865z M105.087,104.325l-0.029-0.039l-0.619,0.211
	l-0.371-0.65l-0.188,0.182l-0.51,0.471l1.188,0.289l0.029,0.002l-0.438,0.473l-0.791-0.756l-1.051,0.9l0.65,0.58
	c0.111,0.084,0.219,0.154,0.32,0.215c-0.139,0.137-0.285,0.266-0.426,0.398c-1.154,0.004-1.656,0.295-2.049,1.414
	c-0.246-0.396-0.443-0.695-0.588-0.908h-0.01l-0.15,0.107l-0.08,0.062l0.051,0.129c0.16,0.354,0.377,0.773,0.607,1.166
	c-0.006,0.023-0.012,0.047-0.02,0.072c-0.477,0.41-0.949,0.822-1.443,1.219c0.475-0.773,0.035-0.855-1.115-1.008l-0.209-0.039
	l-0.08,0.061c-0.77,0.529-1.561,1.041-2.352,1.52l-0.01,0.01l0.771,0.25l0.039-0.051c0.232-0.205,0.445-0.34,0.643-0.432
	l0.008,0.002l0.049-0.029c0.039-0.016,0.076-0.021,0.113-0.035c0.061-0.02,0.121-0.041,0.18-0.053
	c0.033-0.006,0.064-0.006,0.1-0.008c0.062-0.008,0.125-0.014,0.186-0.01c0.025,0,0.053,0.006,0.078,0.008
	c0.068,0.008,0.135,0.018,0.199,0.035c0.016,0.004,0.027,0.008,0.041,0.012c0.078,0.023,0.156,0.051,0.232,0.086l0.01,0.004
	c0.139,0.062,0.275,0.141,0.412,0.225c-1.34,1.045-2.707,2.027-4.107,2.932c-0.438-0.445-0.77-0.742-1.016-0.92l1.152-0.145
	l0.09-0.102c0.16-0.189,0.33-0.359,0.512-0.539l0.521-0.49l-1.281,0.25l-1.219,0.34l-0.102,0.061
	c-0.074,0.041-0.145,0.076-0.219,0.115l-0.002-0.006l-0.23,0.121l0.008,0.002c-0.055,0.029-0.111,0.061-0.168,0.088l-0.139,0.08
	l0.068,0.17c0.098,0.043,0.266,0.082,0.463,0.1c0.096,0.271,0.381,0.68,0.744,0.961l-0.236,0.029
	c-2.078,0.215-2.018,0.117-2.684,0.832c-0.334-0.336-0.52-0.645-0.596-0.932l0.02-0.129l-2.359,1.068l0.109,0.182
	c0.133,0.24,0.289,0.539,0.441,0.824c-1.033,0.078-1.961,0.77,0.574,0.996c0.014,0.014,0.027,0.033,0.035,0.037
	c0.057,0.027,0.094,0.029,0.141,0.043c-3.055,1.514-6.203,2.736-9.412,3.646l-0.088,0.02l-0.111-0.328
	c-0.49-0.76-1.41-0.949-2.58-1.18c0.23,0.279,0.75,0.709,1.17,1.15l0.414,0.545c-0.521,0.115-1.193-0.082-2.184-1.645
	c-4.611,0.051-3.57,0.449-2.531,1.658l0.338,0.613l-1.338,0.217l-0.32,0.123l-0.109-0.354c-0.58,0.16-1.08,0.361-1.459,0.551
	l-0.291,0.189l0.592-0.041c0.352-0.027,0.699-0.061,1.051-0.09l0.289-0.029l-0.029-0.098l1.221-0.074l-1.891,0.396
	c-5.789,0.76-11.66,0.6-17.37-0.461l-0.431-0.09l-0.01,0.01l-0.09,0.15l-0.01-0.012l-0.141,0.189l-0.119,0.189l-0.04,0.051
	l-0.021,0.029l-0.05,0.039l-0.16,0.182c-0.1,0.09-0.19,0.18-0.29,0.25l-0.02,0.01l-0.221,0.131h0.011l-0.021,0.01l0.29,0.051
	c0.07,0.029,0.13,0.051,0.2,0.08l0.04,0.02l0.021,0.01l0.029,0.021l0.03,0.012l0.01,0.01h0.011l0.02,0.01l0.01,0.012l0.01,0.01
	l0.131,0.102l0.069,0.039l0.021,0.021v0.01l0.01,0.012l0.02,0.01l0.021,0.029l0.021,0.01l0.049,0.062l0.07,0.09l0.03,0.039
	l0.021,0.029l0.029,0.051l0.02,0.029l0.031,0.041l0.02,0.039v0.012l0.02,0.02l0.021,0.061l0.03,0.051l0.029,0.08v0.01l0.01,0.031
	l0.01,0.01l0.011,0.051l0.01,0.02v0.01l0.011,0.029l0.01,0.041l0.029,0.078v0.041l0.021,0.08l0.01,0.051l0.021,0.068v0.102
	l0.02,0.131v0.01v0.01v0.07l0.01,0.039l-0.01,0.061v0.08l0.21,0.041c0.84,0.15,1.67,0.27,2.511,0.379l1.68,0.182l-0.041-0.221
	c-0.02-0.121-0.039-0.238-0.06-0.381l0.011-0.061l0.049-0.471v-0.029l0.011-0.102l0.06,0.041l0.01,0.01l0.11,0.07l0.341,0.221v0.01
	l-0.011,0.59c0,0.121-0.01,0.23-0.021,0.342v0.029l0.381,0.039c4.21,0.359,8.46,0.27,12.669-0.295l4.84-1l0.08-0.051
	c0.609-0.568,0.77-1.42,0.109-2.83c-0.119,0.07-0.439,0.23-0.84,0.41c-0.391,0.17-0.84,0.35-1.24,0.479
	c-0.779,0.25-1.289,0.271-0.439-0.52l0.25-0.184c0.801-0.111,1.598-0.242,2.396-0.391l0.623,0.389
	c0.74,0.82,1.352,1.939,2.551,1.531c0.961-0.32,2.051-0.58,3.119-0.891c0.41-0.109,0.801-0.238,1.191-0.369
	c0.65-0.221,1.27-0.471,1.809-0.791c0.951-0.521,1.23-2.51,2.342-1.93c0.408,0.221,0.709,0.369,0.988,0.449l0.682,0.021l0.549-0.262
	l0.521-0.289l-0.139-1.061c0.125-0.725,0.586-1.369,1.164-1.979l0.033-0.002l0.521-0.271l0.541-0.27l-0.027-0.479
	c0.119-0.107,0.238-0.215,0.357-0.32c0.41-0.361,0.75-0.521,1.068-0.561c0.932-0.121,1.58,0.891,2.629,1l0.291-0.062l2.98-2.16
	l2.33-2.068l0.08-0.27c0.031-0.582-0.039-1.162-0.189-1.521l-0.23-0.529c0.01-0.008,0.018-0.018,0.025-0.023l0.705,0.812
	c0.189,0.119,0.391,0.199,0.609,0.199c0.211-0.008,0.439-0.09,0.67-0.279c0.391-0.314-0.068-0.664-0.445-1.131l0.736-0.637
	l-0.275-0.648c0.096-0.066,0.189-0.141,0.285-0.203c-0.133,0.02-0.238,0.041-0.346,0.062l-0.055-0.131l-0.465-0.439
	c0.006-0.01,0.01-0.021,0.012-0.031l1.031,0.051l-0.027-0.182c-0.021-0.119-0.041-0.24-0.08-0.34l-0.021-0.07l-0.602,0.16
	c-0.066,0.018-0.113,0.029-0.176,0.045c0.039-0.105,0.068-0.201,0.076-0.285l-0.086-0.174l0.697,0.025l-0.012-0.02
	c-0.021-0.051-0.039-0.109-0.068-0.16l-0.041-0.1l-0.049-0.07C105.147,104.427,105.118,104.376,105.087,104.325z M56.249,122.587
	c-0.039,0.119-0.09,0.25-0.16,0.369l-0.06,0.08l-0.19,0.279l-0.01,0.01l-0.33,0.32c-0.129,0.109-0.27,0.199-0.439,0.279
	c-0.08,0.039-0.17,0.08-0.26,0.123l0.08-0.391h-0.01l0.02-0.121l0.08-0.369v0.01l0.02-0.1l0.021-0.061l0.03-0.141l0.01-0.041
	l0.039-0.16c0.031-0.119,0.07-0.238,0.101-0.35l0.021-0.029l0.02-0.061l-0.01,0.01l0.029-0.07c0.03-0.1,0.07-0.189,0.101-0.27
	l0.01-0.021l0.021-0.051l0.26,0.143l-0.01,0.01l0.26,0.148l0.18,0.08l0.12,0.08l0.12,0.068L56.249,122.587z M89.458,116.15
	c0.07-0.107,0.15-0.229,0.221-0.344l0.029-0.051l-0.096-0.043c0.078-0.029,0.182-0.031,0.346,0.043
	c0.049,0.021,0.088,0.043,0.133,0.064C89.88,115.931,89.671,116.044,89.458,116.15z M90.817,115.423c0-0.006,0-0.01,0-0.018
	c-0.211-0.223-0.324-0.326-0.357-0.412c0.164-0.053,0.35-0.039,0.568,0.074c0.082,0.043,0.152,0.078,0.229,0.115
	C91.11,115.265,90.964,115.345,90.817,115.423z M93.708,113.615l0.025-0.068c0.051,0.029,0.1,0.061,0.15,0.084
	c-0.057,0.035-0.113,0.068-0.17,0.104L93.708,113.615z M9.278,53.736H9.29 M10.007,71.857c0.461,0.789,0.861,1.119,1.201,1.02
	c0.27-0.07,0.49-0.42,0.68-1.02C11.079,71.575,10.929,71.636,10.007,71.857z M70.478,7.825l-0.24,0.28l0.98,0.061l0.109-2.24
	l-0.17,0.052c-0.25-0.052-0.49-0.182-0.699-0.271l-0.41-0.051l-0.24,0.141l-0.289,0.642l-0.189,0.938l0.148,0.08
	C69.747,7.565,70.077,7.685,70.478,7.825z M26.12,21.846l0.048-0.11l0.241-1.01l-0.73,0.64l0.13,0.07L26.12,21.846z M98.237,108.534
	l0.131-0.17l-0.451,0.33L98.237,108.534z M79.708,116.937c0.02,0,0.029,0,0.029-0.012l-0.039-0.09l-0.18,0.039L79.708,116.937z
	 M80.567,7.965l0.041,0.552l0.42,1.39l1.9,0.49c1.699,0.52,3.369,1.13,5.02,1.818l1.029,0.5l0.014-0.03l0.4,0.179l0.006,0.042
	l1.16,0.561l0.021-0.062l0.879,0.452l0.027-0.15c0.049-0.203,0.082-0.407,0.119-0.612l0.002,0.003l0.029-0.171
	c0.02-0.13,0.041-0.26,0.061-0.38l0.029-0.17h-0.002l0.031-0.19c0.051-0.314,0.098-0.58,0.141-0.771
	c0.008-0.031,0.016-0.062,0.021-0.09c0.008-0.032,0.018-0.061,0.023-0.086c0.01-0.025,0.018-0.047,0.025-0.065
	s0.016-0.034,0.021-0.043c0.006-0.006,0.01-0.014,0.016-0.017c0.012-0.008,0.021-0.007,0.033,0.006
	c0.004,0.005,0.006,0.014,0.01,0.02c0.008,0.016,0.016,0.04,0.023,0.07c0.006,0.016,0.01,0.032,0.014,0.053
	c0.01,0.047,0.021,0.101,0.029,0.172c0,0.005,0.002,0.009,0.004,0.015c0,0.001,0.004,0.012,0.004,0.014
	c0.002,0.011,0.008,0.028,0.018,0.059c0.023,0.067,0.061,0.176,0.117,0.349l0.031,0.091l0.004,0.005
	c0.002,0.005,0.004,0.009,0.006,0.015l0.051,0.159l0.08-0.04c0,0,0-0.001,0.002-0.001c0.232,0.22,0.396,0.301,0.486,0.271
	c0.029,0,0.051-0.02,0.068-0.04c0.092-0.135-0.006-0.5-0.219-0.861c-0.008-0.037-0.006-0.067-0.02-0.109l-0.33-0.54l-0.949-0.46
	l-0.021,0.269c-0.062,0.008-0.125,0-0.189,0.022c0.062,0.089,0.115,0.165,0.172,0.246v0.013c-0.131,0.545-0.367,1.034-0.656,1.238
	l-0.355-0.087c0.068,0.06,0.129,0.112,0.193,0.168c-0.301,0.091-0.643-0.133-0.973-0.9c-0.41-0.93,0.51-0.53,0.939-0.97
	c0.148-0.16,0.229-0.25,0.238-0.301l-0.01-0.011l-0.25-0.12l-0.766-0.229l0.105-0.12l-0.07-0.029
	c-0.137-0.061-0.279-0.114-0.418-0.172l-0.221-0.109l-0.344-0.125c-0.326-0.135-0.648-0.274-0.979-0.404l-0.109-0.04l0.033,0.062
	l-0.502-0.184l0.229,0.271c0.359,0.51,0.639,1.069,0.799,1.648l0.062,0.341l-0.121-0.311l-0.311-0.37l-0.689-1.17l-0.279-0.24
	l0.029-0.27l-0.709-0.25l-0.682,1.42c-1.25-0.351-0.369,0.09-0.318-1.65c-0.393-0.108-0.551-0.108-0.893-0.329l0.25-0.04
	l-0.777-0.279l-3.562-0.921l0.131,1.149L80.567,7.965z M89.118,12.415c0.09-0.107,0.158-0.066,0.209,0.055l-0.27,0.072
	L89.118,12.415z M61.208,121.097l-0.01,0.229l4.609,0.391l1.66-0.102l0.02-0.029c0.451-0.189,1.1-0.391,0.75-1.439
	c-0.199,0.271-0.379,0.48-0.52,0.811c-0.631-0.439-1.109-0.471-0.891-1.27c-1.119-0.281-0.771-0.131-0.672-1.041l-0.139-0.141
	l-0.17,0.01l-1.549-0.129l-1.131,0.289c-0.41,0.119-0.75,0.199-0.93,0.199c-0.66,0.021-0.93-0.221-0.949-0.619l0.039-0.119
	l-3.41-0.291l-0.119-0.029l0.06,0.16l0.261,0.619l0.049,0.021l0.121,0.08l0.119,0.068l-0.06,0.221v0.021l0.19,0.311
	c0.143,0.168,0.341,0.291,0.549,0.402c-0.386,0.066-1.123,0.354-1.68,0.717l-0.55,0.471l0.04,0.01c0.18,0.029,0.35,0.061,0.52,0.08
	l0.031,0.01l1.01-0.549c0.507-0.303,0.768-0.5,0.855-0.617c0.466,0.242,0.916,0.494,0.904,1.139l-0.131,0.25l0.611,0.061
	l-0.011-0.092c-0.021-0.119-0.04-0.238-0.06-0.379l0.01-0.062l0.05-0.469v-0.031l0.011-0.1l0.059,0.039l0.011,0.012l0.11,0.068
	l0.34,0.221v0.01L61.208,121.097z M51.718,118.517l-0.061,0.148l-0.08,0.189h-0.01h-0.01l-0.08-0.029l-1.3-0.51l0.021-0.031h-0.011
	l0.011-0.02l-0.4-0.039c-0.16-0.01-0.324-0.018-0.492-0.023c0.001-0.031-0.003-0.066,0.002-0.098l0.029-0.111l-0.869-0.34
	l-0.4,0.141l-0.32,0.111l0.521-0.332l-0.34-0.129l-0.229-0.09l0.43-0.631l0.109-0.16c0.08,0.08,0.15,0.148,0.221,0.211l0.02,0.02
	l0.01,0.012l0.01,0.01l0.07,0.07l0.07,0.068l0.029,0.029l0.021,0.01l0.05,0.051l0.04,0.041l0.011,0.02l0.069,0.061l0.021,0.029
	l0.029-0.02c0.381-0.221,0.75-0.408,1.11-0.58l0.89-0.318l0.021-0.021l-0.771-0.209l-1.439-0.5l-0.33,0.182
	c-0.264,0.148-0.464,0.271-0.613,0.389c-0.07-0.061-0.14-0.127-0.217-0.17l-0.18-0.07l-0.021,0.08l-0.03,0.109l-0.02,0.061
	l-0.03,0.143l-0.01,0.027l-0.03,0.092l0.206,0.281c-0.026,0.277,0.071,0.646,0.272,1.25l-0.073,0.023l-0.115-0.586l-0.585,0.83
	l-0.234,0.08l0.49,0.17c0.67,0.23,1.34,0.449,2.01,0.66l0.51,0.148l-0.01-0.045l0.51,0.125l0.14,0.039l2.351-0.607L51.718,118.517z
	 M93.646,15.042l0.123,0.074l0.035-0.032l0.004,0.002l0.029-0.029l0.08-0.079l0,0l0.029-0.03c0.156-0.154,0.301-0.321,0.445-0.514
	l0.004,0.004l0.01-0.02c0,0,0,0,0-0.001c0.182,0.237,0.305,0.406,0.41,0.56l0,0l0,0c0.047,0.065,0.094,0.13,0.131,0.19
	c0.01,0.016,0.021,0.031,0.029,0.047c0.062,0.1,0.115,0.197,0.168,0.309c0.004,0.007,0.006,0.013,0.01,0.021
	c0.055,0.115,0.109,0.244,0.174,0.404l0.061,0.149l0.631,0.381l0.09-0.12c0.006-0.006,0.012-0.011,0.018-0.017
	c0.215-0.24,0.428-0.45,0.648-0.646c0.021-0.019,0.041-0.038,0.062-0.056c0.213-0.186,0.439-0.356,0.688-0.525
	c0.139-0.093,0.277-0.185,0.434-0.277l0.15-0.091l0,0l0.014-0.009l0.016-0.009l0,0l0,0l-0.025-0.011l-0.254-0.119
	c-0.59,0.196-0.895,0.281-1.014,0.285c-0.01,0-0.025,0.001-0.031,0c-0.016-0.002-0.016-0.012-0.018-0.02
	c-0.002-0.009-0.008-0.016,0.002-0.029c0.004-0.007,0.014-0.016,0.021-0.022c0.092-0.103,0.387-0.306,0.764-0.576l0.064-0.046
	l0.018-0.012l0.016-0.011l0,0l0.043-0.033l0.266-0.195l-0.004-0.001l0.014-0.009l0,0l0.041-0.03l-0.031-0.011l-0.299-0.189h-0.051
	l-0.01-0.001L96.79,13.13l-0.859-0.5l0.379,0.689c0.031,0.052,0.059,0.089,0.086,0.134l-0.152,0.163l-0.004,0.001
	c-0.037,0.022-0.086,0.034-0.127,0.055c-0.252-0.048-0.512-0.096-0.77-0.141c-0.256-0.135-0.672-0.295-1.184-0.465l-0.229-0.07
	l-0.031,0.062c-0.08,0.199-0.158,0.385-0.238,0.567c-0.027,0.064-0.059,0.129-0.086,0.191l-0.006,0.011l0,0
	c-0.09,0.199-0.182,0.392-0.27,0.561l-0.074,0.137l-0.115,0.193L93.646,15.042z M98.698,15.076c0.08,0.08,0.109,0.131,0.1,0.131
	c-0.01,0.01-0.029-0.011-0.061-0.04l-0.109-0.141l-0.09,0.141l-0.041,0.069l0,0c-0.17,0.299-0.365,0.633-0.568,0.979v-0.001
	l-0.078,0.134c-0.033,0.057-0.068,0.114-0.104,0.171L97.3,17.245l0.119,0.07c0.666,0.447,1.311,0.914,1.953,1.384
	c0.016,0.012,0.027,0.021,0.043,0.032l-0.445-0.256l1.539,1.148l0.039-0.02l0.291,0.229l-0.002-0.021l0.002,0.001l-0.01-0.081
	c0-0.12,0-0.259,0-0.418c0,0,0,0,0-0.001s0,0,0-0.001c-0.002-0.007-0.002-0.012-0.004-0.019c-0.012-0.066-0.027-0.138-0.035-0.2
	l-0.012-0.051l-0.004,0.001c-0.006-0.038-0.014-0.074-0.02-0.111h0.006l-0.012-0.051c-0.02-0.08-0.033-0.159-0.049-0.239l0,0
	l-0.018-0.079c-0.006-0.023-0.01-0.048-0.016-0.073l-0.119-0.648l0,0l-0.029-0.159l-0.102,0.04
	c-0.461,0.117-0.932,0.018-1.326-0.439c-0.008-0.009-0.016-0.015-0.023-0.022c-0.006-0.006-0.002-0.012-0.006-0.019
	c-0.031-0.042-0.049-0.083-0.043-0.123c0.002-0.018,0.018-0.034,0.023-0.053c0.014-0.027,0.025-0.057,0.053-0.084
	c0.018-0.017,0.039-0.033,0.059-0.05c0.039-0.032,0.078-0.062,0.127-0.094c0.014-0.009,0.027-0.018,0.041-0.025
	c0.041-0.024,0.088-0.05,0.133-0.075l0.016-0.008h-0.004c0.359-0.2,0.787-0.414,0.725-0.708c0.129-0.09,0.25-0.181,0.359-0.25
	l0.131-0.08l-0.291-0.21l-0.551-0.358l-0.629-0.463l-0.271-0.159l-0.016,0.024l-0.006-0.003l-0.139,0.229l-0.15,0.262L98.698,15.076
	z M125.038,62.346l-0.029-1.199v-0.001l-0.012-0.181l0,0l-0.059-0.945c-0.023-0.445-0.037-0.89-0.07-1.334l-0.061-0.69l-0.18-0.21
	l-0.021-0.04l-0.004,0.003c-0.051-0.071-0.1-0.152-0.148-0.234c-0.039-0.064-0.08-0.132-0.119-0.205
	c-0.045-0.082-0.09-0.171-0.135-0.263c-0.031-0.062-0.062-0.124-0.094-0.191c-0.053-0.117-0.105-0.247-0.16-0.378
	c-0.021-0.059-0.047-0.112-0.07-0.173c-0.076-0.201-0.152-0.414-0.229-0.646c-0.086-0.252-0.139-0.483-0.172-0.702
	c-0.025-0.182-0.045-0.354-0.043-0.517c0-0.059,0.006-0.115,0.008-0.172c0.014-0.17,0.033-0.334,0.072-0.487
	c0.012-0.054,0.027-0.105,0.041-0.157l0.043-0.139c0.01-0.027,0.021-0.056,0.031-0.084l0.277,0.067l0.781,0.171l-0.211-1.891
	l-0.439,0.632c-0.078-0.429-0.166-0.855-0.258-1.283l0.01,0.002l-0.102-0.44l-0.01-0.04l0,0c-0.004-0.02-0.01-0.041-0.014-0.061
	h0.002l-0.129-0.601l-0.146-0.59c-0.008-0.032-0.016-0.066-0.021-0.1l-0.021-0.07l-0.479-0.13c-0.367-0.111-0.643-0.248-0.83-0.401
	l0,0c-0.094-0.076-0.164-0.156-0.217-0.239c-0.002-0.005-0.004-0.011-0.008-0.017c-0.045-0.074-0.07-0.152-0.084-0.232
	c-0.002-0.012-0.006-0.024-0.008-0.037c-0.045-0.368,0.211-0.788,0.705-1.223l0.25-0.188l-0.16-0.552l-0.42-1.34l-0.201,0.113
	v-0.003l-0.119,0.07c-0.85,0.51-1.92,1.278-2.33,1.079c-0.521-0.259-0.586-0.688-0.385-1.193l0.004,0.002l0.094-0.212
	c0.023-0.05,0.053-0.1,0.082-0.149c0.062-0.107,0.133-0.217,0.213-0.327c0.035-0.052,0.074-0.104,0.115-0.156
	c0.09-0.116,0.184-0.233,0.285-0.351c0.037-0.044,0.076-0.088,0.115-0.133c0.117-0.13,0.238-0.261,0.365-0.391
	c0.025-0.027,0.055-0.054,0.08-0.082c0.148-0.148,0.299-0.297,0.451-0.438l0.33-0.29v-0.001l0.01-0.01l-0.279-0.75
	c-0.504-1.262-1.068-2.506-1.664-3.74l0.014-0.009l-0.02-0.05c-0.113-0.238-0.246-0.469-0.363-0.705
	c-0.125-0.25-0.242-0.504-0.371-0.753l0.006-0.003l-0.256-0.479l-0.004-0.012c-0.08-0.148-0.164-0.298-0.244-0.446l0.004-0.002
	l-0.111-0.2l-0.129-0.238l-0.002,0.001c-0.072-0.134-0.145-0.269-0.219-0.403l-0.139-0.239l-0.002,0.003
	c-0.074-0.131-0.146-0.263-0.219-0.393l-0.211-0.359l-0.008,0.013c-0.014-0.022-0.025-0.044-0.039-0.066l0.008-0.005l-0.131-0.221
	l-0.182-0.311l-0.014,0.02c-0.314-0.521-0.623-1.043-0.955-1.557l-0.021-0.035l-0.146-0.2l-0.131-0.183l-0.002-0.034l-0.541-0.811
	c-0.711-1.043-1.475-2.065-2.268-3.073l0.008-0.007l-0.34-0.43l-0.002,0.001l-0.088-0.114c-0.311-0.389-0.629-0.779-0.959-1.159
	l-0.305-0.352l-0.146-0.176v0.007v0.012v0.009c-0.049,0.221-0.09,0.369-0.119,0.369c-0.004,0-0.006-0.005-0.008-0.006
	c-0.037-0.016-0.062-0.184-0.072-0.591v-0.021v-0.001l-0.33-0.391l-0.891-0.971l0,0l-0.07-0.078v0.01
	c0.008,0.035,0.008,0.094,0.012,0.146l-0.002,0.001l0.006,0.105c0.002,0.378-0.055,1-0.127,1.474c0,0.002,0,0.004-0.002,0.005
	c-0.014,0.098-0.029,0.184-0.045,0.266h-0.002v0.006c0,0.004-0.002,0.011-0.002,0.015c0,0.003-0.002,0.005-0.002,0.009
	c-0.006,0.037-0.014,0.059-0.021,0.09c-0.01,0.044-0.02,0.084-0.029,0.118c-0.006,0.017-0.01,0.039-0.016,0.053
	c-0.016,0.043-0.033,0.08-0.049,0.08c-0.01,0.005-0.02-0.009-0.029-0.039c0-0.003-0.002-0.007-0.002-0.011
	c-0.006-0.02-0.012-0.056-0.018-0.087c-0.004-0.032-0.008-0.071-0.014-0.117v-0.007l0,0c-0.01-0.137-0.018-0.33-0.02-0.598
	c0.002-0.177,0.004-0.38,0.01-0.622v-0.221l0,0c0-0.003,0-0.005,0-0.008c0.131-0.45,0.211-0.669,0.271-0.729h0.02l-0.51-0.529
	l-0.041,0.069c-0.08,0.101-0.16,0.17-0.23,0.199c-0.02,0.011-0.027,0.011-0.049,0.011c-0.031,0.004-0.061-0.01-0.09-0.031
	c-0.01-0.007-0.018-0.018-0.027-0.026c-0.023-0.027-0.049-0.062-0.066-0.115c-0.002-0.005-0.006-0.01-0.008-0.016
	c-0.049-0.134-0.082-0.344-0.098-0.646c-0.002-0.004-0.002-0.006-0.002-0.009l-0.01-0.08l-0.029-0.028l0,0l-0.123-0.121
	l-0.219-0.217l-0.039-0.04l-0.037-0.036l-0.492-0.486l-0.291-0.28l-0.004,0.008l-0.295-0.275l-0.109,0.579
	c-0.104,0.449-0.205,0.829-0.297,1.021c-0.004,0.008-0.008,0.015-0.01,0.021c-0.029,0.057-0.059,0.097-0.084,0.108
	c-0.018,0.01-0.035,0.001-0.049-0.018c-0.004-0.003-0.006-0.007-0.008-0.011c-0.029-0.047-0.051-0.156-0.064-0.332l0,0v-0.003
	c-0.01-0.112-0.016-0.245-0.02-0.417v-0.09l-0.004-0.001c-0.002-0.185-0.002-0.395,0.004-0.646c0.051-0.191,0.1-0.361,0.15-0.512
	l0.008-0.028h0.002l0.002-0.012l0.027-0.09l0,0v-0.001l-0.029-0.029l-0.779-0.699l0.008,0.014c-0.105-0.094-0.213-0.189-0.316-0.283
	l-0.699-0.601l-0.002,0.002l-0.199-0.171l-0.1,0.21c-0.25,0.46-0.701,0.91-1.4,1.12c-0.09,0.028-0.18,0.049-0.279,0.068
	c0.053-0.151,0.104-0.292,0.156-0.429l0.023-0.05l0.141-0.351c-0.002-0.001-0.004-0.002-0.004-0.003
	c0.021-0.053,0.043-0.105,0.066-0.156l0.057-0.123c0.084-0.189,0.164-0.361,0.242-0.513l0.045-0.073l0.004-0.001l0.012-0.027
	l0.207-0.343l-0.002-0.001l0.002-0.002l-0.072-0.058l-0.008-0.021l-0.385-0.297l-0.055-0.045l-0.67-0.521v-0.01l-0.092-0.069
	l-0.021,0.028l-0.008-0.005l-0.326,0.339c-0.061,0.058-0.113,0.121-0.176,0.173c-0.025,0.024-0.055,0.043-0.08,0.066
	c-0.17,0.138-0.348,0.261-0.527,0.349l-0.02,0.011l0,0l-0.215,0.087l-0.018,0.003l-0.02,0.012l0.279,0.1
	c0.115,0.058,0.213,0.127,0.303,0.202c0.033,0.027,0.061,0.059,0.092,0.087c0.006,0.008,0.012,0.015,0.02,0.021
	c0.057,0.059,0.113,0.118,0.158,0.183c0.031,0.044,0.055,0.094,0.08,0.141c0.029,0.053,0.059,0.105,0.082,0.163l0.008,0.021
	c0.027,0.069,0.051,0.14,0.068,0.212c0.004,0.014,0.008,0.027,0.012,0.041c0.018,0.072,0.035,0.145,0.047,0.218
	c0.008,0.062,0.014,0.124,0.018,0.187c0.002,0.013,0.002,0.024,0.004,0.038c0.006,0.144-0.004,0.285-0.02,0.423l-0.02,0.175
	l0.002-0.001c0,0.005-0.002,0.01-0.002,0.015c-0.029,0.165-0.066,0.324-0.119,0.455l-0.01,0.021l0,0v0.001l0.27,0.21l1.51,1.319
	v-0.222v-0.129c0.004,0.001,0.008,0.005,0.014,0.006c0.07,0.018,0.129,0.053,0.18,0.099c0.021,0.018,0.041,0.04,0.059,0.062
	l0.029,0.043l0.016,0.003c0.066,0.101,0.109,0.224,0.135,0.357l0.02,0.17l0.119,0.109c0.086,0.077,0.168,0.164,0.252,0.243
	l-0.072,0.007l1.432,1.319l0.002-0.009c0.213,0.211,0.424,0.428,0.635,0.644l0.693,0.776l0,0l0.76,0.858l0.002-0.007l0.408,0.456
	l0.111,0.03l0.639,0.741c0.311,0.359,0.609,0.729,0.908,1.1l0.016,0.019l0.145,0.19l0.004-0.002l0.486,0.622h0.002l0.139,0.175
	l0.092,0.116l0.02,0.027c0.572,0.751,1.115,1.501,1.641,2.271l0.328,0.494l-0.008,0.038l0.139,0.2l0.025-0.001l0.006,0.01h0.004
	l0.066,0.101l0.424-0.104c-0.051,0.029-0.096,0.054-0.145,0.083l-0.24,0.1l0.18,0.25l0.82,1.421h0.004l0.164,0.283l-0.008-0.002
	l1.709,2.927c0.066,0.131,0.131,0.262,0.197,0.393l0.162,0.372l0.023-0.001c0.102,0.207,0.197,0.416,0.297,0.624l-0.041-0.005
	l0.451,0.989l0.066,0.012c0.008,0.015,0.014,0.027,0.021,0.043c0.109,0.238,0.223,0.474,0.328,0.712
	c0.023,0.055,0.045,0.11,0.068,0.165l-0.035,0.061v0.011l0.041-0.057c0.004,0.008,0.006,0.018,0.01,0.025l-0.002,0.001l0.041,0.095
	c0.289,0.666,0.564,1.334,0.826,2.008l-0.006,0.006l0.459,1.352l0.059,0.055c0.873,2.456,1.58,4.952,2.094,7.478l-0.012,0.009
	l0.139,0.677c0.008,0.035,0.014,0.07,0.02,0.105l-0.006,0.007l0.027,0.121c0.045,0.243,0.082,0.485,0.125,0.729l0.166,1.229
	l0.039-0.014c0.023,0.157,0.051,0.315,0.074,0.473c0.4,2.856,0.576,5.733,0.529,8.604l-0.033,0.966
	c-0.088,2.582-0.348,5.154-0.791,7.699l-0.172,0.936c-0.107,0.557-0.227,1.109-0.35,1.664c-0.092,0.408-0.186,0.82-0.285,1.229
	c-0.039,0.16-0.088,0.318-0.129,0.479c-0.438,0.088-0.791-0.277-1.113-0.824l-0.061-0.107l-0.311,1.949
	c-1.074,5.209-2.916,10.271-5.473,15.021l-0.188,0.287l-0.004,0.082c-0.174,0.32-0.363,0.631-0.545,0.947l-0.111-0.049l-0.121,0.18
	l0.137,0.029c-0.084,0.145-0.172,0.287-0.258,0.432l-0.197-0.02l-0.959,1.359c-0.074,0.1-0.154,0.191-0.23,0.289l0,0l-0.041,0.055
	c-0.469,0.609-0.943,1.219-1.43,1.807l-0.061,0.068l0.129,0.732c-0.066,0.092-0.137,0.184-0.205,0.273
	c-0.016-0.09-0.025-0.176-0.062-0.285l0.02-0.58l-0.719,0.85c-0.229,0.268-0.465,0.523-0.699,0.783l-0.141,0.057l-0.682,0.75
	l0.279,0.83c0.016,0.037,0.029,0.076,0.045,0.113c-0.002,0.004-0.004,0.006-0.006,0.008l-0.668,0.73
	c0.119-0.572,0.287-0.936,0.379-1.193l0.012-0.08l-0.092-0.148l-0.061-0.061l-0.158,0.172l-0.002-0.012l-0.074,0.092l-0.006,0.008
	c-0.33,0.33-0.648,0.66-0.99,0.99l-0.879,0.852l0,0l-0.131,0.121l-0.209,0.199l0.84,0.48l-0.02-0.031
	c-0.148-0.275-0.236-0.49-0.26-0.574l-0.002-0.008c-0.01-0.039,0-0.039,0.041,0.012l0.029,0.049l0.611,0.193l-0.182,0.197
	l-0.42-0.377c0.051,0.088,0.119,0.229,0.221,0.438l0.064,0.139l-0.006,0.002l0.039,0.09c0.021,0.041,0.041,0.09,0.062,0.131
	l0.02,0.049l0.051,0.07c0.039,0.051,0.08,0.102,0.109,0.141l0.061,0.08l0.145,0.008c0.027,0.047,0.053,0.096,0.08,0.145
	l-0.055,0.016l0.02,0.01c0.027,0.025,0.059,0.045,0.086,0.068c0.062,0.119,0.121,0.246,0.182,0.373l-0.457,1.359l0.764-0.674
	l0.469,1.096l2.85-3.102c2.68-3.234,4.957-6.717,6.846-10.361l0.104-0.035l0.16-0.262l0.4-0.682l-0.016-0.002l0.139-0.24
	l0.018,0.002l0.18-0.301l-0.018-0.018l0.352-0.617l0.018,0.004v-0.01c0.107-0.193,0.211-0.377,0.311-0.568l0.029-0.051
	c0.002-0.002,0.002-0.006,0.004-0.008l0.016-0.023h-0.004c0.18-0.334,0.34-0.672,0.514-1.008v0.02l0.131-0.238l0.26-0.521
	l0.02-0.059h0.012l0.029-0.062l0,0l0.199-0.398l-0.004-0.004l0.113-0.236l0.549-1.225l0.012,0.023l0.041-0.09l0.148-0.352
	l-0.01-0.016l0.211-0.473v-0.111c-0.074-0.225-0.168-0.379-0.271-0.504c0.072-0.188,0.146-0.346,0.217-0.467
	c0.014-0.021,0.025-0.045,0.037-0.062c0.025-0.039,0.049-0.064,0.072-0.094c0.02-0.02,0.037-0.047,0.057-0.061
	c0.023-0.021,0.047-0.027,0.07-0.035c0.014-0.004,0.027-0.016,0.039-0.018h0.004l0.266,0.102l0.023-0.066l0.047,0.006l0.18-0.459
	l0.061-0.148l-0.082,0.041l1.113-3.072l0.049-0.029l0.041-0.109l0.209-0.67l-0.006,0.004l0.006-0.016
	c0.076-0.246,0.137-0.496,0.209-0.742l0.012,0.004l0.141-0.48h-0.014l0.049-0.174l0.023-0.006l0.182-0.67l-0.012-0.014
	c0.025-0.098,0.057-0.191,0.082-0.287h0.01l0.09-0.33c0.004-0.012,0.006-0.025,0.01-0.039l0,0l0.16-0.641l0.08-0.342h-0.002
	c0.025-0.102,0.049-0.207,0.072-0.311c0.004-0.012,0.006-0.025,0.01-0.037l0.01-0.031h-0.004c0.053-0.219,0.105-0.436,0.154-0.66
	l0.09-0.439v-0.021l0,0c0.018-0.086,0.035-0.17,0.055-0.256l0.004,0.006l0.121-0.598l-0.016-0.01
	c0.014-0.068,0.025-0.137,0.037-0.203l0.018,0.002l0.1-0.541l0.041-0.23l-0.018,0.016c0.035-0.203,0.078-0.408,0.111-0.611
	l0.016-0.021l0.09-0.529l0.051-0.342l-0.004-0.002c0.062-0.428,0.113-0.855,0.17-1.283l0.014-0.004l0.051-0.449h-0.004
	c0.029-0.236,0.068-0.473,0.096-0.709l0.02-0.262h-0.006c0.137-1.289,0.221-2.582,0.271-3.878l0.014,0.008v-0.068l0.021-0.42
	l-0.016,0.006c0.012-0.421,0.021-0.842,0.025-1.264l0.01-0.004v-1.068v-0.062l-0.006-0.203L125.038,62.346z M111.878,30.944
	c-0.41-0.643-0.605-1.095-0.729-1.397l0.229,0.039c0.449,0.102,0.82,0.21,1.01,0.34c0.438,0.282,1.545,1.688,2.074,2.019
	c-0.297,0.212-0.623,0.41-0.967,0.607C112.911,31.969,112.478,31.545,111.878,30.944z M118.647,72.886c0-0.01,0-0.021,0-0.021
	 M120.247,73.066c0.041,0.01,0-0.02-0.119-0.049l0.029,0.01L120.247,73.066z M116.808,69.736c1.109,3.311,2.15,0.18,1.91,2.59
	l-0.07,0.561l0.062,0.16c0.641-0.16,1.107-0.109,1.35-0.051c0.029,0,0.051,0.01,0.07,0.021l-0.021-0.012
	c-0.148-0.08-0.42-0.25-0.811-0.551c0.461-0.381,0.699-0.52,1.301-0.83C119.458,70.195,118.567,70.115,116.808,69.736z
	 M68.468,102.527c-0.24,0.08-0.48,0.16-0.711,0.24C68.278,104.825,67.808,104.456,68.468,102.527z M67.038,100.636
	c-0.471,0.16-0.951,0.311-1.42,0.471C66.907,102.195,66.317,102.767,67.038,100.636z M64.37,100.835
	c-2.141,1.441,0.02,0.971,0.299,0.143l-0.25,0.027L64.37,100.835z M98.128,104.056l0.01-0.01l-0.02,0.01H98.128z M98.128,104.056
	l-0.16,0.041C97.808,104.156,97.907,104.187,98.128,104.056z M98.827,102.115c-0.02,0.5-0.029,0.85-0.039,1.361
	c-0.25,0.289-0.471,0.459-0.631,0.559l-0.02,0.012l0.08-0.021c0.24-0.049,0.619-0.1,1.17-0.119
	C99.188,103.255,99.038,102.775,98.827,102.115z M102.507,98.296c-0.488,0.689,0.141,1.148,0.561,1.789
	c-1.629,0.941-0.75,1.611-2.58,2.301c-1.787,4.479,2.75-1.359,2.16-1.971c0.4-0.01,0.643,0.049,1.031,0.109
	C103.388,99.636,103.038,99.085,102.507,98.296z M102.337,97.255c-0.619-0.1-1.039-0.17-1.648-0.27
	C99.587,99.716,100.708,98.034,102.337,97.255z M103.929,93.767c0,0.904-0.215,1.41,0.035,1.361
	c-0.635,1.385-0.938,0.766,0.475,1.787c-0.008-0.926-0.047-1.104-0.273-1.877c0.252-0.146,0.684-0.473,1.414-1.004
	C104.958,93.947,104.538,93.876,103.929,93.767z M107.679,93.695c-1.381,1.631-1.352,1.041,0.6,0.439
	C108.077,93.995,107.878,93.845,107.679,93.695z M107.769,90.995c-0.131,1.68-0.939,1.531,1.219,0.881
	C108.577,91.585,108.179,91.284,107.769,90.995z M107.599,89.945c-2.49-0.988-1.551,0.07-0.682,0.211
	c0.131,0.031,0.25,0.031,0.361,0C107.407,90.126,107.519,90.066,107.599,89.945z M109.958,92.357c0.129,0.02,0.25,0.02,0.359-0.012
	c0.131-0.029,0.24-0.09,0.33-0.199C108.147,91.146,109.087,92.206,109.958,92.357z M51.278,55.805c0.61-0.25,1.16-0.75,0.83-1.399
	l-1.76,1.271C50.599,55.876,50.878,55.976,51.278,55.805z M49.438,56.526c0.05-0.01,0.069-0.11,0.09-0.26L49.2,56.505
	C49.269,56.526,49.349,56.526,49.438,56.526z M77.778,77.796l-0.01,0.02l0.08-0.041l0.148-0.119l-0.068-0.07
	C77.929,77.585,77.868,77.675,77.778,77.796z M76.099,79.527l0.049,0.039l0.07-0.17l0.09-0.051L76.2,79.316
	C75.888,79.255,75.917,79.357,76.099,79.527z M78.997,76.245c-0.449,0.771-0.289,2.01-0.799,1.619l-0.02-0.02l-0.012,0.061
	c-0.021,0.17,0,0.301,0.02,0.41l0.682-0.48c0.188-0.277,0.408-0.488,0.578-0.42l0.852-0.619c-0.08-0.102-0.16-0.199-0.23-0.291
	C79.798,76.136,79.358,75.615,78.997,76.245z M77.407,78.736c0.051,0.01,0.1,0.031,0.15,0.039l0.09-0.068h-0.289L77.407,78.736z
	 M57.972,82.57c-0.366-0.523-0.795-0.822-1.286-0.898c-0.492-0.086-0.997,0.055-1.52,0.42c-0.271,0.189-0.562,0.445-0.871,0.771
	c-0.334,0.367-0.551,0.678-0.652,0.928c0.141,0.305,0.378,0.691,0.71,1.168c0.375,0.533,0.728,0.984,1.058,1.354
	c0.836-0.289,1.514-0.617,2.036-0.982C58.546,84.56,58.722,83.64,57.972,82.57z M70.343,56.073
	c-0.451-0.534-0.904-1.062-1.359-1.577c-0.252,0.192-0.492,0.387-0.729,0.581c0.301,0.672,0.602,1.333,0.904,1.987
	C69.552,56.742,69.946,56.412,70.343,56.073z M48.94,68.138c0.243,0.523,0.652,1.197,1.228,2.018
	c0.646,0.926,1.254,1.707,1.824,2.346c1.442-0.502,2.615-1.066,3.52-1.701c1.898-1.332,2.201-2.92,0.908-4.768
	c-0.635-0.902-1.375-1.42-2.225-1.552c-0.848-0.147-1.722,0.093-2.625,0.725c-0.467,0.327-0.968,0.771-1.502,1.332
	C49.493,67.171,49.116,67.704,48.94,68.138z M85.28,52.826l1.229-0.859c-0.992,0.57-1.945,1.13-2.861,1.679
	C84.22,53.463,84.763,53.19,85.28,52.826z M83.687,41.142c-1.18-0.49-2.574-0.264-4.188,0.68c-0.479,0.334-0.943,0.739-1.4,1.213
	l0.576-0.17c0.014,0.129,0.027,0.25,0.045,0.362c0.506-0.493,1.055-0.947,1.646-1.361c0.715-0.501,1.369-0.75,1.959-0.747
	c0.689,0.014,1.287,0.384,1.797,1.108c0.24,0.389,0.295,0.952,0.164,1.693c-0.043,0.2-0.086,0.384-0.123,0.551
	c0.611-0.319,1.209-0.623,1.797-0.91l1.047,2.258c-1.344,0.663-2.668,1.345-3.975,2.042c-0.066,0.17-0.131,0.331-0.193,0.483
	c1.074-0.629,2.131-1.207,3.17-1.732l1.146,2.003c-1.633,0.912-3.178,1.777-4.631,2.595l-0.482-0.984
	c-0.199,0.465-0.414,0.94-0.646,1.427l-2.432-0.757c0.236-0.412,0.453-0.812,0.648-1.194c-0.152,0.093-0.314,0.182-0.484,0.27
	l-1.004-2.195c1.123-0.646,2.244-1.276,3.361-1.89c0.123-0.288,0.234-0.56,0.334-0.813c0.186-0.377,0.227-0.638,0.125-0.783
	c-0.225-0.321-0.48-0.385-0.758-0.188c-0.73,0.635-1.398,1.372-2,2.212c0.035,0.207,0.07,0.391,0.105,0.551l-2.461,0.727
	c-0.148-0.898-0.285-1.731-0.402-2.499c-0.113,0.171-0.227,0.342-0.338,0.514c0.244,1.808,0.889,3.553,1.93,5.237
	c1.334,1.907,2.547,2.921,3.635,3.041c0.521,0.038,1.023,0.002,1.506-0.104l-0.857-1.855c1.82-1.151,3.605-2.226,5.355-3.217
	l0.682,1.238c0.303-0.564,0.447-1.162,0.438-1.791c-0.012-1.075-0.422-2.193-1.234-3.354C86.198,42.877,84.911,41.658,83.687,41.142
	z M65.132,75.365c-0.447,0.314-0.924,0.789-1.424,1.416c0.277,0.549,0.664,1.178,1.161,1.887c0.336-0.02,0.703-0.104,1.109-0.254
	c0.41-0.145,0.752-0.312,1.029-0.506c0.932-0.652,1.062-1.455,0.393-2.41C66.862,74.728,66.106,74.685,65.132,75.365z
	 M93.751,57.109c-0.432,0.303-0.715,0.686-0.85,1.146c1.373-0.53,2.166-0.87,2.375-1.019c0.066-0.046,0.104-0.085,0.107-0.116
	c0.004-0.021-0.021-0.065-0.07-0.139c-0.143-0.204-0.393-0.273-0.752-0.211C94.263,56.827,93.991,56.941,93.751,57.109z"/>
</svg>
