<?xml version="1.0" encoding="UTF-8" standalone="no"?>
<svg width="30px" height="28px" viewBox="0 0 30 28" version="1.1" xmlns="http://www.w3.org/2000/svg" xmlns:xlink="http://www.w3.org/1999/xlink">
    <!-- Generator: Sketch 3.7.2 (28276) - http://www.bohemiancoding.com/sketch -->
    <title>Group 5</title>
    <desc>Created with Sketch.</desc>
    <defs></defs>
    <g id="微信" stroke="none" stroke-width="1" fill="none" fill-rule="evenodd">
        <g id="07a-上传试卷" transform="translate(-548.000000, -1272.000000)" fill="#000000">
            <g id="Group-5" transform="translate(548.000000, 1272.000000)">
                <polygon id="Fill-75" points="0 8.08888889 30 8.08888889 30 0 0 0"></polygon>
                <path d="M2.5,9.33333333 L1.25,9.33333333 L1.25,28 L28.75,28 L28.75,9.33333333 L2.5,9.33333333 L2.5,9.33333333 Z M20.640625,13.9197333 C20.640625,14.4816 20.151875,14.9383111 19.55125,14.9383111 L10.47875,14.9383111 C9.87875,14.9383111 9.390625,14.4816 9.390625,13.9197333 L9.390625,13.4686222 C9.390625,12.9067556 9.87875,12.4494222 10.47875,12.4494222 L19.55125,12.4494222 C20.151875,12.4494222 20.640625,12.9067556 20.640625,13.4686222 L20.640625,13.9197333 L20.640625,13.9197333 Z" id="Fill-76"></path>
            </g>
        </g>
    </g>
</svg>