<?xml version="1.0" encoding="UTF-8" standalone="no"?>
<svg width="52px" height="51px" viewBox="0 0 52 51" version="1.1" xmlns="http://www.w3.org/2000/svg" xmlns:xlink="http://www.w3.org/1999/xlink">
    <!-- Generator: Sketch 3.7.2 (28276) - http://www.bohemiancoding.com/sketch -->
    <title>Fill 92</title>
    <desc>Created with Sketch.</desc>
    <defs></defs>
    <g id="微信" stroke="none" stroke-width="1" fill="none" fill-rule="evenodd">
        <g id="07b-上传试卷" transform="translate(-438.000000, -291.000000)" fill="#F5A623">
            <path d="M450.166323,342 L442.800352,342 C441.85936,342 438.992662,342 438.992662,339.185433 L438,317.227237 C437.999007,314.367963 440.865704,314.367963 441.806696,314.367963 L448.207827,314.367963 C448.947107,314.367963 450.883742,314.367963 451.658794,315.748919 C455.192234,312.701874 458.320263,302.695407 458.320263,300.169946 C458.320263,299.70201 458.294428,299.173472 458.266606,298.617115 C458.148361,296.241672 458.014217,293.548311 459.46098,292.029259 C460.110831,291.345736 460.988229,291 462.067339,291 C466.212872,291 468.743713,295.211419 469.101429,299.373164 C469.479019,303.793217 469.429336,307.054856 468.953375,309.110395 L484.446457,309.110395 C487.508905,309.110395 490,311.602077 490,314.66303 C490,316.589414 488.992433,318.285308 487.437361,319.192368 C487.880532,320.03187 488.123978,320.96476 488.123978,321.878774 C488.123978,324.120096 486.73584,326.021643 484.798211,326.766763 C485.27616,327.631102 485.543453,328.606713 485.543453,329.563447 C485.543453,331.570304 484.486203,333.30097 482.830773,334.183192 C482.919208,334.577609 482.962929,334.975007 482.962929,335.371411 L482.962929,335.619784 C482.962929,338.392625 480.70733,340.647855 477.934037,340.647855 L456.078575,340.647855 C455.306505,340.647855 454.545364,340.461078 453.849805,340.113356 C453.289383,342 450.991057,342 450.166323,342 L450.166323,342 Z" id="Fill-92"></path>
        </g>
    </g>
</svg>