<?xml version="1.0" encoding="UTF-8" standalone="no"?>
<svg width="208px" height="360px" viewBox="0 0 208 360" version="1.1" xmlns="http://www.w3.org/2000/svg" xmlns:xlink="http://www.w3.org/1999/xlink" xmlns:sketch="http://www.bohemiancoding.com/sketch/ns">
    <!-- Generator: Sketch 3.5.1 (25234) - http://www.bohemiancoding.com/sketch -->
    <title>Artboard 10</title>
    <desc>Created with Sketch.</desc>
    <defs></defs>
    <g id="设计" stroke="none" stroke-width="1" fill="none" fill-rule="evenodd" sketch:type="MSPage">
        <g id="Artboard-10" sketch:type="MSArtboardGroup">
            <text id="还没有" sketch:type="MSTextLayer" font-family="FZKaTong-M19S" font-size="32" font-weight="normal" line-spacing="41" fill="#8B572A">
                <tspan x="11" y="49">还没有</tspan>
                <tspan x="11" y="90">收藏的资料~</tspan>
            </text>
            <g id="Group-+-还没有-Copy" sketch:type="MSLayerGroup" transform="translate(2.000000, 111.000000)">
                <g id="Group" sketch:type="MSShapeGroup">
                    <ellipse id="Oval-133" fill="#000000" cx="91.6270096" cy="223.575419" rx="80.926045" ry="16.424581"></ellipse>
                    <path d="M47.9087284,135.155564 C47.9087284,135.155564 20.699678,111.511988 27.755594,84.787197 C33.5040388,63.0145476 43.1631449,54.1681279 54.3297909,44.5962232 C54.4744001,44.4722661 53.4940479,44.2688363 52.7674352,42.1753884 C54.648954,43.6270875 55.6623632,43.091754 55.9047694,42.8844056 C56.2324007,42.6041575 55.7104617,40.0064377 53.6414932,37.4101453 C56.4436058,38.3515734 57.0073785,40.2480486 57.3522799,39.9514447 C57.702699,39.6500958 57.3049276,34.7488761 54.9462937,32.056346 C58.7617454,33.8665328 59.6624552,39.7111411 60.0109953,38.8740191 C62.9239417,31.8777176 57.7152419,15.5029355 76.2443745,0.293296089 C99.5116574,13.0673883 93.1124825,21.7298184 103.140439,22.1841957 C126.174129,23.2278765 144.297338,30.3174242 158.009698,44.5279766 C164.094429,50.8337758 183.514622,38.9180342 204.846665,55.257507 C200.178806,77.4828021 184.876448,83.6843786 180.027773,90.0005157 C179.580501,90.5831557 186.596113,88.8323804 187.857643,90.6487867 C186.596113,90.6487867 182.412976,91.1032525 180.191381,92.3136627 C179.218215,92.8438805 184.185065,92.6789864 184.917556,94.6773525 C182.723349,94.2609768 179.123677,94.0428588 179.10596,94.3120315 C179.079302,94.7170476 181.278287,95.0662112 181.882437,96.8469375 C179.829552,96.1012583 178.348523,96.4075598 178.313427,96.8469422 C175.003037,138.291757 159.014257,152.670291 130.841209,153.753928 C124.74553,156.948106 132.942379,164.525607 135.454955,168.384689 C139.299273,170.584815 176.486235,179.004226 176.486235,190.047355 C176.486235,195.278893 169.266487,193.25569 159.277433,191.66744 C149.288379,190.079189 135.45495,191.667436 135.45495,191.667436 L144.039757,225.46981 C144.039757,225.46981 130.841202,237.792423 88.2943423,237.792423 C45.7474822,237.792423 40.2748859,227.763804 40.2748859,227.763804 C40.2748859,227.763804 31.0709393,188.369168 34.2190513,170.785805 C37.3671633,153.202443 -4.61897096,140.353472 0.815112608,135.155568 C6.24919618,129.957664 12.9235821,131.034202 24.5036665,133.094885 C36.083751,135.155568 37.9477923,137.377306 41.3068719,137.673053 C44.6659515,137.968801 47.9087284,135.155564 47.9087284,135.155564 Z" id="Path-336" fill="#000000"></path>
                    <path d="M99.1047528,77.8026797 C92.3337018,82.8692386 86.7056371,83.4276806 76.244373,81.0223908 C65.7831089,78.617101 49.3241057,62.4065992 42.1546423,64.1087637 C34.9851789,65.8109282 29.994574,76.8435754 29.994574,86.6585196 C29.994574,96.4734637 33.6155547,123.640014 50.1790595,132.936453 C55.1245981,141.787711 53.3559084,148.221892 47.2112138,158.262043 C41.0665193,168.302193 29.3597267,205.08205 50.1790595,225.735856 C70.9983923,246.389662 130.94574,225.735856 130.94574,225.735856 C130.94574,225.735856 130.660973,201.269201 122.230305,183.524787 C113.799638,165.780374 120.673232,150.796089 126.151728,150.796089 C131.630225,150.796089 143.728899,151.81477 154.662379,146.150489 C165.59586,140.486208 171.398312,130.045391 171.398312,120.531599 C171.398312,111.017807 140.013867,111.3314 126.151728,95.2289184 C112.28959,79.1264368 120.197749,67.729138 120.197749,55.0519379 C110.515675,66.0007861 105.875804,72.7361208 99.1047528,77.8026797 Z" id="Path-356" fill="#FFFFFF"></path>
                    <path d="M88.0563203,89.4173359 C88.0563203,89.4173359 86.5188404,95.2970059 93.5491861,97.2852654 C100.579532,99.2735248 101.452773,95.9065119 101.452773,95.9065119 C101.452773,95.9065119 99.4254421,97.8947713 103.064711,100.672573 C106.703979,103.450375 112.872186,103.795391 114.575563,102.233982" id="Path-357" stroke="#979797"></path>
                    <path d="M63.8099879,36.7798534 C63.8099879,36.7798534 63.2770297,20.2420129 67.6595659,13.3633031 C72.0421021,6.48459323 75.7303557,3.45277584 75.7303557,3.45277584 C75.7303557,3.45277584 85.7063404,17.2691166 86.698452,22.6191515 C85.7063393,27.2235073 82.3152627,26.7580307 82.3152627,26.7580307 C82.3152627,26.7580307 81.5393383,22.8489438 78.5558179,17.7359026 C78.5558174,22.8489438 77.0189912,28.740398 75.7303552,29.4487605 C74.4417192,30.1571229 73.8956995,31.2111557 73.8956995,31.2111557 C73.8956995,31.2111557 74.5096458,28.1040503 71.8807777,25.3609462 C71.8807778,29.4618541 71.1244474,33.4861645 69.1474076,34.6933921 C67.1703677,35.9006198 63.8099879,36.7798534 63.8099879,36.7798534 Z" id="Path-358" fill="#4A4A4A"></path>
                    <path d="M179.196885,87.1771418 C179.196885,87.1771418 193.419671,76.869499 197.292109,69.6614857 C201.164546,62.4534723 203.185259,56.5196618 203.185259,56.5196618 C203.185259,56.5196618 197.749728,50.8777004 173.459559,60.8367936 C170.844452,64.7506008 173.534138,66.8723555 173.534138,66.8723555 C173.534138,66.8723555 178.345056,63.937893 183.896258,66.017856 C176.532511,67.9734187 175.790604,72.0682472 176.177414,73.4894752 C176.564224,74.9107032 176.187101,76.036598 176.187101,76.036598 C176.187101,76.036598 177.990413,73.4355413 181.785149,73.4255401 C178.842159,76.27427 176.479529,79.6151354 176.986537,81.879271 C177.493546,84.1434066 179.196885,87.1771418 179.196885,87.1771418 L179.196885,87.1771418 Z" id="Path-358-Copy" fill="#4A4A4A"></path>
                    <path d="M102.327974,95.8659218 C104.174843,95.8659218 106.880326,95.7227026 106.880326,93.5012221 C106.880326,91.2797415 104.174843,89.1947451 102.327974,89.1947451 C100.481106,89.1947451 98.9839228,89.6220949 98.9839228,91.8435754 C98.9839228,94.065056 100.481106,95.8659218 102.327974,95.8659218 Z" id="Oval-122" fill="#FFD9D9"></path>
                    <path d="M71.3377394,84.579226 C83.0103905,91.6094395 89.9331579,82.9227616 93.1275308,77.5938669 C96.3219038,72.2649721 100.153193,60.8332267 90.2605627,53.0119243 C80.3679321,45.1906218 68.2310705,55.346403 65.0366976,60.6752977 C61.8423247,66.0041925 59.6650883,77.5490125 71.3377394,84.579226 L71.3377394,84.579226 Z" id="Oval-8" fill="#FFFFFF"></path>
                    <ellipse id="Oval-9" fill="#000000" cx="80.4989506" cy="65.3106728" rx="10.2738702" ry="12.5469528"></ellipse>
                    <ellipse id="Oval-9-Copy" fill="#FFFFFF" cx="81.1048141" cy="56.652881" rx="4.56616455" ry="5.70316036"></ellipse>
                    <ellipse id="Oval-9-Copy" fill="#FFFFFF" cx="84.6002527" cy="75.7452613" rx="2.28308228" ry="3.42189622"></ellipse>
                    <path d="M131.730772,114.237436 C144.45035,120.455852 151.037727,110.412197 153.979108,104.367217 C156.92049,98.3222379 160.073421,85.6883759 149.154924,78.4281925 C138.236427,71.168009 126.310173,83.3573018 123.368792,89.4022813 C120.42741,95.4472607 119.011194,108.019021 131.730772,114.237436 L131.730772,114.237436 Z" id="Oval-8" fill="#FFFFFF"></path>
                    <ellipse id="Oval-9" fill="#000000" cx="141.486817" cy="93.6642712" rx="11.7376206" ry="12.5469528"></ellipse>
                    <ellipse id="Oval-9-Copy" fill="#FFFFFF" cx="139.647588" cy="84.1389146" rx="5.21672026" ry="5.70316036"></ellipse>
                    <ellipse id="Oval-9-Copy" fill="#FFFFFF" cx="147.740193" cy="102.639773" rx="2.60836013" ry="3.42189622"></ellipse>
                    <path d="M91.6270096,107.932961 C91.6270096,107.932961 94.825727,111.305421 98.7589447,111.305421 C102.692162,111.305421 104.970282,108.387431 104.970282,108.387431 C104.970282,108.387431 103.938206,114.155781 99.5527804,114.155781 C95.1673551,114.155781 91.6270096,107.932961 91.6270096,107.932961 Z" id="Path-68" fill="#D8D8D8"></path>
                    <path d="M31.1584606,98.3700681 C31.1584606,98.3700681 36.5468248,126.326816 67.4375,135.343052 C98.3281752,144.359288 129.183581,147.26999 143.664891,144.359288 C158.146202,141.448586 170.051547,126.456306 170.051547,128.542903 C170.051547,130.629501 161.44584,146.607455 147.807074,149.937151 C134.168308,153.266847 132.2401,151.130779 129.021604,152.334584 C121.420418,162.514839 120.077572,178.868715 120.077572,178.868715 C120.077572,178.868715 104.293911,155.526798 89.5644092,149.937151 C74.8349076,144.347503 55.0238462,142.7887 52.7367363,146.33249 C52.7367363,142.788698 53.5296423,141.280333 50.9105707,134.077558 C33.2759244,122.172224 31.1584606,98.3700681 31.1584606,98.3700681 Z" id="Path-71" fill="#D8D8D8"></path>
                    <path d="M167.262512,118.514795 C172.836222,121.002236 178.02561,121.508043 178.853336,119.644547 C179.681061,117.781051 175.833681,114.253921 170.259971,111.76648 C164.686261,109.279039 159.496873,108.773232 158.669147,110.636727 C157.841422,112.500223 161.688802,116.027354 167.262512,118.514795 L167.262512,118.514795 Z" id="Oval-19" fill="#FFB6BE"></path>
                    <path d="M45.0579108,65.8394487 C49.492143,67.8183623 50.5682141,66.9465168 51.4148659,65.0404112 C52.2615177,63.1343055 49.3532092,59.9848751 44.918977,58.0059615 C40.4847447,56.0270478 37.7573232,56.6613589 36.9106714,58.5674646 C36.0640196,60.4735702 40.6236785,63.8605351 45.0579108,65.8394487 L45.0579108,65.8394487 Z" id="Oval-19" fill="#FFB6BE"></path>
                </g>
            </g>
        </g>
    </g>
</svg>