<?xml version="1.0" encoding="UTF-8" standalone="no"?>
<svg width="30px" height="28px" viewBox="0 0 30 28" version="1.1" xmlns="http://www.w3.org/2000/svg" xmlns:xlink="http://www.w3.org/1999/xlink">
    <!-- Generator: Sketch 3.7.2 (28276) - http://www.bohemiancoding.com/sketch -->
    <title>Fill 183</title>
    <desc>Created with Sketch.</desc>
    <defs></defs>
    <g id="微信" stroke="none" stroke-width="1" fill="none" fill-rule="evenodd">
        <g id="06a-上传试卷" transform="translate(-48.000000, -1271.000000)" fill="#000000">
            <g id="Group-2" transform="translate(48.000000, 1271.000000)">
                <path d="M28.2692308,28 L1.73076923,28 C0.774807692,28 0,27.2165833 0,26.25 L0,17.5 C0,16.5334167 0.774807692,15.75 1.73076923,15.75 C2.68673077,15.75 3.46153846,16.5334167 3.46153846,17.5 L3.46153846,24.5 L26.5384615,24.5 L26.5384615,17.5 C26.5384615,16.5334167 27.3132692,15.75 28.2692308,15.75 C29.2251923,15.75 30,16.5334167 30,17.5 L30,26.25 C30,27.2165833 29.2251923,28 28.2692308,28 L28.2692308,28 Z M20.1923077,9.33333333 C19.6817308,9.33333333 19.2225,9.10933333 18.9057692,8.75408333 L16.7307692,6.3105 L16.7307692,16.9166667 C16.7307692,17.88325 15.9559615,18.6666667 15,18.6666667 C14.0440385,18.6666667 13.2692308,17.88325 13.2692308,16.9166667 L13.2692308,6.3105 L11.0942308,8.75408333 C10.7775,9.10933333 10.3182692,9.33333333 9.80769231,9.33333333 C8.85173077,9.33333333 8.07692308,8.54991667 8.07692308,7.58333333 C8.07692308,7.133 8.24538462,6.72291667 8.52115385,6.41258333 L13.7134615,0.57925 C14.0301923,0.224 14.4894231,0 15,0 C15.5105769,0 15.9698077,0.224 16.2865385,0.57925 L21.4788462,6.41258333 C21.7546154,6.72291667 21.9230769,7.133 21.9230769,7.58333333 C21.9230769,8.54991667 21.1482692,9.33333333 20.1923077,9.33333333 L20.1923077,9.33333333 Z" id="Fill-183"></path>
            </g>
        </g>
    </g>
</svg>