<?xml version="1.0" encoding="UTF-8" standalone="no"?>
<svg width="370px" height="349px" viewBox="0 0 370 349" version="1.1" xmlns="http://www.w3.org/2000/svg" xmlns:xlink="http://www.w3.org/1999/xlink">
    <!-- Generator: Sketch 3.6 (26304) - http://www.bohemiancoding.com/sketch -->
    <title>Group 3</title>
    <desc>Created with Sketch.</desc>
    <defs></defs>
    <g id="设计" stroke="none" stroke-width="1" fill="none" fill-rule="evenodd">
        <g id="02c-我的收藏-02-copy-6" transform="translate(-190.000000, -187.000000)">
            <g id="Group-3" transform="translate(190.000000, 188.000000)">
                <path d="M13.6594534,37.1361927 L-3.55271368e-15,35.023624 L13.1790681,31.014638 L16.130192,10.5151515 L19.7011463,29.3990185 L36.1829653,33.816331 L20.569532,36.7918074 L17.6682897,56.6211071 L13.6594534,37.1361927 L13.6594534,37.1361927 Z" id="Star-1-Copy-5" stroke="#F6A623" stroke-linecap="round" stroke-linejoin="round" fill="#FFEDAD"></path>
                <path d="M24.6494924,95.7028569 L17.5078864,94.5983374 L24.3983313,92.5023092 L25.9412748,81.7845118 L27.8082857,91.6576109 L36.4255161,93.9671253 L28.262306,95.522801 L26.7454422,105.890203 L24.6494924,95.7028569 L24.6494924,95.7028569 Z" id="Star-1-Copy-7" stroke="#F6A623" stroke-linecap="round" stroke-linejoin="round" fill="#FFEDAD"></path>
                <g id="Group" transform="translate(39.684543, 0.000000)">
                    <path d="M246.318563,244.25384 C246.318563,244.25384 254.007249,242.977949 262.345999,239.7511 C270.684749,236.524251 288.69169,227.53431 288.69169,227.53431 C288.69169,227.53431 272.727709,255.840211 275.543847,264.240378 C278.359985,272.640545 303.343128,282.668706 303.343128,282.668706 C303.343128,282.668706 268.119324,299.678293 252.743331,300.926558 C237.367339,302.174823 246.318563,244.25384 246.318563,244.25384 Z" id="Path-156-Copy" stroke="#4A4A4A" stroke-width="3" stroke-linecap="round" stroke-linejoin="round" fill="#FFFFFF"></path>
                    <path d="M255.011943,299.627145 C255.011943,299.627145 257.891967,269.736065 247.934093,235.555033 C237.976219,201.374002 226.369087,177.977734 224.495585,178.481767 C198.165892,185.565319 86.6876443,174.650477 82.5790665,181.173829 C77.8190439,188.731506 72.4724709,204.877953 67.2659253,247.653125 C62.0593797,290.428298 67.2659252,325.743157 67.2659252,325.743157" id="Path-11-Copy" stroke="#4A4A4A" stroke-width="3" fill="#FFFFFF"></path>
                    <path d="M66.7917425,254.851163 C66.7917425,254.851163 59.1030558,253.575273 50.7643061,250.348423 C42.4255565,247.121574 24.418615,238.131633 24.418615,238.131633 C24.418615,238.131633 40.3825959,266.437534 37.5664579,274.837701 C34.7503199,283.237868 9.76717708,293.26603 9.76717708,293.26603 C9.76717708,293.26603 44.9909816,310.275616 60.3669738,311.523881 C75.7429661,312.772146 66.7917425,254.851163 66.7917425,254.851163 Z" id="Path-156" stroke="#4A4A4A" stroke-width="3" stroke-linecap="round" stroke-linejoin="round" fill="#FFFFFF"></path>
                    <path d="M120.469108,204.954804 C120.469108,204.954804 65.5695451,201.834986 50.8141621,146.106133 C40.6243232,106.416362 58.461027,56.5150672 106.941431,35.9014099 C155.421835,15.2877525 196.067101,34.5499007 211.687489,41.6607039 C227.307876,48.7715071 246.718418,61.0673943 254.851361,104.452006 C262.984305,147.836618 238.020769,169.126963 225.000505,180.079982 C211.980241,191.033001 184.466092,200.319472 184.466092,200.319472" id="Path-13" stroke="#4A4A4A" stroke-width="3" stroke-linecap="round" stroke-linejoin="round" fill="#FFFFFF"></path>
                    <path d="M231.390054,55.8320283 C231.390054,55.8320283 232.496637,11.2372248 220.470273,1.00159087 C214.581421,-0.466664654 203.679155,4.97437561 191.679375,15.2770235 C179.679596,25.5796714 181.346179,29.5253905 176.476714,29.7419063 C178.584935,30.2675448 180.420136,30.8136614 182.413863,31.5363807" id="Path-4" stroke="#4A4A4A" stroke-width="3" stroke-linecap="round" stroke-linejoin="round" fill="#FFFFFF"></path>
                    <path d="M220.879306,0.931133819 C220.879306,0.931133819 206.763547,6.16304362 196.99545,36.825117" id="Path-5" stroke="#4A4A4A" stroke-width="2" stroke-linecap="round" stroke-linejoin="round"></path>
                    <path d="M98.6023901,41.0900024 C98.6023901,41.0900024 71.7572317,19.4701001 55.5191668,18.8405467 C41.3327692,31.1242645 56.0121658,78.0121559 57.5097994,82.1942892" id="Path-9" stroke="#4A4A4A" stroke-width="3" stroke-linecap="round" stroke-linejoin="round" fill="#FFFFFF"></path>
                    <path d="M55.9447626,18.6537505 C55.9447626,18.6537505 79.6989046,37.0278793 82.0128974,55.8811308" id="Path-10" stroke="#4A4A4A" stroke-width="2" stroke-linecap="round" stroke-linejoin="round"></path>
                    <g id="Group-2" transform="translate(44.123422, 82.192682) scale(-1, 1) rotate(23.000000) translate(-44.123422, -82.192682) translate(36.123422, 69.692682)" stroke="#4A4A4A" stroke-width="2" fill="#FFFFFF" stroke-linecap="round" stroke-linejoin="round">
                        <path d="M-2.55440114e-12,15.3019691 C-2.55440114e-12,15.3019691 1.65925432,3.17899241 13.4368013,0.407050669" id="Path-1-Copy-5"></path>
                        <path d="M5.00187235,19.5444358 C5.00187235,19.5444358 5.89667209,11.6028003 13.4430027,7.99563635" id="Path-1-Copy-6" transform="translate(9.222438, 13.770036) rotate(31.000000) translate(-9.222438, -13.770036) "></path>
                        <path d="M4.7649739,22.4296791 C4.7649739,22.4296791 6.56038581,17.9074171 14.2985628,16.6552793" id="Path-1-Copy-7" transform="translate(9.531768, 19.542479) rotate(31.000000) translate(-9.531768, -19.542479) "></path>
                    </g>
                    <g id="Group-2" transform="translate(243.537989, 52.770215) rotate(23.000000) translate(-243.537989, -52.770215) translate(235.537989, 40.270215)" stroke="#4A4A4A" stroke-width="2" fill="#FFFFFF" stroke-linecap="round" stroke-linejoin="round">
                        <path d="M2.13162821e-12,15.3019691 C2.13162821e-12,15.3019691 1.65925432,3.17899241 13.4368013,0.407050669" id="Path-1-Copy-5"></path>
                        <path d="M5.00187235,19.5444358 C5.00187235,19.5444358 5.89667209,11.6028003 13.4430027,7.99563635" id="Path-1-Copy-6" transform="translate(9.222438, 13.770036) rotate(31.000000) translate(-9.222438, -13.770036) "></path>
                        <path d="M4.7649739,22.4296791 C4.7649739,22.4296791 6.56038581,17.9074171 14.2985628,16.6552793" id="Path-1-Copy-7" transform="translate(9.531768, 19.542479) rotate(31.000000) translate(-9.531768, -19.542479) "></path>
                    </g>
                    <path d="M95.1255569,287.927656 C95.1255569,287.927656 112.48244,235.921699 151.253483,232.465224 C190.024525,229.00875 212.40345,284.529884 212.40345,284.529884" id="Path-25" stroke="#4A4A4A" stroke-width="2" stroke-linecap="round" stroke-linejoin="round" fill="#FFFFFF"></path>
                    <path d="M98.9001765,202.115475 C98.9001765,202.115475 82.270716,195.814082 62.2425087,171.41323 C44.2354896,149.47484 -9.33379721,148.69059 1.49399373,163.516784 C8.05314791,171.842274 23.1357862,180.236489 46.7638539,202.745594 C70.3919216,225.2547 67.068088,260.188832 66.1222631,270.892538" id="Path-15" stroke="#4A4A4A" stroke-width="3" stroke-linecap="round" stroke-linejoin="round" fill="#FFFFFF"></path>
                    <path d="M214.142394,187.358106 C214.142394,187.358106 230.771855,181.056714 250.800062,156.655861 C268.807081,134.717471 314.933161,135.011705 311.548577,148.759415 C291.405092,160.862842 280.007342,167.7113 266.278717,187.988225 C252.550091,208.26515 249.113958,225.441357 249.682174,242.978013" id="Path-15-Copy" stroke="#4A4A4A" stroke-width="3" stroke-linecap="round" stroke-linejoin="round" fill="#FFFFFF"></path>
                    <ellipse id="Oval-2" fill="#FFF2F2" cx="86.6659345" cy="132.501302" rx="20.526153" ry="7.29278152"></ellipse>
                    <ellipse id="Oval-2-Copy" fill="#FFF2F2" cx="212.425731" cy="104.118262" rx="17.9793466" ry="6.38792112"></ellipse>
                    <g id="Group-5" transform="translate(153.791128, 134.341534) rotate(17.000000) translate(-153.791128, -134.341534) translate(129.791128, 118.841534)" stroke="#4A4A4A" stroke-width="2">
                        <path d="M1.01962883e-12,25.3667226 C1.01962883e-12,25.3667226 8.9762043,33.2242112 16.3057486,28.7736017 C23.6352928,24.3229922 23.2261904,14.0030025 25.4518518,12.8945069 C28.0159294,11.6174624 36.554051,16.5131811 43.3551652,13.3537745 C50.1562794,10.1943678 45.6681768,-1.0125234e-13 45.6681768,-1.0125234e-13" id="Path-1" stroke-linecap="round" stroke-linejoin="round"></path>
                        <path d="M21.1682096,6.64250707 C21.1682096,6.64250707 23.3806089,8.30553666 24.3197328,9.73737047 C25.390215,11.3694795 25.9127749,12.6473594 25.9127749,12.6473594" id="Path-25" stroke-linecap="round" stroke-linejoin="round"></path>
                        <path d="M20.5067031,8.61709609 C22.333403,8.61709609 23.8142358,7.78645836 23.8142358,5.96009326 C23.8142358,4.13372815 22.333403,2.65700283 20.5067031,2.65700283 C18.6800032,2.65700283 17.1991703,4.23524694 17.1991703,5.96009326 C17.1991703,7.68493958 18.6800032,8.61709609 20.5067031,8.61709609 Z" id="Oval-1" fill="#FFFFFF"></path>
                    </g>
                    <g id="Group-4" transform="translate(193.999929, 87.517696) rotate(-10.000000) translate(-193.999929, -87.517696) translate(171.999929, 76.017696)" fill="#4A4A4A">
                        <path d="M19.8578021,8.25851401 C25.838785,8.25851401 30.1767018,8.25851401 35.3024824,15.2022423 C36.6986902,17.0936396 39.2318328,17.546153 38.3507811,15.2946747 C37.9675477,14.3153432 37.5091483,13.3738492 36.982701,12.4773287 C36.6339244,11.8833748 41.5762605,11.533712 43.0624974,7.60535045 C38.3507817,9.5421665 34.686883,9.28868079 34.0334133,8.62095215 C33.6893882,8.26942036 33.3324556,7.93062941 32.9633847,7.60535045 C32.4407486,7.14472759 36.7027118,3.71355249 36.7027118,0.505066147 C34.0589667,3.71355234 29.7754661,5.28586867 28.9474807,4.8577602 C26.2238727,3.44952326 23.1334595,2.65439498 19.8578021,2.65439498 C8.89064082,2.65439498 -2.16715534e-13,11.5674933 -2.16715534e-13,22.5623573 C7.74125443,11.5674933 12.2476634,8.25851401 19.8578021,8.25851401 Z" id="Oval-9"></path>
                        <path d="M21.2294901,19.4711796 C27.4442148,19.4711796 31.7724833,22.8203915 31.7724833,16.5899686 C31.7724833,10.3595457 26.7344535,5.30878995 20.5197288,5.30878995 C14.3050041,5.30878995 9.2669743,10.3595457 9.2669743,16.5899686 C9.2669743,22.8203915 15.0147654,19.4711796 21.2294901,19.4711796 Z" id="Oval-11"></path>
                    </g>
                    <g id="Group-4" transform="translate(99.386737, 109.760601) scale(-1, 1) rotate(15.000000) translate(-99.386737, -109.760601) translate(77.386737, 98.260601)" fill="#4A4A4A">
                        <path d="M19.8497445,8.2672283 C25.8283006,8.2672283 30.1644572,8.2672283 35.2881579,15.2182835 C36.6837992,17.1116766 39.215914,17.5646675 38.3352198,15.3108134 C37.9521419,14.3304486 37.4939285,13.3879612 36.9676948,12.4904947 C36.6190597,11.895914 41.5593904,11.5458823 43.0450243,7.61337552 C38.3352204,9.55223528 34.6728084,9.29848209 34.0196038,8.63004887 C33.6757184,8.27814615 33.3189306,7.93899771 32.9500094,7.61337552 C32.4275854,7.15226662 36.6878192,3.71747099 36.6878192,0.505599087 C34.0451468,3.71747083 29.7633844,5.29144625 28.9357349,4.86288605 C26.2132321,3.45316315 23.1240728,2.65719586 19.8497445,2.65719586 C8.88703333,2.65719586 -1.43884904e-12,11.5796992 -1.43884904e-12,22.5861648 C7.73811332,11.5796992 12.2426937,8.2672283 19.8497445,8.2672283 Z" id="Oval-9"></path>
                        <path d="M21.220876,19.4917253 C27.433079,19.4917253 31.7595912,22.8444713 31.7595912,16.6074741 C31.7595912,10.3704769 26.7236057,5.31439172 20.5114027,5.31439172 C14.2991997,5.31439172 9.26321411,10.3704769 9.26321411,16.6074741 C9.26321411,22.8444713 15.008673,19.4917253 21.220876,19.4917253 Z" id="Oval-11"></path>
                    </g>
                    <path d="M56.3883824,259.212867 C70.0730674,265.508004 104.099025,283.81421 161.623469,281.127469 C219.147914,278.440728 242.368799,260.009799 259.887399,249.423485 C268.220248,247.060166 269.047844,310.71969 262.359611,316.351066 C255.671379,321.982442 228.293557,343.176218 167.453488,346.177924 C106.613419,349.17963 64.6768864,331.989551 56.3883823,328.140177 C48.0998782,324.290803 47.2469597,255.583334 56.3883824,259.212867 Z" id="Path-155" stroke="#4A4A4A" stroke-width="3" fill="#FFFFFF"></path>
                    <path d="M261.250184,249.620276 C261.250184,249.620276 256.405907,247.1953 254.919552,246.348724 C253.225296,245.383736 249.665169,243.336622 249.665169,243.336622" id="Path-25" stroke="#4A4A4A" stroke-width="2" stroke-linecap="round" stroke-linejoin="round"></path>
                    <path d="M54.9981247,258.902172 C54.9981247,258.902172 59.8417169,257.802807 61.3280717,256.956232 C63.0223276,255.991244 66.5824545,253.94413 66.5824545,253.94413" id="Path-25" stroke="#4A4A4A" stroke-width="2" stroke-linecap="round" stroke-linejoin="round"></path>
                    <path d="M100.704974,287.898957 L96.8295304,287.898957 C96.6775515,288.202915 96.5255748,288.88681 96.3735959,289.950663 C96.2216169,291.014515 96.0696403,291.926375 95.9176613,292.68627 C95.3097456,296.789701 94.6258506,300.0572 93.8659559,302.488863 C92.4981454,306.136357 90.9023905,309.631821 89.0786432,312.975357 C87.2548959,316.166915 85.5831526,317.76267 84.0633632,317.76267 C82.8475317,317.76267 81.3277651,315.407032 79.5040178,310.695684 C77.8322495,304.920485 76.6164362,297.85357 75.8565415,289.494728 L71.5251633,289.494728 C71.8291212,293.902118 72.2850512,298.157464 72.8929669,302.260895 C74.1087985,307.732137 75.4765884,311.987484 76.9963778,315.027063 C79.124083,319.434452 81.4037329,321.638114 83.835396,321.638114 C86.1150801,321.638114 88.6986833,319.434452 91.5862832,315.027063 C93.8659673,311.531547 96.0696289,307.2762 98.1973341,302.260895 C100.021081,297.24559 100.856953,292.458326 100.704974,287.898957 L100.704974,287.898957 Z M106.404156,321.866081 L109.823665,319.586408 C109.671686,318.218598 108.987791,316.850808 107.771959,315.482997 L107.771959,312.063488 C107.923938,310.39172 107.999927,309.099918 107.999927,308.188045 C108.303885,304.844508 108.607838,300.133231 108.911796,294.054074 C108.759817,298.005526 108.759817,297.549596 108.911796,292.68627 L105.036352,292.68627 L104.808385,294.510008 L104.808385,295.649845 C104.960364,296.561718 105.036352,297.245613 105.036352,297.70155 L105.036352,298.385452 C105.188331,299.753262 105.264319,300.893087 105.264319,301.804961 C105.264319,303.32475 105.036354,306.288295 104.580418,310.695684 C104.580418,310.999642 104.504429,311.455572 104.35245,312.063488 C104.200471,313.431299 104.124483,314.799089 104.124483,316.166899 C104.124483,317.686688 104.884366,319.586397 106.404156,321.866081 L106.404156,321.866081 Z M113.015207,289.722696 L114.155043,294.965943 C117.802538,293.446153 122.285849,292.610282 127.605112,292.458303 C130.036775,292.458303 132.468402,292.762256 134.900065,293.370172 C138.39558,294.282046 140.143312,295.269894 140.143312,296.333746 C140.295291,297.853536 138.091629,299.525279 133.532261,301.349026 C130.036745,302.716837 127.149189,303.47672 124.869505,303.628699 L124.641538,303.400732 C124.489559,303.096774 124.41357,300.361194 124.41357,295.19391 L120.538127,295.19391 L120.538127,303.856666 L120.310159,304.084634 C119.702244,304.236613 118.562419,304.312601 116.89065,304.312601 L117.118618,309.555848 C117.422575,309.555848 117.878505,309.47986 118.486421,309.327881 C119.246316,309.327881 119.778234,309.251893 120.082192,309.099914 L120.538127,309.327881 L120.538127,321.182179 L124.869505,321.182179 C124.565547,320.422284 124.41357,316.242926 124.41357,308.643979 L124.641538,308.188045 C126.769243,307.732108 128.820928,307.124201 130.796654,306.364306 C132.468422,305.90837 134.064177,305.376451 135.583967,304.768535 C141.815103,302.184893 144.778648,299.449314 144.47469,296.561714 C144.47469,293.522135 141.587134,291.242485 135.811934,289.722696 C131.404545,288.506864 127.453151,287.898957 123.957636,287.898957 C120.310141,288.050936 116.662701,288.658843 113.015207,289.722696 L113.015207,289.722696 Z" id="vip" fill="#4A4A4A" transform="translate(108.010530, 306.250323) rotate(7.000000) translate(-108.010530, -306.250323) "></path>
                    <path d="M157.41535,317.94053 L157.214739,314.128918 C168.449022,313.727693 180.218095,312.992126 192.52231,311.922194 L192.52231,315.934418 C190.649929,315.934418 187.90827,316.001288 184.297251,316.13503 C180.686231,316.268771 177.944572,316.402511 176.072191,316.536252 C169.920084,320.281013 166.509728,323.357021 165.84102,325.764367 C165.84102,326.433074 166.309108,326.767423 167.245299,326.767423 C171.257543,326.767423 176.740861,325.831247 183.695417,323.958866 C183.427934,323.557642 182.892976,322.955814 182.090527,322.153366 C181.42182,321.484658 180.953732,320.9497 180.686249,320.548476 L183.896028,317.94053 C186.437116,321.284067 189.446254,324.627554 192.923532,327.97109 L189.513142,330.579036 C189.111917,330.04407 188.44322,329.241633 187.50703,328.171702 C187.105805,327.770477 186.771457,327.436128 186.503974,327.168646 C179.014452,329.041026 172.394348,330.044072 166.643465,330.177814 C163.166187,330.177814 161.427574,328.974158 161.427574,326.566812 C161.561315,323.758241 163.968626,320.615364 168.649577,317.138086 C167.579645,317.138086 165.907902,317.271825 163.634297,317.539308 C160.959468,317.673049 158.886506,317.806789 157.41535,317.94053 L157.41535,317.94053 Z M156.612905,310.116694 L153.804348,307.107526 C161.828836,300.821677 169.451986,294.335313 176.674025,287.648239 L179.883804,290.657407 C179.616321,290.791149 179.281973,291.058628 178.880748,291.459852 C178.345782,291.861077 177.944564,292.195425 177.677081,292.462908 C185.300345,297.812567 191.786709,301.95849 197.136367,304.900802 L194.32781,308.712415 C187.640737,303.763981 180.953764,299.283709 174.266691,295.271465 C168.248325,300.086158 162.363788,305.034518 156.612905,310.116694 L156.612905,310.116694 Z M184.899084,303.295913 L185.099695,307.107526 C184.430988,307.107526 183.294203,307.174395 181.689305,307.308137 C174.066041,307.441878 168.382114,307.709357 164.637353,308.110582 L164.436742,304.098358 C170.455108,304.232099 177.27582,303.96462 184.899084,303.295913 L184.899084,303.295913 Z" id="会" fill="#4A4A4A"></path>
                    <path d="M210.005366,282.428797 L213.616368,283.833076 C218.43106,282.094436 222.309505,281.22513 225.251817,281.22513 C231.0027,281.22513 233.878099,283.030613 233.878099,286.641632 C233.476874,292.258774 228.327905,295.201042 218.431036,295.468525 C211.47648,295.602267 208.066124,293.529305 208.199865,289.249578 C208.199865,286.70849 208.801693,284.434919 210.005366,282.428797 L210.005366,282.428797 Z M210.6072,313.924755 L206.996198,314.526589 C206.461232,308.641964 205.926274,303.492995 205.391308,299.079527 L209.202921,298.878915 L209.202921,299.68136 C209.336663,300.216326 209.403532,300.617545 209.403532,300.885027 C215.421899,299.012647 221.707653,298.076471 228.260985,298.076471 C234.14561,297.808988 236.887269,299.81508 236.486044,304.094807 C236.352303,307.839568 235.616736,311.316794 234.279321,314.526589 L230.467708,313.523533 C231.938864,310.179996 232.674432,307.304598 232.674432,304.897251 C232.941914,302.489905 231.53765,301.35312 228.461596,301.486861 C222.844455,301.620603 216.5587,302.690518 209.604144,304.69664 C209.871627,307.772694 210.205975,310.848702 210.6072,313.924755 L210.6072,313.924755 Z M206.594976,323.152871 L203.98703,319.943091 C210.005396,316.465813 216.49176,311.049365 223.446316,303.693584 L226.455484,306.30153 C218.698479,313.924793 212.078376,319.541851 206.594976,323.152871 L206.594976,323.152871 Z M225.251817,284.63552 C220.97209,284.769262 216.692427,285.906047 212.4127,288.045911 L212.4127,288.848356 C212.145217,291.12196 213.683221,292.191876 217.026758,292.058135 C225.184988,291.924393 229.397781,290.18578 229.665264,286.842244 C229.799005,285.371087 228.327871,284.63552 225.251817,284.63552 L225.251817,284.63552 Z M237.890323,319.541869 L236.285433,322.751648 C231.069516,320.478043 226.121156,318.471951 221.440204,316.733312 L223.245705,313.322922 C228.194139,315.730268 233.07563,317.80323 237.890323,319.541869 L237.890323,319.541869 Z" id="员" fill="#4A4A4A" transform="translate(225.151512, 302.189000) rotate(-7.000000) translate(-225.151512, -302.189000) "></path>
                    <path d="M269.500875,21.5300274 L261.451104,20.2850513 L269.217775,17.922481 L270.956927,5.84175084 L273.061357,16.9703663 L282.774401,19.5735709 L273.573113,21.3270747 L271.863357,33.0128513 L269.500875,21.5300274 L269.500875,21.5300274 Z" id="Star-1-Copy-6" stroke="#F6A623" stroke-linecap="round" stroke-linejoin="round" fill="#FFEDAD"></path>
                    <path d="M307.299536,47.6513442 L293.640083,45.5387756 L306.819151,41.5297896 L309.770275,21.030303 L313.341229,39.9141701 L329.823048,44.3314825 L314.209615,47.3069589 L311.308372,67.1362587 L307.299536,47.6513442 L307.299536,47.6513442 Z" id="Star-1-Copy-4" stroke="#F6A623" stroke-linecap="round" stroke-linejoin="round" fill="#FFEDAD"></path>
                    <path d="M281.622263,106.033506 L274.290221,104.899534 L281.364404,102.747614 L282.948491,91.7440188 L284.865287,101.880391 L293.712302,104.25149 L285.331414,105.848649 L283.774102,116.492505 L281.622263,106.033506 L281.622263,106.033506 Z" id="Star-1-Copy-8" stroke="#F6A623" stroke-linecap="round" stroke-linejoin="round" fill="#FFEDAD"></path>
                </g>
            </g>
        </g>
    </g>
</svg>