<?xml version="1.0" encoding="UTF-8" standalone="no"?>
<svg width="30px" height="26px" viewBox="0 0 30 26" version="1.1" xmlns="http://www.w3.org/2000/svg" xmlns:xlink="http://www.w3.org/1999/xlink">
    <!-- Generator: Sketch 3.7.2 (28276) - http://www.bohemiancoding.com/sketch -->
    <title>Fill 63</title>
    <desc>Created with Sketch.</desc>
    <defs></defs>
    <g id="微信" stroke="none" stroke-width="1" fill="none" fill-rule="evenodd">
        <g id="06a-上传试卷" transform="translate(-298.000000, -1272.000000)" fill="#A5A5A5">
            <g id="Group-3" transform="translate(298.000000, 1271.000000)">
                <path d="M28.59375,27 L1.40625,27 C0.62953125,27 0,26.3651273 0,25.5818182 L0,16.6 C0,16.4208364 0.03328125,16.2492364 0.09375,16.0913455 L3.83296875,6.19149091 C4.0284375,5.64549091 4.546875,5.25454545 5.15625,5.25454545 L8.95359375,5.25454545 C8.9278125,5.40912727 8.90625,5.56512727 8.90625,5.72727273 C8.90625,6.71527273 9.40828125,7.5832 10.1676563,8.09090909 L6.125625,8.09090909 L3.44671875,15.1818182 L7.96875,15.1818182 C8.74546875,15.1818182 9.375,15.8166909 9.375,16.6 L9.375,18.0181818 L20.625,18.0181818 L20.625,16.6 C20.625,15.8166909 21.2545313,15.1818182 22.03125,15.1818182 L26.5532812,15.1818182 L23.8748437,8.09090909 L19.8323437,8.09090909 C20.5917188,7.5832 21.09375,6.71527273 21.09375,5.72727273 C21.09375,5.56512727 21.0721875,5.40912727 21.0464063,5.25454545 L24.84375,5.25454545 C25.453125,5.25454545 25.9715625,5.64549091 26.1670313,6.19149091 L29.90625,16.0913455 C29.9667188,16.2492364 30,16.4208364 30,16.6 L30,25.5818182 C30,26.3651273 29.3704687,27 28.59375,27 L28.59375,27 Z M18.28125,7.14545455 C17.893125,7.14545455 17.5415625,6.98661818 17.2870313,6.72992727 L16.40625,5.84214545 L16.40625,14.7090909 C16.40625,15.4924 15.7767187,16.1272727 15,16.1272727 C14.2232813,16.1272727 13.59375,15.4924 13.59375,14.7090909 L13.59375,5.84214545 L12.7129688,6.72992727 C12.4584375,6.98661818 12.106875,7.14545455 11.71875,7.14545455 C10.9420313,7.14545455 10.3125,6.51058182 10.3125,5.72727273 C10.3125,5.33585455 10.47,4.98083636 10.7245313,4.72461818 L14.0057813,1.41552727 C14.2603125,1.15883636 14.611875,1 15,1 C15.388125,1 15.7396875,1.15883636 15.9942188,1.41552727 L19.2754688,4.72461818 C19.53,4.98083636 19.6875,5.33585455 19.6875,5.72727273 C19.6875,6.51058182 19.0579687,7.14545455 18.28125,7.14545455 L18.28125,7.14545455 Z" id="Fill-63"></path>
            </g>
        </g>
    </g>
</svg>