<?xml version="1.0" encoding="UTF-8" standalone="no"?>
<svg width="48px" height="48px" viewBox="0 0 48 48" version="1.1" xmlns="http://www.w3.org/2000/svg" xmlns:xlink="http://www.w3.org/1999/xlink">
    <!-- Generator: Sketch 3.7.2 (28276) - http://www.bohemiancoding.com/sketch -->
    <title>Group</title>
    <desc>Created with Sketch.</desc>
    <defs></defs>
    <g id="微信公众号" stroke="none" stroke-width="1" fill="none" fill-rule="evenodd">
        <g id="06a-上传试卷" transform="translate(-197.000000, -615.000000)">
            <g id="Group" transform="translate(197.000000, 615.000000)">
                <path d="M48,24.2962963 C48,10.7448889 37.2551111,0 23.7037037,0 C10.7448889,0 0,10.7448889 0,24.2962963 C0,37.2551111 10.7448889,48 23.7037037,48 C37.2551111,48 48,37.2551111 48,24.2962963 Z" id="Fill-3" fill="#DA374B"></path>
                <path d="M35.3795294,15.6148235 L26.9950588,24 L35.3795294,32.3851765 C35.7628235,32.7684706 36,33.2978824 36,33.8823529 C36,35.052 35.052,36 33.8823529,36 C33.2978824,36 32.7677647,35.7628235 32.3851765,35.3795294 L24,26.9950588 L15.6148235,35.3795294 C15.2315294,35.7628235 14.7021176,36 14.1176471,36 C12.948,36 12,35.052 12,33.8823529 C12,33.2978824 12.2371765,32.7684706 12.6204706,32.3851765 L21.0049412,24 L12.6204706,15.6148235 C12.2371765,15.2315294 12,14.7021176 12,14.1176471 C12,12.948 12.948,12 14.1176471,12 C14.7021176,12 15.2315294,12.2371765 15.6148235,12.6204706 L24,21.0049412 L32.3851765,12.6204706 C32.7677647,12.2371765 33.2978824,12 33.8823529,12 C35.052,12 36,12.948 36,14.1176471 C36,14.7021176 35.7628235,15.2315294 35.3795294,15.6148235" id="Fill-141" fill="#FFFFFF"></path>
            </g>
        </g>
    </g>
</svg>