<?xml version="1.0" encoding="UTF-8" standalone="no"?>
<svg width="200px" height="200px" viewBox="0 0 200 200" version="1.1" xmlns="http://www.w3.org/2000/svg" xmlns:xlink="http://www.w3.org/1999/xlink">
    <!-- Generator: Sketch 3.7.2 (28276) - http://www.bohemiancoding.com/sketch -->
    <title>planet_cyan</title>
    <desc>Created with Sketch.</desc>
    <defs></defs>
    <g id="Symbols" stroke="none" stroke-width="1" fill="none" fill-rule="evenodd">
        <g id="planet_cyan">
            <g>
                <path d="M0.797802198,100.026374 C0.797802198,154.851648 45.2406593,199.298901 100.069231,199.298901 C154.895604,199.298901 199.342857,154.851648 199.342857,100.026374 C199.342857,45.2 154.895604,0.754945055 100.069231,0.754945055 C45.2406593,0.754945055 0.797802198,45.2 0.797802198,100.026374" id="Fill-1" fill="#1BA8C9"></path>
                <path d="M102.042857,35.4472527 C101.858242,28.3582418 71.5054945,24.4582418 38.3032967,22.3098901 C29.5318681,29.2912088 21.9703297,37.7263736 15.9813187,47.2516484 C56.7120879,46.6912088 102.268132,44.1285714 102.042857,35.4472527" id="Fill-2" fill="#2AC4DD"></path>
                <path d="M85.7835165,73.2582418 C85.5065934,83.9076923 154.149451,85.3505495 198.236264,85.1813187 C196.815385,75.7032967 194.050549,66.6626374 190.143956,58.2604396 C146.495604,59.5901099 86.0428571,63.2461538 85.7835165,73.2582418" id="Fill-3" fill="#2AC4DD"></path>
                <path d="M127.691209,37.0483516 C127.51978,43.6692308 154.007692,46.7318681 184.664835,48.0604396 C179.604396,39.8384615 173.375824,32.4120879 166.210989,26.0076923 C144.301099,28.3450549 127.828571,31.832967 127.691209,37.0483516" id="Fill-4" fill="#2AC4DD"></path>
                <path d="M145.724176,168.628571 C145.406593,156.317582 63.9043956,152.583516 15.1395604,151.451648 C22.4747253,163.541758 32.3208791,173.936264 43.9538462,181.918681 C90.8549451,181.443956 145.986813,178.735165 145.724176,168.628571" id="Fill-5" fill="#2AC4DD"></path>
                <path d="M100.069231,194.072527 C125.423077,194.072527 148.461538,183.985714 165.394505,167.617582 C151.453846,175.797802 135.23956,180.493407 117.943956,180.493407 C113.513187,180.493407 109.156044,180.178022 104.885714,179.581319 C89.4065934,180.842857 71.2593407,181.491209 53.6406593,181.79011 C67.3450549,189.604396 83.1945055,194.072527 100.069231,194.072527" id="Fill-6" fill="#008AAF"></path>
                <path d="M52.621978,18.8538462 C50.4813187,20.1098901 48.4010989,21.4593407 46.3714286,22.8736264 C47.1021978,22.9296703 47.8318681,22.9857143 48.5582418,23.043956 C49.8714286,21.6054945 51.2230769,20.2065934 52.621978,18.8538462" id="Fill-7" fill="#008AAF"></path>
                <path d="M51.2208791,152.656044 C34.3428571,135.648352 23.8967033,112.241758 23.8967033,86.4450549 C23.8967033,72.3285714 27.0263736,58.9296703 32.6252747,46.9021978 C29.2,47.0010989 25.7637363,47.0824176 22.343956,47.1461538 C12.0516484,62.2241758 6.02087912,80.432967 6.02087912,100.026374 C6.02087912,119.06044 11.710989,136.789011 21.4725275,151.608791 C30.7043956,151.853846 40.8417582,152.192308 51.2208791,152.656044" id="Fill-8" fill="#008AAF"></path>
                <path d="M48.5582418,23.043956 C47.8318681,22.9857143 47.1021978,22.9296703 46.3714286,22.8736264 C36.9681319,29.4395604 28.8120879,37.6703297 22.343956,47.1461538 C25.7637363,47.0824176 29.2,47.0010989 32.6252747,46.9021978 C36.7054945,38.1318681 42.1032967,30.0989011 48.5582418,23.043956" id="Fill-9" fill="#00AAC6"></path>
                <path d="M53.6406593,181.79011 C71.2593407,181.491209 89.4065934,180.842857 104.885714,179.581319 C84.0461538,176.673626 65.3714286,166.916484 51.2208791,152.656044 C40.8417582,152.192308 30.7043956,151.853846 21.4725275,151.608791 C29.6472527,164.027473 40.6857143,174.402198 53.6406593,181.79011" id="Fill-10" fill="#00AAC6"></path>
                <path d="M102.042857,35.4472527 C102.178022,40.7351648 85.3296703,43.7527473 62.9318681,45.4296703 C54.8230769,56.6186813 50.021978,70.356044 50.021978,85.2 C50.021978,122.652747 80.4923077,153.121978 117.943956,153.121978 C155.397802,153.121978 185.869231,122.652747 185.869231,85.2 L185.869231,85.1813187 C142.406593,85.0197802 85.5318681,82.9549451 85.7835165,73.2582418 C86.0230769,63.9714286 138.059341,60.1527473 180.430769,58.5857143 C178.772527,54.7054945 176.76044,51.0098901 174.438462,47.5373626 C148.349451,45.9912088 127.541758,42.9208791 127.691209,37.0483516 C127.801099,32.8758242 138.369231,29.8087912 153.807692,27.5505495 C143.391209,21.0494505 131.104396,17.2769231 117.943956,17.2769231 C105.104396,17.2769231 93.0835165,20.8604396 82.8296703,27.0813187 C94.432967,29.2010989 101.950549,31.9340659 102.042857,35.4472527" id="Fill-11" fill="#3DC4E2"></path>
                <path d="M102.042857,35.4472527 C101.950549,31.9340659 94.432967,29.2010989 82.8296703,27.0813187 C75.0318681,31.8087912 68.2692308,38.0703297 62.9318681,45.4296703 C85.3296703,43.7527473 102.178022,40.7351648 102.042857,35.4472527" id="Fill-12" fill="#4DDDF3"></path>
                <path d="M85.7835165,73.2582418 C85.5318681,82.9549451 142.406593,85.0197802 185.869231,85.1813187 C185.863736,75.7461538 183.925275,66.7593407 180.430769,58.5857143 C138.059341,60.1527473 86.0230769,63.9714286 85.7835165,73.2582418" id="Fill-13" fill="#4DDDF3"></path>
                <path d="M127.691209,37.0483516 C127.541758,42.9208791 148.349451,45.9912088 174.438462,47.5373626 C169.061538,39.5010989 162.017582,32.678022 153.807692,27.5505495 C138.369231,29.8087912 127.801099,32.8758242 127.691209,37.0483516" id="Fill-14" fill="#4DDDF3"></path>
            </g>
        </g>
    </g>
</svg>