<?xml version="1.0" encoding="UTF-8" standalone="no"?>
<svg width="87px" height="166px" viewBox="0 0 87 166" version="1.1" xmlns="http://www.w3.org/2000/svg" xmlns:xlink="http://www.w3.org/1999/xlink">
    <!-- Generator: Sketch 3.7.2 (28276) - http://www.bohemiancoding.com/sketch -->
    <title>persona</title>
    <desc>Created with Sketch.</desc>
    <defs>
        <path d="M67.2919898,85.0548813 C71.2953961,87.5613062 75.3768993,91.6455498 76.6956866,97.5880004 C78.4975895,105.688572 79.7909591,123.104257 79.8414734,123.845213 C80.1154033,127.524851 77.3571189,130.734639 73.6824576,130.99963 C73.5129465,131.015258 73.3495378,131.021373 73.1861291,131.022392 C69.7226786,131.024091 66.7982734,128.346323 66.5416336,124.826019 C66.5273946,124.676877 65.5164305,111.038333 64.1637321,103.048514 C64.1637321,103.048514 64.1739027,122.039876 64.1711905,122.043953 L64.1908538,160.246145 C64.1918709,163.789211 61.3267945,166.660286 57.7962176,166.659607 L52.5369667,166.665382 C49.0023215,166.664363 46.135889,163.795666 46.135889,160.258375 L46.1213111,129.942036 C46.1213111,129.942036 45.6375949,129.280012 43.9664877,129.280013 C42.2953806,129.280014 41.8153905,129.945433 41.8153905,129.945433 L41.8309855,160.260074 C41.8333587,163.796685 38.9676042,166.671158 35.4404176,166.671498 L30.1787934,166.674215 C26.6438093,166.676933 23.780428,163.807556 23.7756817,160.267208 C23.7756817,160.267208 23.7600867,122.053805 23.7597476,122.046671 L23.7529672,103.064821 C22.4067101,111.056678 21.4076118,124.695562 21.3964241,124.848441 C21.1397843,128.369425 18.215379,131.047533 14.7526066,131.047872 C14.5898759,131.052968 14.4251111,131.040398 14.2576342,131.028847 C10.584668,130.767254 7.82434946,127.559503 8.09048186,123.879186 C8.1460815,123.139589 9.42182193,105.720846 11.2152492,97.6165379 C12.5398039,91.6291237 16.6687511,87.5240772 20.6978195,85.0186795 C19.9083552,84.8865294 19.134608,84.6672207 18.3899755,84.3635899 C13.3571913,82.3068519 8.81463322,79.6861587 4.88401016,76.5748924 C2.27286139,74.5093214 0.746922593,71.3572873 0.747261616,68.0217978 L0.741837261,49.719412 C0.734378773,37.3120571 6.23060623,26.1637493 14.9248298,18.5534112 L14.9190665,2.47762935 C14.9160153,1.52536036 15.6805103,0.75416856 16.8342027,0.755527488 C17.7810916,0.75416856 18.5496549,1.52603982 18.5530451,2.47457176 L18.5591475,15.705777 C25.3070448,11.0038851 33.5154497,8.23404954 42.3608771,8.23167142 L45.952478,8.2282741 C68.9127546,8.21910133 87.6013519,26.8112786 87.6094884,49.6817018 L87.618981,67.9837479 C87.6213542,71.3175387 86.1055861,74.4712715 83.4917251,76.5375219 C79.5644923,79.6569418 75.0266805,82.2779747 69.9915232,84.3404881 C69.1248077,84.6945847 68.2168978,84.934146 67.2919898,85.0548813 L67.2919898,85.0548813 L67.2919898,85.0548813 Z" id="path-1"></path>
        <path d="M67.2919898,85.0548813 C71.2953961,87.5613062 75.3768993,91.6455498 76.6956866,97.5880004 C78.4975895,105.688572 79.7909591,123.104257 79.8414734,123.845213 C80.1154033,127.524851 77.3571189,130.734639 73.6824576,130.99963 C73.5129465,131.015258 73.3495378,131.021373 73.1861291,131.022392 C69.7226786,131.024091 66.7982734,128.346323 66.5416336,124.826019 C66.5273946,124.676877 65.5164305,111.038333 64.1637321,103.048514 C64.1637321,103.048514 64.1739027,122.039876 64.1711905,122.043953 L64.1908538,160.246145 C64.1918709,163.789211 61.3267945,166.660286 57.7962176,166.659607 L52.5369667,166.665382 C49.0023215,166.664363 46.135889,163.795666 46.135889,160.258375 L46.1213111,129.942036 C46.1213111,129.942036 45.6375949,129.280012 43.9664877,129.280013 C42.2953806,129.280014 41.8153905,129.945433 41.8153905,129.945433 L41.8309855,160.260074 C41.8333587,163.796685 38.9676042,166.671158 35.4404176,166.671498 L30.1787934,166.674215 C26.6438093,166.676933 23.780428,163.807556 23.7756817,160.267208 C23.7756817,160.267208 23.7600867,122.053805 23.7597476,122.046671 L23.7529672,103.064821 C22.4067101,111.056678 21.4076118,124.695562 21.3964241,124.848441 C21.1397843,128.369425 18.215379,131.047533 14.7526066,131.047872 C14.5898759,131.052968 14.4251111,131.040398 14.2576342,131.028847 C10.584668,130.767254 7.82434946,127.559503 8.09048186,123.879186 C8.1460815,123.139589 9.42182193,105.720846 11.2152492,97.6165379 C12.5398039,91.6291237 16.6687511,87.5240772 20.6978195,85.0186795 C19.9083552,84.8865294 19.134608,84.6672207 18.3899755,84.3635899 C13.3571913,82.3068519 8.81463322,79.6861587 4.88401016,76.5748924 C2.27286139,74.5093214 0.746922593,71.3572873 0.747261616,68.0217978 L0.741837261,49.719412 C0.734378773,37.3120571 6.23060623,26.1637493 14.9248298,18.5534112 L14.9190665,2.47762935 C14.9160153,1.52536036 15.6805103,0.75416856 16.8342027,0.755527488 C17.7810916,0.75416856 18.5496549,1.52603982 18.5530451,2.47457176 L18.5591475,15.705777 C25.3070448,11.0038851 33.5154497,8.23404954 42.3608771,8.23167142 L45.952478,8.2282741 C68.9127546,8.21910133 87.6013519,26.8112786 87.6094884,49.6817018 L87.618981,67.9837479 C87.6213542,71.3175387 86.1055861,74.4712715 83.4917251,76.5375219 C79.5644923,79.6569418 75.0266805,82.2779747 69.9915232,84.3404881 C69.1248077,84.6945847 68.2168978,84.934146 67.2919898,85.0548813 L67.2919898,85.0548813 L67.2919898,85.0548813 Z" id="path-3"></path>
    </defs>
    <g id="Symbols" stroke="none" stroke-width="1" fill="none" fill-rule="evenodd">
        <g id="persona" transform="translate(-1.000000, -1.000000)">
            <g>
                <path d="M67.6277888,85.3136223 C71.6311951,87.8200472 75.7126983,91.9042908 77.0314856,97.8467414 C78.8333885,105.947313 80.1267581,123.362998 80.1772724,124.103954 C80.4512023,127.783592 77.6929179,130.99338 74.0182566,131.258371 C73.8487455,131.273999 73.6853368,131.280114 73.5219281,131.281133 C70.0584776,131.282832 67.1340724,128.605064 66.8774326,125.08476 C66.8631936,124.935618 65.8522295,111.297074 64.4995311,103.307255 C64.4995311,103.307255 64.5097017,122.298617 64.5069895,122.302694 L64.5266528,160.504886 C64.5276699,164.047952 61.6625935,166.919027 58.1320166,166.918348 L52.8727657,166.924123 C49.3381205,166.923104 46.471688,164.054407 46.471688,160.517116 L46.4571101,130.200777 C46.4571101,130.200777 45.9733939,129.538753 44.3022867,129.538754 C42.6311796,129.538755 42.1511895,130.204174 42.1511895,130.204174 L42.1667845,160.518815 C42.1691577,164.055426 39.3034032,166.929899 35.7762166,166.930239 L30.5145924,166.932956 C26.9796083,166.935674 24.116227,164.066297 24.1114807,160.525949 C24.1114807,160.525949 24.0958857,122.312546 24.0955466,122.305412 L24.0887662,103.323562 C22.7425091,111.315419 21.7434108,124.954303 21.7322231,125.107182 C21.4755833,128.628166 18.551178,131.306274 15.0884056,131.306613 C14.9256749,131.311709 14.7609101,131.299139 14.5934332,131.287588 C10.920467,131.025995 8.16014846,127.818244 8.42628086,124.137927 C8.4818805,123.39833 9.75762093,105.979587 11.5510482,97.8752789 C12.8756029,91.8878647 17.0045501,87.7828182 21.0336185,85.2774205 C20.2441542,85.1452704 19.470407,84.9259617 18.7257745,84.6223309 C13.6929903,82.5655929 9.15043222,79.9448997 5.21980916,76.8336334 C2.60866039,74.7680624 1.08272159,71.6160283 1.08306062,68.2805388 L1.07763626,49.978153 C1.07017777,37.5707981 6.56640523,26.4224903 15.2606288,18.8121522 L15.2548655,2.73637035 C15.2518143,1.78410136 16.0163093,1.01290956 17.1700017,1.01426849 C18.1168906,1.01290956 18.8854539,1.78478082 18.8888441,2.73331276 L18.8949465,15.964518 C25.6428438,11.2626261 33.8512487,8.49279054 42.6966761,8.49041242 L46.288277,8.4870151 C69.2485536,8.47784233 87.9371509,27.0700196 87.9452874,49.9404428 L87.95478,68.2424889 C87.9571532,71.5762797 86.4413851,74.7300125 83.8275241,76.7962629 C79.9002913,79.9156828 75.3624795,82.5367157 70.3273222,84.5992291 C69.4606067,84.9533257 68.5526968,85.192887 67.6277888,85.3136223 L67.6277888,85.3136223 L67.6277888,85.3136223 Z" id="body" fill="#F7F7F7"></path>
                <g id="lighter-Clipped" transform="translate(0.335799, 0.258741)">
                    <mask id="mask-2" fill="white">
                        <use xlink:href="#path-1"></use>
                    </mask>
                    <g id="path-1"></g>
                    <path d="M58.1203905,26.2389936 C63.7161632,28.9772037 70.243717,27.7503596 72.7000901,23.4987605 C75.1564632,19.2471615 72.6114769,13.5808016 67.0157042,10.8425915 C61.4199315,8.10438137 54.8923776,9.33122552 52.4360046,13.5828246 C49.9796315,17.8344236 52.5246177,23.5007835 58.1203905,26.2389936 L58.1203905,26.2389936 L58.1203905,26.2389936 Z" id="lighter" fill="#FFFFFF" mask="url(#mask-2)"></path>
                </g>
                <g id="shadow-Clipped" transform="translate(0.335799, 0.258741)">
                    <mask id="mask-4" fill="white">
                        <use xlink:href="#path-3"></use>
                    </mask>
                    <g id="path-1"></g>
                    <path d="M25.1331089,82.8433711 C25.1798306,82.8046562 25.2043385,82.7847253 25.2043385,82.7847253 L25.0797251,82.823391 C23.9844196,82.4199849 20.6778521,81.5718165 17.5757009,80.160997 C13.5112753,78.312547 6.22084759,74.0829661 4.65258934,69.6519765 C3.08433108,65.2209869 2.58411728,56.1982839 3.89120863,43.5424164 C5.19829997,30.8865488 14.9669226,18.5217727 14.9669226,18.5217727 L8.281276,23.8468201 L-2.36774801,32.8749393 L-4.27660411,72.9888852 C-4.27660411,72.9888852 10.6001038,83.6669816 17.0440563,85.3167435 L15.7912699,85.7054651 L11.4725898,89.5250492 L5.77970426,123.336505 L8.22974644,130.622232 L13.495565,134.304772 L21.2280158,131.722359 L22.0205656,123.525696 C22.0205656,123.525696 21.8385783,125.339255 20.1353377,126.823809 C18.4320971,128.308363 16.4860392,128.952014 14.0690513,128.235685 C11.6520635,127.519355 10.7504218,125.236976 10.7504218,123.336505 C10.7504218,121.436034 12.6348956,98.8681921 15.7912699,93.3705808 C18.0296061,89.4719612 21.8270646,85.7792086 23.8467102,83.9609224 C24.6667596,83.5202513 25.0792871,83.1582877 25.3885881,83.0739274 C25.537911,83.0332003 25.432419,82.9573404 25.1331089,82.8433711 L25.1331089,82.8433711 L25.1331089,82.8433711 L25.1331089,82.8433711 L25.1331089,82.8433711 L25.1331089,82.8433711 L25.1331089,82.8433711 L25.1331089,82.8433711 Z M17.7310728,1.01518742 C17.468236,0.851303698 17.1581971,0.756747949 16.8262416,0.757224355 L16.6231673,0.755525695 C15.6725491,0.755865427 14.9080541,1.52705723 14.9111053,2.47932622 L14.9168687,18.555108 C14.9168688,18.5551082 15.2999712,18.2544272 15.8174105,17.8484751 L15.8119929,2.73729048 C15.8089417,1.78502148 16.5734367,1.01382969 17.5240549,1.01348995 L17.7271292,1.01518861 C17.728444,1.01518673 17.7297586,1.01518633 17.7310728,1.01518742 L17.7310728,1.01518742 L17.7310728,1.01518742 L17.7310728,1.01518742 L17.7310728,1.01518742 L17.7310728,1.01518742 Z M23.7723822,103.065087 C23.7723822,103.065087 24.7692279,104.622256 25.117618,106.313887 C25.4660081,108.005518 25.3370585,157.717044 25.5959632,160.137223 C25.8548678,162.557401 27.1149541,163.939172 28.3147132,164.383808 C29.5144722,164.828444 34.5784457,165.43733 37.3007148,164.734478 C40.0229839,164.031626 40.8190528,163.098269 41.6822358,161.55124 C42.5454188,160.00421 43.1401454,156.676118 43.1401454,156.676118 L43.779112,168.436165 L20.7411243,172.48701 L18.5462163,145.510095 L23.2602915,116.715842 L23.7723822,103.065087 L23.7723822,103.065087 L23.7723822,103.065087 L23.7723822,103.065087 L23.7723822,103.065087 Z M41.8799334,129.917491 C41.8799334,129.917491 42.8630169,128.866992 44.504422,128.866992 C46.1458271,128.866992 47.5916084,129.588989 47.7647351,130.39475 C47.9378619,131.20051 47.8514556,157.957878 48.2013539,160.449097 C48.5512522,162.940317 49.6756021,164.263391 51.3024281,164.870514 C52.9292541,165.477637 58.2403182,165.713684 60.8886863,164.676285 C63.5370545,163.638886 64.4464884,161.106352 64.4464884,161.106352 L63.8261228,166.622605 L49.0479469,168.856616 L44.1330321,164.870514 L41.8799334,129.917491 L41.8799334,129.917491 L41.8799334,129.917491 L41.8799334,129.917491 L41.8799334,129.917491 Z M76.0373723,79.2936425 C67.7690141,83.1240591 62.1755524,82.8920424 62.8424203,83.0739274 C63.5092883,83.2558123 65.3015914,84.107531 68.6375287,85.6949333 C71.9734659,87.2823356 87.0169396,74.733671 87.9914767,70.5540956 C87.9914767,70.5540956 84.3057305,75.463226 76.0373723,79.2936425 L76.0373723,79.2936425 L76.0373723,79.2936425 L76.0373723,79.2936425 L76.0373723,79.2936425 Z M64.1736331,103.185315 C64.1736331,103.185315 64.8539489,103.526412 65.1425146,104.645181 C65.4310802,105.76395 67.6329006,123.882664 67.9773946,125.342404 C68.3218886,126.802144 69.3007617,128.003542 71.1201952,128.596306 C72.9396286,129.189069 75.7968176,129.076463 77.0561495,128.165777 C78.3154813,127.255092 80.1210273,125.342404 80.2797635,123.312951 C80.4384997,121.283498 81.7056242,123.826234 81.7056242,123.826234 L79.7492604,131.544756 L67.9773946,132.470052 L65.8777534,125.487887 L64.1736331,103.185315 L64.1736331,103.185315 L64.1736331,103.185315 Z M45.9307681,79.4711568 L45.9310857,79.4711567 L42.4281566,79.4731951 C34.0553848,79.4769668 25.4826257,76.9061505 18.9215786,72.512151 C12.0567712,67.9147202 7.98709225,61.7432752 7.9848334,55.1960104 L7.97940891,46.4676629 C7.97697626,39.9184918 12.041489,33.7418725 18.9019281,29.1369841 C25.4588244,24.7358408 34.0285512,22.1564069 42.4010775,22.1522922 L45.9023606,22.1529718 C54.2747294,22.1486855 62.8465619,24.7192105 69.4069343,29.1136062 C76.2713153,33.7116389 80.341089,39.8847679 80.3447379,46.4357728 L80.3488062,55.1624262 C80.3521078,61.709825 76.2879751,67.8855221 69.4280115,72.4895172 C62.8711288,76.8901027 54.3016305,79.4685853 45.9307681,79.4711568 L45.9307681,79.4711568 L45.9307681,79.4711568 Z" id="shadow" fill-opacity="0.24" fill="#000000" mask="url(#mask-4)"></path>
                </g>
                <g id="pearl_3" transform="translate(32.531065, 107.281274)">
                    <path d="M5.44099789,2.80397547 C5.44031984,4.30151444 4.22899362,5.51911417 2.73187171,5.51877444 C1.23712295,5.52217176 0.0227455334,4.30457203 0.0210504225,2.80669333 C0.020033356,1.30439812 1.23271567,0.0905354314 2.72949856,0.0895162352 C4.22797656,0.0878175748 5.442693,1.30405838 5.44099789,2.80397547" id="Fill-8" fill="#231814"></path>
                    <path d="M3.48770304,2.05247225 C3.80954286,2.2679568 3.92645817,2.47446156 4.02364195,2.63232501 C4.11727493,2.78442064 4.16138926,2.901909 4.20883417,3.00950957 C4.25627907,3.11711014 4.26909953,3.14184095 4.41030049,3.15832885 C4.55150145,3.17481675 4.6793041,3.07346433 4.69575571,2.93195188 C4.69678158,2.92312763 4.69794907,2.91018162 4.69899472,2.89338549 C4.71944175,2.56494827 4.64600538,2.16608543 4.39692024,1.77941761 C4.27100342,1.58395037 4.10685912,1.40801968 3.90180345,1.2569368 C3.85592122,1.22313125 3.80925804,1.19159101 3.76185877,1.16228164 C3.25470281,0.848681404 2.71794477,0.807516049 2.22961915,0.924303799 C2.13746043,0.946344439 2.06256016,0.941446153 1.93063048,1.08195727 C1.7987008,1.22246839 1.8268801,1.33302524 1.89276881,1.41855147 C1.95865753,1.50407771 2.02065011,1.51264293 2.56469546,1.65973168 C3.10874081,1.80682043 3.16586322,1.8369877 3.48770304,2.05247225 L3.48770304,2.05247225 Z" id="Shape" fill="#FFFFFF" opacity="0.900000036"></path>
                </g>
                <g id="pearl_2" transform="translate(32.531065, 100.781921)">
                    <path d="M5.44099789,2.80397547 C5.44031984,4.30151444 4.22899362,5.51911417 2.73187171,5.51877444 C1.23712295,5.52217176 0.0227455334,4.30457203 0.0210504225,2.80669333 C0.020033356,1.30439812 1.23271567,0.0905354314 2.72949856,0.0895162352 C4.22797656,0.0878175748 5.442693,1.30405838 5.44099789,2.80397547" id="Fill-8" fill="#231814"></path>
                    <path d="M3.48770304,2.05247225 C3.80954286,2.2679568 3.92645817,2.47446156 4.02364195,2.63232501 C4.11727493,2.78442064 4.16138926,2.901909 4.20883417,3.00950957 C4.25627907,3.11711014 4.26909953,3.14184095 4.41030049,3.15832885 C4.55150145,3.17481675 4.6793041,3.07346433 4.69575571,2.93195188 C4.69678158,2.92312763 4.69794907,2.91018162 4.69899472,2.89338549 C4.71944175,2.56494827 4.64600538,2.16608543 4.39692024,1.77941761 C4.27100342,1.58395037 4.10685912,1.40801968 3.90180345,1.2569368 C3.85592122,1.22313125 3.80925804,1.19159101 3.76185877,1.16228164 C3.25470281,0.848681404 2.71794477,0.807516049 2.22961915,0.924303799 C2.13746043,0.946344439 2.06256016,0.941446153 1.93063048,1.08195727 C1.7987008,1.22246839 1.8268801,1.33302524 1.89276881,1.41855147 C1.95865753,1.50407771 2.02065011,1.51264293 2.56469546,1.65973168 C3.10874081,1.80682043 3.16586322,1.8369877 3.48770304,2.05247225 L3.48770304,2.05247225 Z" id="Shape" fill="#FFFFFF" opacity="0.900000036"></path>
                </g>
                <g id="pearl_1" transform="translate(69.338757, 115.923077)">
                    <path d="M7.33902041,3.78210645 C7.33810584,5.80204273 5.70422396,7.44438656 3.68485021,7.44392832 C1.66867747,7.44851075 0.0306800217,5.80616692 0.0283935931,3.7857724 C0.027021736,1.75942072 1.66273276,0.122117559 3.68164921,0.120742829 C5.7028521,0.118451613 7.34130684,1.75896247 7.33902041,3.78210645" id="Fill-8" fill="#231814"></path>
                    <path d="M4.70434364,2.76845094 C5.13845316,3.05910452 5.29615289,3.33764583 5.42723797,3.55057792 C5.55353363,3.75573016 5.61303668,3.91420283 5.67703213,4.05933849 C5.74102758,4.20447414 5.75832029,4.23783198 5.9487774,4.26007147 C6.13923451,4.28231096 6.31161949,4.14560305 6.33381003,3.9547258 C6.33519376,3.94282331 6.33676851,3.92536126 6.33817892,3.902706 C6.36575864,3.45969766 6.26670494,2.92169663 5.93072963,2.40014468 C5.76088834,2.1364912 5.5394844,1.89918933 5.26289767,1.69540312 C5.20101001,1.64980494 5.13806899,1.60726229 5.07413509,1.56772872 C4.39006425,1.14473306 3.66606504,1.08920769 3.00739327,1.24673536 C2.88308616,1.27646459 2.78205789,1.2698576 2.60410623,1.45938423 C2.42615456,1.64891085 2.46416385,1.79803404 2.55303701,1.91339501 C2.64191016,2.02875598 2.72552805,2.04030907 3.45935667,2.23870785 C4.19318528,2.43710663 4.27023411,2.47779736 4.70434364,2.76845094 L4.70434364,2.76845094 Z" id="Shape" fill="#FFFFFF" opacity="0.900000036"></path>
                </g>
                <path d="M79.702602,55.6243322 C79.7090874,68.4944422 62.9170931,78.9407955 46.2155527,78.9459299 L42.6888755,78.9479836 C25.9839217,78.955514 9.18168735,68.5273021 9.17724999,55.6568498 L9.17178862,46.8630733 C9.16700993,33.9888559 25.9593456,23.5428448 42.66191,23.5346299 L46.1879045,23.5353145 C62.8911516,23.5267572 79.6913379,33.9539423 79.698506,46.8319249 L79.702602,55.6243322" id="Clip-3" fill="#1F2830"></path>
                <path d="M62.24944,37.8919926 C63.6632975,37.8919926 64.8094554,36.7426287 64.8094554,35.3248164 C64.8094554,33.9070042 63.6632975,32.7576402 62.24944,32.7576402 C60.8355826,32.7576402 59.6894247,33.9070042 59.6894247,35.3248164 C59.6894247,36.7426287 60.8355826,37.8919926 62.24944,37.8919926 L62.24944,37.8919926 Z M65.4178415,41.9571595 C69.1696855,46.4273477 69.3991689,54.8083102 66.7584764,61.1477003 C66.3225084,62.194309 66.8151638,63.3971635 67.858853,63.834351 C68.9025423,64.2715385 70.1020416,63.7775051 70.5380097,62.7308964 C73.7137089,55.1071399 73.4407221,45.1373882 68.5516378,39.3122189 C67.8232949,38.4444243 66.5313322,38.3330279 65.6659582,39.0634081 C64.8005842,39.7937883 64.6894986,41.089365 65.4178415,41.9571595 L65.4178415,41.9571595 Z" id="Oval-1" fill="#FFFFFF" opacity="0.15"></path>
            </g>
        </g>
    </g>
</svg>