<?xml version="1.0" encoding="UTF-8" standalone="no"?>
<svg width="200px" height="200px" viewBox="0 0 200 200" version="1.1" xmlns="http://www.w3.org/2000/svg" xmlns:xlink="http://www.w3.org/1999/xlink">
    <!-- Generator: Sketch 3.7.2 (28276) - http://www.bohemiancoding.com/sketch -->
    <title>planet_blue</title>
    <desc>Created with Sketch.</desc>
    <defs></defs>
    <g id="Symbols" stroke="none" stroke-width="1" fill="none" fill-rule="evenodd">
        <g id="planet_blue">
            <g>
                <path d="M199.618519,97.8938272 C199.618519,97.8938272 157.332099,105.701235 103.987654,105.701235 C55.2604938,105.701235 0.586419753,97.8938272 0.586419753,97.8938272 C0.569135802,98.6024691 0.551851852,99.3111111 0.551851852,100.024691 C0.551851852,155.002469 45.1222222,199.574074 100.1,199.574074 C136.130864,199.574074 167.68642,180.430864 185.162963,151.766667 C150.618519,150.669136 118.37284,147.688889 118.562963,140.37284 C118.769136,132.297531 157.992593,128.348148 196.107407,126.41358 C198.41358,118.008642 199.653086,109.161728 199.653086,100.024691 C199.653086,99.3111111 199.632099,98.6024691 199.618519,97.8938272 L199.618519,97.8938272 Z M102.551852,145.019753 C95.6259259,191.892593 24.708642,157.406173 24.2111111,142.311111 C23.4728395,120.108642 109.47284,98.1493827 102.551852,145.019753 L102.551852,145.019753 Z" id="Fill-1" fill="#216DDB"></path>
                <path d="M24.2111111,142.311111 C24.708642,157.406173 95.6259259,191.892593 102.551852,145.019753 C109.47284,98.1493827 23.4728395,120.108642 24.2111111,142.311111" id="Fill-2" fill="#0E5AB6"></path>
                <path d="M160.476543,20.8777778 C143.72963,8.07901235 122.806173,0.474074074 100.1,0.474074074 C77.3938272,0.474074074 56.4740741,8.07901235 39.7234568,20.8777778 C39.7234568,20.8777778 72.0259259,25.2740741 99.7925926,25.2740741 C127.560494,25.2740741 160.476543,20.8777778 160.476543,20.8777778" id="Fill-3" fill="#216DDB"></path>
                <path d="M199.618519,97.8938272 C198.960494,66.4888889 183.762963,38.662963 160.476543,20.8777778 C160.476543,20.8777778 127.560494,25.2740741 99.7925926,25.2740741 C72.0259259,25.2740741 39.7234568,20.8777778 39.7234568,20.8777778 C28.8432099,29.1901235 19.7283951,39.6950617 13.0395062,51.7320988 C63.3358025,53.2469136 129.232099,57.0851852 129.540741,66.8024691 C129.87037,77.1901235 54.2382716,78.7382716 2.88024691,78.591358 C1.51481481,84.8296296 0.720987654,91.2790123 0.586419753,97.8938272 C0.586419753,97.8938272 55.2604938,105.701235 103.987654,105.701235 C157.332099,105.701235 199.618519,97.8938272 199.618519,97.8938272" id="Fill-4" fill="#0E5AB6"></path>
                <path d="M129.540741,66.8024691 C129.232099,57.0851852 63.3358025,53.2469136 13.0395062,51.7320988 C8.42839506,60.0296296 4.97407407,69.0567901 2.88024691,78.591358 C54.2382716,78.7382716 129.87037,77.1901235 129.540741,66.8024691" id="Fill-5" fill="#216DDB"></path>
                <path d="M118.562963,140.37284 C118.37284,147.688889 150.618519,150.669136 185.162963,151.766667 C189.920988,143.958025 193.634568,135.441975 196.107407,126.41358 C157.992593,128.348148 118.769136,132.297531 118.562963,140.37284" id="Fill-6" fill="#0E5AB6"></path>
                <path d="M5.78888889,100.024691 C5.78888889,152.02716 48.0987654,194.334568 100.1,194.334568 C124.893827,194.334568 148.07037,184.855556 165.535802,167.948148 C151.348148,176.238272 135.07037,180.716049 118.02716,180.716049 C101.283951,180.716049 85.5518519,176.32716 71.908642,168.644444 C49.9876543,167.292593 24.508642,151.339506 24.2111111,142.311111 C24.0530864,137.582716 27.8382716,132.869136 33.8123457,128.825926 C29.437037,120.176543 26.3530864,110.765432 24.8209877,100.845679 C16.6345679,99.9654321 10.0481481,99.145679 5.81358025,98.5975309 C5.80864198,99.0728395 5.78888889,99.545679 5.78888889,100.024691" id="Fill-7" fill="#004AB7"></path>
                <path d="M24.2111111,142.311111 C24.508642,151.339506 49.9876543,167.292593 71.908642,168.644444 C55.5987654,159.462963 42.2790123,145.571605 33.8123457,128.825926 C27.8382716,132.869136 24.0530864,137.582716 24.2111111,142.311111" id="Fill-8" fill="#003484"></path>
                <path d="M49.1802469,22.0234568 C50.2654321,20.8604938 51.3814815,19.7296296 52.5222222,18.6283951 C50.7962963,19.6407407 49.1,20.7037037 47.4481481,21.8259259 C47.9987654,21.8901235 48.5790123,21.9555556 49.1802469,22.0234568" id="Fill-9" fill="#004AB7"></path>
                <path d="M19.0148148,51.9259259 C22.6567901,52.0432099 26.3580247,52.1765432 30.0975309,52.3209877 C34.5,41.0074074 41.0209877,30.7419753 49.1802469,22.0234568 C48.5790123,21.9555556 47.9987654,21.8901235 47.4481481,21.8259259 C35.8938272,29.6259259 26.162963,39.9222222 19.0148148,51.9259259" id="Fill-10" fill="#003484"></path>
                <path d="M8.25555556,78.6012346 C6.75432099,85.0395062 5.91851852,91.7308642 5.81358025,98.5975309 C10.0481481,99.145679 16.6345679,99.9654321 24.8209877,100.845679 C24.0962963,96.1382716 23.717284,91.3135802 23.717284,86.4061728 C23.717284,83.7592593 23.8296296,81.1382716 24.045679,78.545679 C18.645679,78.5864198 13.3530864,78.6012346 8.25555556,78.6012346" id="Fill-11" fill="#003484"></path>
                <path d="M8.25555556,78.6012346 C13.3530864,78.6012346 18.645679,78.5864198 24.045679,78.545679 C24.8074074,69.3728395 26.8851852,60.5691358 30.0975309,52.3209877 C26.3580247,52.1765432 22.6567901,52.0432099 19.0148148,51.9259259 C14.1444444,60.1024691 10.4765432,69.0765432 8.25555556,78.6012346" id="Fill-12" fill="#004AB7"></path>
                <path d="M52.4259259,103.439506 C53.9481481,108.891358 56.1296296,114.064198 58.8802469,118.874074 C81.582716,114.193827 106.396296,118.990123 102.551852,145.019753 C102.223457,147.245679 101.748148,149.282716 101.148148,151.149383 C106.546914,152.530864 112.201235,153.27037 118.02716,153.27037 C126.449383,153.27037 134.604938,151.72963 142.206173,148.853086 C127.962963,147.044444 118.458025,144.349383 118.562963,140.37284 C118.723457,134.093827 142.474074,130.311111 170.950617,128.02716 C170.958025,128.012346 170.971605,128.001235 170.981481,127.988889 L172.161728,126.445679 C175.916049,121.540741 178.974074,116.180247 181.259259,110.507407 C181.480247,109.950617 181.916049,108.807407 182.065432,108.408642 C182.154321,108.162963 182.245679,107.909877 182.337037,107.641975 C182.496296,107.188889 182.648148,106.735802 182.783951,106.316049 L183.058025,105.445679 C183.237037,104.871605 183.406173,104.292593 183.577778,103.685185 L183.848148,102.718519 C184.066667,101.891358 184.266667,101.061728 184.453086,100.22963 C167.528395,102.528395 138.009877,105.701235 103.987654,105.701235 C86.6419753,105.701235 68.5444444,104.712346 52.4259259,103.439506" id="Fill-13" fill="#458FF3"></path>
                <path d="M58.8802469,118.874074 C67.9234568,134.67037 83.0975309,146.530864 101.148148,151.149383 C101.748148,149.282716 102.223457,147.245679 102.551852,145.019753 C106.396296,118.990123 81.582716,114.193827 58.8802469,118.874074" id="Fill-14" fill="#317DD2"></path>
                <path d="M145.028395,22.6407407 C136.745679,19.045679 127.616049,17.0444444 118.02716,17.0444444 C106.530864,17.0444444 95.6962963,19.9185185 86.1851852,24.9703704 C90.737037,25.1580247 95.3246914,25.2740741 99.7925926,25.2740741 C115.533333,25.2740741 132.91358,23.862963 145.028395,22.6407407" id="Fill-15" fill="#458FF3"></path>
                <path d="M145.028395,22.6407407 C132.91358,23.862963 115.533333,25.2740741 99.7925926,25.2740741 C95.3246914,25.2740741 90.737037,25.1580247 86.1851852,24.9703704 C74.0296296,31.4271605 64.0567901,41.4604938 57.662963,53.6567901 C95.3901235,55.891358 129.320988,59.8345679 129.540741,66.8024691 C129.777778,74.2395062 91.1074074,77.1444444 50.2753086,78.1407407 C50.0358025,80.4481481 49.9135802,82.7901235 49.9135802,85.1567901 C49.9135802,91.491358 50.8024691,97.6160494 52.4259259,103.439506 C68.5444444,104.712346 86.6419753,105.701235 103.987654,105.701235 C138.009877,105.701235 167.528395,102.528395 184.453086,100.22963 C185.57037,95.291358 186.137037,90.2333333 186.137037,85.1567901 C186.137037,57.1888889 169.188889,33.1148148 145.028395,22.6407407" id="Fill-16" fill="#317DD2"></path>
                <path d="M129.540741,66.8024691 C129.320988,59.8345679 95.3901235,55.891358 57.662963,53.6567901 C53.754321,61.1197531 51.1716049,69.3851852 50.2753086,78.1407407 C91.1074074,77.1444444 129.777778,74.2395062 129.540741,66.8024691" id="Fill-17" fill="#458FF3"></path>
                <path d="M118.562963,140.37284 C118.458025,144.349383 127.962963,147.044444 142.206173,148.853086 C153.31358,144.653086 163.218519,137.569136 170.950617,128.02716 C142.474074,130.311111 118.723457,134.093827 118.562963,140.37284" id="Fill-18" fill="#317DD2"></path>
            </g>
        </g>
    </g>
</svg>