<?xml version="1.0" encoding="UTF-8" standalone="no"?>
<svg width="200px" height="200px" viewBox="0 0 200 200" version="1.1" xmlns="http://www.w3.org/2000/svg" xmlns:xlink="http://www.w3.org/1999/xlink">
    <!-- Generator: Sketch 3.7.2 (28276) - http://www.bohemiancoding.com/sketch -->
    <title>planet_brown</title>
    <desc>Created with Sketch.</desc>
    <defs></defs>
    <g id="Symbols" stroke="none" stroke-width="1" fill="none" fill-rule="evenodd">
        <g id="planet_brown">
            <g>
                <path d="M106.520258,35.3036719 C106.520258,45.1582081 58.6725192,43.1024152 58.9979495,50.0343974 C59.6182682,63.2496074 153.928823,64.8409512 153.928823,49.3572074 C153.928823,42.2209097 131.69003,47.6573868 131.999663,38.2525553 C132.203978,32.0883359 150.078424,28.9593601 168.163504,27.3743353 C150.319601,10.5972954 126.297786,0.314117939 99.8736853,0.314117939 C72.8734988,0.314117939 48.3861822,11.0491065 30.4306422,28.4738475 C66.4375609,28.5602076 106.520258,29.8724607 106.520258,35.3036719" id="Fill-1" fill="#C27143"></path>
                <path d="M120.70544,86.5794873 C120.70544,96.0885829 91.6389286,89.6010396 91.6389286,98.4856038 C91.6389286,109.210061 191.234304,108.109495 190.649793,96.540394 C190.267491,88.9649233 164.943956,93.4640767 164.943956,85.5926646 C164.943956,81.0292676 182.311825,78.4068678 196.91617,77.0061482 C192.34856,57.6814838 182.155956,40.5316208 168.163504,27.3743353 C150.078424,28.9593601 132.203978,32.0883359 131.999663,38.2525553 C131.69003,47.6573868 153.928823,42.2209097 153.928823,49.3572074 C153.928823,64.8409512 59.6182682,63.2496074 58.9979495,50.0343974 C58.6725192,43.1024152 106.520258,45.1582081 106.520258,35.3036719 C106.520258,29.8724607 66.4375609,28.5602076 30.4306422,28.4738475 C15.8442014,42.631647 5.56944932,61.209612 1.77486836,82.0476855 C32.924555,81.0050446 120.70544,78.7565211 120.70544,86.5794873" id="Fill-2" fill="#A14424"></path>
                <path d="M100.967932,174.5689 C100.502429,166.449993 133.713175,167.46841 133.449882,157.761318 C133.244513,150.138455 52.5325228,154.481739 17.8178469,156.703933 C35.8155138,182.709925 65.8509438,199.752364 99.8736853,199.752364 C121.446873,199.752364 141.419239,192.900423 157.733936,181.25444 C132.435676,180.974296 101.243863,179.386112 100.967932,174.5689" id="Fill-3" fill="#A14424"></path>
                <path d="M37.6048541,137.668891 C37.6048541,130.214535 15.7641603,133.893267 15.7641603,128.211401 C15.7641603,115.52699 121.373151,117.016176 121.373151,127.635316 C121.373151,133.371947 102.020051,129.426762 102.020051,135.994347 C102.020051,144.327048 157.498025,144.751477 189.237489,144.312304 C195.861944,130.96966 199.593335,115.936674 199.593335,100.032714 C199.593335,92.1065372 198.66233,84.3973136 196.91617,77.0061482 C182.311825,78.4068678 164.943956,81.0292676 164.943956,85.5926646 C164.943956,93.4640767 190.267491,88.9649233 190.649793,96.540394 C191.234304,108.109495 91.6389286,109.210061 91.6389286,98.4856038 C91.6389286,89.6010396 120.70544,96.0885829 120.70544,86.5794873 C120.70544,78.7565211 32.924555,81.0050446 1.77486836,82.0476855 C0.711164017,87.8812087 0.1540357,93.892718 0.1540357,100.032714 C0.1540357,115.741837 3.79064076,130.596837 10.259227,143.8131 C24.291699,143.697251 37.6048541,142.351297 37.6048541,137.668891" id="Fill-4" fill="#E18C4B"></path>
                <path d="M189.237489,144.312304 C157.498025,144.751477 102.020051,144.327048 102.020051,135.994347 C102.020051,129.426762 121.373151,133.371947 121.373151,127.635316 C121.373151,117.016176 15.7641603,115.52699 15.7641603,128.211401 C15.7641603,133.893267 37.6048541,130.214535 37.6048541,137.668891 C37.6048541,142.351297 24.291699,143.697251 10.259227,143.8131 C12.4603578,148.3112 14.9900784,152.61657 17.8178469,156.703933 C52.5325228,154.481739 133.244513,150.138455 133.449882,157.761318 C133.713175,167.46841 100.502429,166.449993 100.967932,174.5689 C101.243863,179.386112 132.435676,180.974296 157.733936,181.25444 C171.042878,171.756929 181.91162,159.071465 189.237489,144.312304" id="Fill-5" fill="#C27143"></path>
                <path d="M52.2134115,18.4939837 C47.2455963,21.4091655 42.5726694,24.7719457 38.238864,28.5128149 C39.8881323,28.5265061 41.5363475,28.5423037 43.1845626,28.5602076 C45.9544066,24.9952183 48.9717462,21.6261191 52.2134115,18.4939837" id="Fill-6" fill="#A74C19"></path>
                <path d="M43.1845626,28.5602076 C41.5363475,28.5423037 39.8881323,28.5265061 38.238864,28.5128149 C22.51605,42.0797846 11.2997615,60.72094 7.16289949,81.8749652 C11.8948041,81.7285742 17.4387048,81.5705983 23.4860219,81.42842 C24.5191843,61.5761161 31.7144596,43.3299005 43.1845626,28.5602076" id="Fill-7" fill="#821A00"></path>
                <path d="M99.8736853,194.504405 C117.574358,194.504405 134.147082,189.59662 148.322785,181.090145 C141.560364,180.930063 134.706317,180.66361 128.388334,180.262351 C124.919183,180.650972 121.399481,180.86266 117.828172,180.86266 C92.6025815,180.86266 69.652897,170.922817 52.6926051,154.754511 C42.2093248,155.246342 32.2810665,155.810843 24.0431503,156.314259 C41.2762139,179.472472 68.8503794,194.504405 99.8736853,194.504405" id="Fill-8" fill="#821A00"></path>
                <path d="M37.6048541,137.668891 C37.6048541,130.214535 15.7641603,133.893267 15.7641603,128.211401 C15.7641603,125.267784 21.4491861,123.092982 30.1726149,121.612221 C25.7819383,110.721363 23.3564817,98.8331508 23.3564817,86.3899162 C23.3564817,84.7259035 23.4017681,83.0703161 23.4860219,81.42842 C17.4387048,81.5705983 11.8948041,81.7285742 7.16289949,81.8749652 C6.01388816,87.7516684 5.40304804,93.8221554 5.40304804,100.032714 C5.40304804,115.770273 9.2745106,130.618954 16.1117073,143.68356 C27.7787535,143.249653 37.6048541,141.689904 37.6048541,137.668891" id="Fill-9" fill="#CB6A21"></path>
                <path d="M15.7641603,128.211401 C15.7641603,133.893267 37.6048541,130.214535 37.6048541,137.668891 C37.6048541,141.689904 27.7787535,143.249653 16.1117073,143.68356 C18.428687,148.110045 21.0816288,152.33432 24.0431503,156.314259 C32.2810665,155.810843 42.2093248,155.246342 52.6926051,154.754511 C42.9939384,145.511868 35.261545,134.232389 30.1726149,121.612221 C21.4491861,123.092982 15.7641603,125.267784 15.7641603,128.211401" id="Fill-10" fill="#A74C19"></path>
                <path d="M165.489499,167.928647 C154.364837,174.455158 141.795221,178.762634 128.388334,180.262351 C134.706317,180.66361 141.560364,180.930063 148.322785,181.090145 C154.54177,177.357701 160.30473,172.940695 165.489499,167.928647" id="Fill-11" fill="#A74C19"></path>
                <path d="M153.928823,49.3572074 C153.928823,42.2209097 131.69003,47.6573868 131.999663,38.2525553 C132.154479,33.4827365 142.898946,30.5306936 156.125741,28.7044923 C145.200129,21.2669872 132.014407,16.9121184 117.828172,16.9121184 C103.061639,16.9121184 89.3914582,21.6398103 78.2109777,29.6428691 C94.7320966,30.6296918 106.520258,32.3600544 106.520258,35.3036719 C106.520258,44.0249944 69.0557481,43.4204733 60.6598559,47.9659663 C60.1143125,48.8032386 59.5835135,49.6531489 59.073778,50.5125377 C61.9247163,63.2854153 153.928823,64.6513802 153.928823,49.3572074" id="Fill-12" fill="#DB9266"></path>
                <path d="M156.125741,28.7044923 C142.898946,30.5306936 132.154479,33.4827365 131.999663,38.2525553 C131.69003,47.6573868 153.928823,42.2209097 153.928823,49.3572074 C153.928823,64.6513802 61.9247163,63.2854153 59.073778,50.5125377 C53.7278738,59.5487588 50.4072205,69.9140838 49.7384559,80.9871407 C84.0718833,80.6754016 120.70544,81.5232056 120.70544,86.5794873 C120.70544,96.0885829 91.6389286,89.6010396 91.6389286,98.4856038 C91.6389286,107.502868 162.049837,108.158994 184.114857,101.261767 C184.808898,98.407669 185.331271,95.4872213 185.653542,92.5067428 C178.172857,90.5088744 164.943956,91.2829562 164.943956,85.5926646 C164.943956,82.1751194 174.686856,79.8444484 185.715679,78.3036569 C183.656727,57.7078131 172.400418,39.7828151 156.125741,28.7044923" id="Fill-13" fill="#BE6746"></path>
                <path d="M106.520258,35.3036719 C106.520258,32.3600544 94.7320966,30.6296918 78.2109777,29.6428691 C71.2853145,34.6054185 65.3222511,40.8201901 60.6598559,47.9659663 C69.0557481,43.4204733 106.520258,44.0249944 106.520258,35.3036719" id="Fill-14" fill="#BE6746"></path>
                <path d="M164.943956,85.5926646 C164.943956,91.2829562 178.172857,90.5088744 185.653542,92.5067428 C185.914729,90.0833926 186.059014,87.6284472 186.059014,85.137694 C186.059014,82.831246 185.940005,80.5521804 185.715679,78.3036569 C174.686856,79.8444484 164.943956,82.1751194 164.943956,85.5926646" id="Fill-15" fill="#F7AB6E"></path>
                <path d="M91.6389286,98.4856038 C91.6389286,89.6010396 120.70544,96.0885829 120.70544,86.5794873 C120.70544,81.5232056 84.0718833,80.6754016 49.7384559,80.9871407 C49.6563084,82.3625841 49.6004902,83.7453998 49.6004902,85.137694 C49.6004902,97.5725031 52.9580046,109.229018 58.7894214,119.277338 C88.0149616,118.58435 121.373151,121.666986 121.373151,127.635316 C121.373151,133.371947 102.020051,129.426762 102.020051,135.994347 C102.020051,141.508759 126.313584,143.558232 151.944646,144.18803 C167.826489,134.980141 179.668362,119.556428 184.114857,101.261767 C162.049837,108.158994 91.6389286,107.502868 91.6389286,98.4856038" id="Fill-16" fill="#F7AB6E"></path>
                <path d="M102.020051,135.994347 C102.020051,129.426762 121.373151,133.371947 121.373151,127.635316 C121.373151,121.666986 88.0149616,118.58435 58.7894214,119.277338 C70.611284,139.637271 92.6394426,153.367482 117.828172,153.367482 C130.251396,153.367482 141.899486,150.015234 151.944646,144.18803 C126.313584,143.558232 102.020051,141.508759 102.020051,135.994347" id="Fill-17" fill="#DB9266"></path>
            </g>
        </g>
    </g>
</svg>