<?xml version="1.0" encoding="UTF-8" standalone="no"?>
<svg width="200px" height="200px" viewBox="0 0 200 200" version="1.1" xmlns="http://www.w3.org/2000/svg" xmlns:xlink="http://www.w3.org/1999/xlink">
    <!-- Generator: Sketch 3.7.2 (28276) - http://www.bohemiancoding.com/sketch -->
    <title>planet_flesh</title>
    <desc>Created with Sketch.</desc>
    <defs></defs>
    <g id="Symbols" stroke="none" stroke-width="1" fill="none" fill-rule="evenodd">
        <g id="planet_flesh" transform="translate(-1.000000, 0.000000)">
            <g>
                <path d="M196.983333,74.6638889 C160.826389,75.2847222 60.3402778,75.8513889 60.675,62.9541667 C60.9777778,51.2486111 143.281944,48.2055556 185.344444,47.4180556 C167.798611,19.0305556 136.402778,0.111111111 100.581944,0.111111111 C80.1666667,0.111111111 61.1902778,6.25972222 45.3930556,16.8 C95.0916667,18.4 157.426389,22.2888889 157.725,31.7402778 C158.081944,43.025 68.8430556,43.8805556 18.3986111,43.4638889 C11.8347222,53.0361111 6.90277778,63.8125 4.00138889,75.3972222 C54.5513889,76.4597222 140.240278,79.8930556 140.593056,90.9777778 C140.948611,102.279167 51.4694444,103.118056 1.06527778,102.7 C1.56111111,119.540278 6.24305556,135.331944 14.1069444,149.072222 C58.9805556,149.691667 167.355556,152.479167 167.748611,164.948611 C168.0875,175.583333 88.8541667,176.954167 37.5069444,176.729167 C54.6805556,190.804167 76.6430556,199.254167 100.581944,199.254167 C143.544444,199.254167 180.152778,172.047222 194.1125,133.920833 C197.286111,125.252778 199.281944,116.018056 199.919444,106.4125 C200.072222,104.186111 200.152778,101.945833 200.152778,99.6847222 C200.152778,91.0402778 199.051389,82.6597222 196.983333,74.6638889" id="Fill-1" fill="#FFAA6D"></path>
                <path d="M60.675,62.9541667 C60.3402778,75.8513889 160.826389,75.2847222 196.983333,74.6638889 C194.4625,64.925 190.5,55.7625 185.344444,47.4180556 C143.281944,48.2055556 60.9777778,51.2486111 60.675,62.9541667" id="Fill-2" fill="#C28A62"></path>
                <path d="M157.725,31.7402778 C157.426389,22.2888889 95.0916667,18.4 45.3930556,16.8 C34.7805556,23.8805556 25.6083333,32.9458333 18.3986111,43.4638889 C68.8430556,43.8805556 158.081944,43.025 157.725,31.7402778" id="Fill-3" fill="#C28A62"></path>
                <path d="M140.593056,90.9777778 C140.240278,79.8930556 54.5513889,76.4597222 4.00138889,75.3972222 C2.05277778,83.1708333 1.0125,91.3055556 1.0125,99.6847222 C1.0125,100.691667 1.02916667,101.695833 1.06527778,102.7 C51.4694444,103.118056 140.948611,102.279167 140.593056,90.9777778" id="Fill-4" fill="#C28A62"></path>
                <path d="M167.748611,164.948611 C167.355556,152.479167 58.9805556,149.691667 14.1069444,149.072222 C20.1680556,159.665278 28.1208333,169.036111 37.5069444,176.729167 C88.8541667,176.954167 168.0875,175.583333 167.748611,164.948611" id="Fill-5" fill="#C28A62"></path>
                <path d="M46.2444444,176.75 C61.6166667,187.619444 80.3652778,194.013889 100.581944,194.013889 C125.941667,194.013889 148.9875,183.95 165.954167,167.615278 C165.406944,167.991667 164.733333,168.351389 163.947222,168.697222 C150.461111,176.141667 134.976389,180.393056 118.511111,180.393056 C108.865278,180.393056 99.5555556,178.934722 90.7833333,176.230556 C75.7069444,176.626389 60.2430556,176.756944 46.2444444,176.75" id="Fill-6" fill="#ED8C47"></path>
                <path d="M34.3333333,43.5375 C31.0833333,43.5347222 27.9194444,43.5236111 24.8666667,43.5041667 C17.8222222,52.9763889 12.5097222,63.7986111 9.40138889,75.5194444 C14.2777778,75.6319444 19.4152778,75.7652778 24.725,75.9291667 C25.9638889,64.3847222 29.2972222,53.4597222 34.3333333,43.5375" id="Fill-7" fill="#ED8C47"></path>
                <path d="M49.0486111,149.816667 C37.2,136.913889 28.8833333,120.718056 25.6652778,102.773611 C18.8861111,102.786111 12.3680556,102.773611 6.30833333,102.7375 C6.84861111,119.718056 11.9013889,135.583333 20.3055556,149.163889 C28.6069444,149.301389 38.4486111,149.506944 49.0486111,149.816667" id="Fill-8" fill="#ED8C47"></path>
                <path d="M52.9930556,18.2680556 C42.0069444,24.7138889 32.4402778,33.3277778 24.8666667,43.5041667 C27.9194444,43.5236111 31.0833333,43.5347222 34.3333333,43.5375 C39.1222222,34.0972222 45.45,25.5597222 52.9930556,18.2680556" id="Fill-9" fill="#A7683B"></path>
                <path d="M25.6652778,102.773611 C24.6888889,97.3458333 24.1805556,91.7638889 24.1805556,86.0638889 C24.1805556,82.6402778 24.3694444,79.2569444 24.725,75.9291667 C19.4152778,75.7652778 14.2777778,75.6319444 9.40138889,75.5194444 C7.35416667,83.2319444 6.25416667,91.3319444 6.25416667,99.6847222 C6.25416667,100.705556 6.27361111,101.723611 6.30833333,102.7375 C12.3680556,102.773611 18.8861111,102.786111 25.6652778,102.773611" id="Fill-10" fill="#A7683B"></path>
                <path d="M166.104167,167.477778 C165.393056,167.897222 164.669444,168.297222 163.947222,168.697222 C164.733333,168.351389 165.406944,167.991667 165.954167,167.615278 C166.004167,167.568056 166.055556,167.526389 166.104167,167.477778" id="Fill-11" fill="#A7683B"></path>
                <path d="M46.2444444,176.75 C60.2430556,176.756944 75.7069444,176.626389 90.7833333,176.230556 C74.5888889,171.238889 60.2430556,162.001389 49.0486111,149.816667 C38.4486111,149.506944 28.6069444,149.301389 20.3055556,149.163889 C27.0138889,160.011111 35.8569444,169.401389 46.2444444,176.75" id="Fill-12" fill="#A7683B"></path>
                <path d="M60.675,62.9541667 C60.9541667,52.1 131.723611,48.6944444 175.552778,47.6291667 C163.380556,29.0152778 142.3625,16.6833333 118.511111,16.6833333 C111.820833,16.6833333 105.355556,17.6722222 99.2388889,19.4777778 C131.244444,21.8208333 157.529167,25.6111111 157.725,31.7402778 C157.984722,40.0222222 110.002778,42.6847222 64.5041667,43.3527778 C57.1763889,52.8722222 52.3138889,64.3736111 50.8583333,76.9069444 C95.0111111,78.9083333 140.336111,82.9208333 140.593056,90.9777778 C140.840278,98.9347222 96.5527778,101.705556 52.7277778,102.502778 C60.5375,131.518056 87.0625,152.941667 118.511111,152.941667 C156.079167,152.941667 186.638889,122.380556 186.638889,84.8125 C186.638889,81.4194444 186.383333,78.0833333 185.898611,74.8194444 C143.716667,75.2777778 60.3680556,74.7041667 60.675,62.9541667" id="Fill-13" fill="#FFC68F"></path>
                <path d="M60.675,62.9541667 C60.3680556,74.7041667 143.716667,75.2777778 185.898611,74.8194444 C184.438889,64.9013889 180.819444,55.6777778 175.552778,47.6291667 C131.723611,48.6944444 60.9541667,52.1 60.675,62.9541667" id="Fill-14" fill="#DBA984"></path>
                <path d="M157.725,31.7402778 C157.529167,25.6111111 131.244444,21.8208333 99.2388889,19.4777778 C85.2763889,23.6027778 73.1763889,32.0875 64.5041667,43.3527778 C110.002778,42.6847222 157.984722,40.0222222 157.725,31.7402778" id="Fill-15" fill="#DBA984"></path>
                <path d="M140.593056,90.9777778 C140.336111,82.9208333 95.0111111,78.9083333 50.8583333,76.9069444 C50.5555556,79.5027778 50.3847222,82.1375 50.3847222,84.8125 C50.3847222,90.9291667 51.2055556,96.8569444 52.7277778,102.502778 C96.5527778,101.705556 140.840278,98.9347222 140.593056,90.9777778" id="Fill-16" fill="#DBA984"></path>
            </g>
        </g>
    </g>
</svg>