<?xml version="1.0" encoding="UTF-8" standalone="no"?>
<svg width="200px" height="200px" viewBox="0 0 200 200" version="1.1" xmlns="http://www.w3.org/2000/svg" xmlns:xlink="http://www.w3.org/1999/xlink">
    <!-- Generator: Sketch 3.7.2 (28276) - http://www.bohemiancoding.com/sketch -->
    <title>planet_earth</title>
    <desc>Created with Sketch.</desc>
    <defs></defs>
    <g id="Symbols" stroke="none" stroke-width="1" fill="none" fill-rule="evenodd">
        <g id="planet_earth">
            <g>
                <path d="M0.892592593,99.562963 C0.892592593,154.491358 45.4185185,199.017284 100.346914,199.017284 C155.27284,199.017284 199.804938,154.491358 199.804938,99.562963 C199.804938,44.6333333 155.27284,0.104938272 100.346914,0.104938272 C45.4185185,0.104938272 0.892592593,44.6333333 0.892592593,99.562963" id="Fill-1" fill="#099EC9"></path>
                <path d="M120.582716,191.025926 C116.220988,193.319753 91.0839506,185.7 87.3654321,184.6 C83.6469136,183.506173 74.554321,186.385185 69.5271605,187.817284 C66.0506173,188.806173 56.7271605,186.92716 51.1160494,185.993827 C65.6345679,194.281481 82.4333333,199.017284 100.346914,199.017284 C117.167901,199.017284 133.007407,194.838272 146.896296,187.467901 C142.322222,186.603704 138.316049,185.919753 137.02963,185.892593 C133.496296,185.820988 124.944444,188.733333 120.582716,191.025926" id="Fill-2" fill="#B1DA3F"></path>
                <path d="M11.582716,63.4950617 C11.0259259,68.8 9.72469136,75.0691358 13.1049383,77.9691358 C16.4864198,80.8654321 15.3481481,84.1333333 16.3987654,84.8320988 C16.5308642,84.9209877 16.6716049,85.0098765 16.8111111,85.0925926 C14.0444444,87.3876543 9.44197531,91.5111111 6.12716049,99.562963 C2.57283951,108.204938 2.68395062,118.041975 7.04814815,120.42716 C11.4148148,122.814815 20.7123457,130.749383 21.5567901,133.645679 C22.4037037,136.544444 22.4703704,143.25679 35.4185185,157.9 C48.3679012,172.544444 62.3654321,182.907407 65,183.52716 C67.6395062,184.141975 66.3530864,181.54321 65,179.102469 C63.6481481,176.662963 64.6345679,170.55679 61.4530864,166.746914 C58.2654321,162.939506 62.1246914,161.808642 64.0111111,156.528395 C65.8950617,151.245679 67.8839506,143.946914 69.9283951,139.874074 C71.9716049,135.803704 79.4345679,121.259259 77.9641975,115.932099 C76.4962963,110.611111 66.2753086,106.540741 60.1271605,105.071605 C53.9790123,103.606173 52.8308642,100.587654 50.1962963,96.7555556 C47.791358,93.2592593 28.7111111,80.9259259 19.6925926,83.4580247 C19.8012346,82.7962963 19.8123457,82.1283951 19.6037037,81.591358 C18.9654321,79.9271605 19.6925926,77.637037 17.3617284,76.7160494 C15.0320988,75.7950617 17.3259259,74.3049383 20.0641975,72.4308642 C22.8012346,70.5592593 25.7851852,66.5283951 23.7555556,64.8493827 C21.7283951,63.1716049 18.5333333,68.7246914 17.6197531,68.0419753 C16.7074074,67.3580247 18.3419753,62.5975309 20.4320988,59.6074074 C22.517284,56.6148148 24.937037,60.2728395 29.3333333,60.5765432 C33.7283951,60.882716 31.7,54.4765432 33.9074074,53.3024691 C36.1135802,52.1283951 45.7296296,52.0358025 50.4049383,48.4024691 C55.0851852,44.7666667 56.7716049,42.3234568 65.3839506,38.4555556 C73.9962963,34.5864198 80.262963,25.4185185 80.8901235,23.3592593 C81.5197531,21.3 73.1259259,21.4567901 68.2135802,21.9851852 C63.2975309,22.5148148 53.0209877,23.5160494 54.0740741,22.1395062 C55.1271605,20.7592593 65.9864198,17.2419753 67.8728395,18.4135802 C69.7604938,19.5851852 71.3024691,19.1567901 73.1864198,18.4135802 C75.0716049,17.6716049 73.1864198,15.1469136 73.1864198,15.1469136 C73.1864198,15.1469136 78.0061728,11.3049383 78.7296296,11.1679012 C79.454321,11.0308642 85.2679012,15.4641975 86.1506173,17.2777778 C87.0296296,19.0962963 87.6530864,25.4765432 88.5074074,27.0197531 C89.3666667,28.562963 93.2296296,26.0716049 97.2506173,23.5160494 C101.27284,20.9641975 107.438272,16.9641975 110.274074,14.8975309 C113.107407,12.8345679 111.802469,12.9740741 109.659259,12.5283951 C107.511111,12.0814815 112.808642,11.7654321 117.153086,9.33333333 C117.153086,9.33333333 116.8,4.51975309 116.091358,1.34938272 C110.964198,0.534567901 105.706173,0.104938272 100.346914,0.104938272 C62.9382716,0.104938272 30.3654321,20.7567901 13.3839506,51.2814815 C13.4135802,51.5197531 13.4407407,51.7592593 13.4666667,52.0197531 C13.9987654,57.191358 12.1382716,58.1925926 11.582716,63.4950617" id="Fill-3" fill="#B1DA3F"></path>
                <path d="M199.804938,99.562963 C199.804938,96.0851852 199.623457,92.6469136 199.274074,89.2641975 C198.960494,88.8950617 198.638272,88.5111111 198.290123,88.1135802 C194.765432,84.0308642 177.449383,80.8728395 176.808642,76.3950617 C176.164198,71.9222222 183.369136,75.2518519 185.979012,77.9358025 C188.587654,80.6197531 195.635802,84.6296296 193.655556,79.8382716 C192.632099,77.3592593 194.444444,75.2160494 196.362963,73.5641975 C187.830864,41.9666667 164.119753,16.6049383 133.528395,5.78395062 C134.024691,6.89259259 134.416049,8.01111111 134.076543,9.2382716 C133.255556,12.2024691 133.025926,13.862963 127.445679,15.782716 C121.865432,17.6975309 119.669136,18.1753086 119.502469,20.2506173 C119.332099,22.3271605 120.544444,24.9530864 119.502469,26.1580247 C118.460494,27.3641975 109.209877,32.2419753 109.188889,34.4123457 C109.175309,36.5802469 120.134568,42.5740741 123.897531,41.6432099 C127.661728,40.7123457 133.120988,32.562963 138.483951,31.5987654 C143.841975,30.6271605 151.451852,31.4901235 150.94321,34.4123457 C150.437037,37.3345679 142.17284,39.8975309 145.744444,40.3802469 C149.317284,40.8604938 168.004938,42.962963 167.503704,47.6506173 C167.002469,52.3382716 162.583951,57.6185185 160.918519,56.8111111 C159.250617,56.0024691 129.217284,43.4740741 124.746914,43.2308642 C120.274074,42.9790123 112.832099,42.4061728 106.616049,48.1716049 C100.402469,53.9358025 93.8901235,58.954321 91.9469136,64.9530864 C90.0049383,70.9530864 93.2987654,77.8851852 91.9469136,81.8728395 C90.5962963,85.8666667 90.2222222,94.2358025 92.6074074,96.6641975 C94.9950617,99.0925926 114.424691,108.691358 118.487654,107.580247 C122.550617,106.467901 140.244444,100.560494 140.020988,103.464198 C139.797531,106.366667 142.28642,126 146.109877,130.020988 C149.92963,134.045679 154.069136,137.944444 152.817284,141.634568 C151.566667,145.318519 149.964198,149.034568 150.603704,158.650617 C151.244444,168.266667 148.1,174.454321 150.580247,175.555556 C152.908642,176.587654 161.311111,175.934568 164.42963,175.61358 C186.058025,157.37037 199.804938,130.071605 199.804938,99.562963" id="Fill-4" fill="#B1DA3F"></path>
                <path d="M67.982716,188.058025 C68.5765432,188.017284 69.0975309,187.937037 69.5271605,187.817284 C74.554321,186.385185 83.6469136,183.506173 87.3654321,184.6 C91.0839506,185.7 116.220988,193.319753 120.582716,191.025926 C124.944444,188.733333 133.496296,185.820988 137.02963,185.892593 C137.239506,185.897531 137.52716,185.922222 137.87037,185.958025 C144.009877,183.276543 149.817284,179.980247 155.196296,176.112346 C153.201235,176.093827 151.460494,175.944444 150.580247,175.555556 C150.212346,175.393827 149.977778,175.104938 149.828395,174.723457 C139.951852,178.249383 129.328395,180.177778 118.255556,180.177778 C96.9641975,180.177778 77.3,173.074074 61.5049383,161.119753 C60.2111111,163.050617 59.4740741,164.383951 61.4530864,166.746914 C64.6345679,170.55679 63.6481481,176.662963 65,179.102469 C66.3530864,181.54321 67.6395062,184.141975 65,183.52716 C62.3654321,182.907407 48.3679012,172.544444 35.4185185,157.9 C22.4703704,143.25679 22.4037037,136.544444 21.5567901,133.645679 C20.808642,131.07284 13.4037037,124.540741 8.69506173,121.434568 C16.054321,152.275309 38.6111111,177.280247 67.982716,188.058025" id="Fill-5" fill="#0077A0"></path>
                <path d="M16.8111111,85.0925926 C16.6716049,85.0098765 16.5308642,84.9209877 16.3987654,84.8320988 C15.3481481,84.1333333 16.4864198,80.8654321 13.1049383,77.9691358 C11.0518519,76.2074074 10.7296296,73.2 10.9148148,69.9209877 C7.81481481,79.2469136 6.12469136,89.208642 6.12469136,99.562963 L6.12469136,99.5716049 C6.12716049,99.5666667 6.12716049,99.5666667 6.12716049,99.562963 C9.44197531,91.5111111 14.0444444,87.3876543 16.8111111,85.0925926" id="Fill-6" fill="#0077A0"></path>
                <path d="M20.4320988,59.6074074 C18.3419753,62.5975309 16.7074074,67.3580247 17.6197531,68.0419753 C18.5333333,68.7246914 21.7283951,63.1716049 23.7555556,64.8493827 C25.7851852,66.5283951 22.8012346,70.5592593 20.0641975,72.4308642 C17.3259259,74.3049383 15.0320988,75.7950617 17.3617284,76.7160494 C19.6925926,77.637037 18.9654321,79.9271605 19.6037037,81.591358 C19.8123457,82.1283951 19.8012346,82.7962963 19.6925926,83.4580247 C20.9728395,83.1012346 22.462963,83.0481481 24.0765432,83.2185185 C24.3024691,75.2876543 25.5185185,67.6012346 27.5975309,60.2753086 C24.2666667,59.3740741 22.2246914,57.0345679 20.4320988,59.6074074" id="Fill-7" fill="#0077A0"></path>
                <path d="M120.582716,191.025926 C116.220988,193.319753 91.0839506,185.7 87.3654321,184.6 C83.6469136,183.506173 74.554321,186.385185 69.5271605,187.817284 C69.0975309,187.937037 68.5765432,188.017284 67.982716,188.058025 C78.0814815,191.761728 88.9814815,193.782716 100.346914,193.782716 C113.680247,193.782716 126.362963,190.975309 137.87037,185.958025 C137.52716,185.922222 137.239506,185.897531 137.02963,185.892593 C133.496296,185.820988 124.944444,188.733333 120.582716,191.025926" id="Fill-8" fill="#93C01B"></path>
                <path d="M21.5567901,133.645679 C22.4037037,136.544444 22.4703704,143.25679 35.4185185,157.9 C48.3679012,172.544444 62.3654321,182.907407 65,183.52716 C67.6395062,184.141975 66.3530864,181.54321 65,179.102469 C63.6481481,176.662963 64.6345679,170.55679 61.4530864,166.746914 C59.4740741,164.383951 60.2111111,163.050617 61.5049383,161.119753 C38.7580247,143.901235 24.0345679,116.617284 24.0345679,85.9580247 C24.0345679,85.0419753 24.0481481,84.1283951 24.0765432,83.2185185 C22.462963,83.0481481 20.9728395,83.1012346 19.6925926,83.4580247 C19.8012346,82.7962963 19.8123457,82.1283951 19.6037037,81.591358 C18.9654321,79.9271605 19.6925926,77.637037 17.3617284,76.7160494 C15.0320988,75.7950617 17.3259259,74.3049383 20.0641975,72.4308642 C22.8012346,70.5592593 25.7851852,66.5283951 23.7555556,64.8493827 C21.7283951,63.1716049 18.5333333,68.7246914 17.6197531,68.0419753 C16.7074074,67.3580247 18.3419753,62.5975309 20.4320988,59.6074074 C22.2246914,57.0345679 24.2666667,59.3740741 27.5975309,60.2753086 C32.1925926,44.0740741 41.0234568,29.6358025 52.8111111,18.2395062 C33.2469136,29.717284 18.182716,48.0555556 10.9148148,69.9209877 C10.7296296,73.2 11.0518519,76.2074074 13.1049383,77.9691358 C16.4864198,80.8654321 15.3481481,84.1333333 16.3987654,84.8320988 C16.5308642,84.9209877 16.6716049,85.0098765 16.8111111,85.0925926 C14.0444444,87.3876543 9.44197531,91.5111111 6.12716049,99.562963 C6.12716049,99.5666667 6.12716049,99.5666667 6.12469136,99.5716049 C6.12716049,107.097531 7.01851852,114.416049 8.69506173,121.434568 C13.4037037,124.540741 20.808642,131.07284 21.5567901,133.645679" id="Fill-9" fill="#93C01B"></path>
                <path d="M150.580247,175.555556 C151.460494,175.944444 153.201235,176.093827 155.196296,176.112346 C158.939506,173.422222 162.485185,170.475309 165.791358,167.277778 C160.749383,170.237037 155.406173,172.734568 149.828395,174.723457 C149.977778,175.104938 150.212346,175.393827 150.580247,175.555556" id="Fill-10" fill="#93C01B"></path>
                <path d="M88.5074074,27.0197531 C88.2037037,26.4716049 87.9283951,25.3049383 87.6617284,23.954321 C65.4666667,35.1716049 50.2049383,58.1876543 50.2049383,84.708642 C50.2049383,89.6469136 50.7493827,94.4604938 51.7530864,99.1024691 C53.5567901,101.809877 55.3012346,103.919753 60.1271605,105.071605 C66.2753086,106.540741 76.4962963,110.611111 77.9641975,115.932099 C79.0506173,119.87284 75.2506173,128.854321 72.3728395,134.91358 C84.4814815,145.988889 100.590123,152.759259 118.255556,152.759259 C130.575309,152.759259 142.130864,149.449383 152.109877,143.701235 C152.344444,142.98642 152.587654,142.307407 152.817284,141.634568 C154.069136,137.944444 149.92963,134.045679 146.109877,130.020988 C142.28642,126 139.797531,106.366667 140.020988,103.464198 C140.244444,100.560494 122.550617,106.467901 118.487654,107.580247 C114.424691,108.691358 94.9950617,99.0925926 92.6074074,96.6641975 C90.2222222,94.2358025 90.5962963,85.8666667 91.9469136,81.8728395 C93.2987654,77.8851852 90.0049383,70.9530864 91.9469136,64.9530864 C93.8901235,58.954321 100.402469,53.9358025 106.616049,48.1716049 C112.832099,42.4061728 120.274074,42.9790123 124.746914,43.2308642 C129.217284,43.4740741 159.250617,56.0024691 160.918519,56.8111111 C162.583951,57.6185185 167.002469,52.3382716 167.503704,47.6506173 C168.004938,42.962963 149.317284,40.8604938 145.744444,40.3802469 C142.17284,39.8975309 150.437037,37.3345679 150.94321,34.4123457 C151.451852,31.4901235 143.841975,30.6271605 138.483951,31.5987654 C133.120988,32.562963 127.661728,40.7123457 123.897531,41.6432099 C120.134568,42.5740741 109.175309,36.5802469 109.188889,34.4123457 C109.209877,32.2419753 118.460494,27.3641975 119.502469,26.1580247 C120.544444,24.9530864 119.332099,22.3271605 119.502469,20.2506173 C119.630864,18.6592593 120.959259,18.0037037 124.080247,16.9234568 C122.159259,16.7641975 120.216049,16.6604938 118.255556,16.6604938 C114.107407,16.6604938 110.054321,17.0518519 106.109877,17.7679012 C103.225926,19.6864198 99.8061728,21.8950617 97.2506173,23.5160494 C93.2296296,26.0716049 89.3666667,28.562963 88.5074074,27.0197531" id="Fill-11" fill="#25BEE5"></path>
                <path d="M176.808642,76.3950617 C177.124691,78.5987654 181.481481,80.4814815 186.244444,82.3148148 C186.193827,80.8407407 186.108642,79.3753086 185.966667,77.9259259 C183.348148,75.2419753 176.164198,71.9271605 176.808642,76.3950617" id="Fill-12" fill="#25BEE5"></path>
                <path d="M77.9641975,115.932099 C76.4962963,110.611111 66.2753086,106.540741 60.1271605,105.071605 C55.3012346,103.919753 53.5567901,101.809877 51.7530864,99.1024691 C54.7864198,113.128395 62.145679,125.560494 72.3728395,134.91358 C75.2506173,128.854321 79.0506173,119.87284 77.9641975,115.932099" id="Fill-13" fill="#D0F661"></path>
                <path d="M88.5074074,27.0197531 C89.3666667,28.562963 93.2296296,26.0716049 97.2506173,23.5160494 C99.8061728,21.8950617 103.225926,19.6864198 106.109877,17.7679012 C99.591358,18.9469136 93.3975309,21.0518519 87.6617284,23.954321 C87.9283951,25.3049383 88.2037037,26.4716049 88.5074074,27.0197531" id="Fill-14" fill="#D0F661"></path>
                <path d="M119.502469,20.2506173 C119.332099,22.3271605 120.544444,24.9530864 119.502469,26.1580247 C118.460494,27.3641975 109.209877,32.2419753 109.188889,34.4123457 C109.175309,36.5802469 120.134568,42.5740741 123.897531,41.6432099 C127.661728,40.7123457 133.120988,32.562963 138.483951,31.5987654 C143.841975,30.6271605 151.451852,31.4901235 150.94321,34.4123457 C150.437037,37.3345679 142.17284,39.8975309 145.744444,40.3802469 C149.317284,40.8604938 168.004938,42.962963 167.503704,47.6506173 C167.002469,52.3382716 162.583951,57.6185185 160.918519,56.8111111 C159.250617,56.0024691 129.217284,43.4740741 124.746914,43.2308642 C120.274074,42.9790123 112.832099,42.4061728 106.616049,48.1716049 C100.402469,53.9358025 93.8901235,58.954321 91.9469136,64.9530864 C90.0049383,70.9530864 93.2987654,77.8851852 91.9469136,81.8728395 C90.5962963,85.8666667 90.2222222,94.2358025 92.6074074,96.6641975 C94.9950617,99.0925926 114.424691,108.691358 118.487654,107.580247 C122.550617,106.467901 140.244444,100.560494 140.020988,103.464198 C139.797531,106.366667 142.28642,126 146.109877,130.020988 C149.92963,134.045679 154.069136,137.944444 152.817284,141.634568 C152.587654,142.307407 152.344444,142.98642 152.109877,143.701235 C172.522222,131.940741 186.303704,109.911111 186.303704,84.708642 C186.303704,83.9061728 186.271605,83.1123457 186.244444,82.3148148 C181.481481,80.4814815 177.124691,78.5987654 176.808642,76.3950617 C176.164198,71.9271605 183.348148,75.2419753 185.966667,77.9259259 C182.739506,45.4901235 156.645679,19.7037037 124.080247,16.9234568 C120.959259,18.0037037 119.630864,18.6592593 119.502469,20.2506173" id="Fill-15" fill="#D0F661"></path>
            </g>
        </g>
    </g>
</svg>