<?xml version="1.0" encoding="UTF-8" standalone="no"?>
<svg width="200px" height="200px" viewBox="0 0 200 200" version="1.1" xmlns="http://www.w3.org/2000/svg" xmlns:xlink="http://www.w3.org/1999/xlink">
    <!-- Generator: Sketch 3.7.2 (28276) - http://www.bohemiancoding.com/sketch -->
    <title>planet_lightgray</title>
    <desc>Created with Sketch.</desc>
    <defs>
        <path d="M35.8348357,8.68104265 C16.7980282,17.1178199 -3.26319249,27.5409479 0.577652582,45.4974408 C4.41230047,63.4538389 49.7184977,56.0449289 56.5674178,67.7732701 C63.4123005,79.4974408 49.8368075,86.655545 53.3082629,94.5866161 C56.7797183,102.523773 76.5449765,99.2873175 81.1531455,108.929365 C83.53277,113.913545 89.6286385,117.378398 94.957277,119.566626 C98.2082629,109.743071 99.9755869,99.2404171 99.9755869,88.325782 C99.9755869,50.5937441 78.9429108,17.7724171 47.9531455,0.925308057 C45.5735211,3.37668246 41.8348357,6.01962085 35.8348357,8.68104265 L35.8348357,8.68104265 Z" id="path-1"></path>
        <path d="M109.108169,126.892199 C94.3673239,71.7726066 32.1979624,110.575355 36.3204038,78.847109 C38.7612207,60.0259716 75.3163286,67.22891 74.3714272,33.4327962 C73.7632676,11.6301422 52.9857183,3.71744076 38.3102066,0.841990521 C15.2836714,19.0513744 0.506122441,47.2249289 0.506122441,78.847109 C0.506122441,124.975213 31.9346948,163.757545 74.5653052,174.988252 C96.2184038,168.674427 116.7,155.275886 109.108169,126.892199 L109.108169,126.892199 Z" id="path-3"></path>
        <path d="M145.002911,120.303773 C140.394742,110.661725 120.629484,113.89818 117.158028,105.961024 C113.686573,98.0299526 127.262066,90.8718483 120.417183,79.1476777 C113.568263,67.4193365 68.2620657,74.8282464 64.4274178,56.8718483 C60.5865728,38.9153555 80.6477934,28.4922275 99.6846009,20.0554502 C105.684601,17.3940284 109.423286,14.75109 111.802911,12.2997156 C97.6988732,4.63383886 81.5192488,0.271658768 64.3213146,0.271658768 C41.0151643,0.271658768 19.5886385,8.28635071 2.6294554,21.6950711 C17.3049671,24.5705213 38.0825164,32.4832227 38.6906761,54.2858768 C39.6355775,88.0819905 3.08046948,80.8790521 0.639652582,99.7001896 C-3.48278873,131.428436 58.6865728,92.6256872 73.4274178,147.74528 C81.0192488,176.128967 60.5376526,189.527507 38.884554,195.841333 C47.0049671,197.980611 55.531493,199.128766 64.3213146,199.128766 C79.5784038,199.128766 94.0274178,195.688381 106.949859,189.564209 C97.3600939,175.284673 84.0947418,148.78127 107.366197,136.618588 C122.796808,128.557033 138.821315,136.796009 151.447793,147.747318 C154.392676,142.426654 156.866197,136.806209 158.807042,130.941033 C153.478404,128.752806 147.382535,125.287953 145.002911,120.303773 L145.002911,120.303773 Z" id="path-5"></path>
        <path d="M13.4694836,3.91716588 C-9.80197183,16.0798483 3.46338028,42.5832512 13.0531455,56.8627867 C31.9021596,47.9161611 47.4919249,33.2205972 57.5510798,15.0458957 C44.9246009,4.09458768 28.9000939,-4.14438863 13.4694836,3.91716588 L13.4694836,3.91716588 Z" id="path-7"></path>
        <path d="M78.3988545,169.78469 C86.0641596,166.605346 93.0192488,162.294152 97.9049765,156.449374 C52.7294648,149.50946 18.0274178,110.400834 18.0274178,63.34891 C18.0274178,39.5496682 26.9110986,17.7918483 41.5294648,1.19563981 C40.79477,0.961137441 40.0621127,0.742938389 39.3315023,0.534881517 C15.59477,17.6531754 0.111094836,45.5270142 0.111094836,76.9513744 C0.111094836,123.450635 34.0029296,162.181991 78.3988545,169.78469 L78.3988545,169.78469 Z" id="path-9"></path>
        <path d="M0.46458216,14.3344531 C5.65641315,15.2236104 10.9910798,15.6967403 16.4339906,15.6967403 C30.6380282,15.6967403 44.1155869,12.5316673 56.2033803,6.88470142 C54.9625352,4.83108057 53.7197183,2.62450237 52.5646009,0.317990521 C46.6686385,1.47838863 40.5849765,2.09222749 34.3523005,2.09222749 C29.4625352,2.09222749 24.6584977,1.71698578 19.9707042,0.999137441 C15.0849765,6.84391469 8.12988732,11.155109 0.46458216,14.3344531 L0.46458216,14.3344531 Z" id="path-11"></path>
        <path d="M8.31548357,0.394028436 C5.74405634,1.90113744 3.2460939,3.53469194 0.833849765,5.27421801 C1.56446009,5.48227488 2.29711737,5.70047393 3.03181221,5.9349763 C4.72569014,4.01393365 6.48078873,2.16417062 8.31548357,0.394028436 L8.31548357,0.394028436 Z" id="path-13"></path>
        <path d="M30.2642254,0.57385782 C21.317277,5.81907109 11.4275117,9.62654028 0.921408451,11.6923981 C2.07652582,13.99891 3.31934272,16.2054882 4.56018779,18.259109 C14.100939,13.8051659 22.7805634,7.80336493 30.2642254,0.57385782 L30.2642254,0.57385782 Z" id="path-15"></path>
        <path d="M37.1164319,0.502559242 C36.6898592,0.698388626 36.2837559,0.898199052 35.8348357,1.09810427 C16.7980282,9.53488152 -3.26319249,19.9580095 0.577652582,37.9145024 C4.41230047,55.8709005 49.7184977,48.4619905 56.5674178,60.1903318 C63.4123005,71.9145024 49.8368075,79.0726066 53.3082629,87.0036777 C56.2980282,93.8293839 71.3123005,92.4018389 78.3960563,97.9876209 C83.5388732,88.4230616 86.4674178,77.494218 86.4674178,65.8963981 C86.4674178,34.8717536 65.5755869,8.64976303 37.1164319,0.502559242 L37.1164319,0.502559242 Z" id="path-17"></path>
        <path d="M0.312995305,0.73735545 C10.2680939,21.2165118 30.2170704,35.9773365 53.7844131,38.6774408 C53.5252582,37.1601611 53.2007512,35.608218 52.7701408,34.0012038 C44.0415962,1.36751659 18.6864601,1.65506161 0.312995305,0.73735545 L0.312995305,0.73735545 Z" id="path-19"></path>
        <path d="M24.606169,17.3190521 C24.4204601,10.5891943 22.306169,5.18900474 19.0490235,0.843127962 C7.31229108,13.07109 0.0816807512,29.6428436 0.0816807512,47.8869194 C0.0816807512,48.231564 0.100046948,48.5660664 0.106169014,48.9147867 C11.2959624,43.4880569 25.1959624,38.3243602 24.606169,17.3190521 L24.606169,17.3190521 Z" id="path-21"></path>
        <path d="M103.073521,89.8472796 C99.6020657,81.9162085 113.177559,74.7581043 106.332676,63.0339336 C99.4837559,51.3055924 54.1775587,58.7145024 50.3429108,40.7581043 C46.5020657,22.8016114 66.5632864,12.3784834 85.6000939,3.94170616 C86.0490141,3.74180095 86.4551174,3.54199052 86.8816901,3.34616114 C80.9265728,1.63924171 74.6490141,0.707298578 68.1551174,0.707298578 C48.8714554,0.707298578 31.4490235,8.77696682 19.0490235,21.6962085 C22.306169,26.0420853 24.4204601,31.4422749 24.606169,38.1721327 C25.1959624,59.1774408 11.2959624,64.3411374 0.106169014,69.7678673 C0.259230047,80.0033175 2.66535211,89.6963697 6.88576526,98.3676872 C25.25923,99.2853934 50.6143662,98.9978483 59.3429108,131.631536 C59.7735211,133.23855 60.0980282,134.790493 60.3571831,136.307773 C62.9184038,136.599393 65.5143662,136.766626 68.1551174,136.766626 C72.508169,136.766626 76.7613146,136.340398 80.8919249,135.553213 C82.2061972,129.661526 85.9020657,124.361251 93.2816901,120.504844 C100.387793,116.789147 107.624507,116.540341 114.593897,118.420626 C120.0123,113.352834 124.616338,107.418322 128.161315,100.831223 C121.077559,95.2454408 106.063286,96.6729858 103.073521,89.8472796 L103.073521,89.8472796 Z" id="path-23"></path>
        <path d="M12.5305164,3.91716588 C5.15089202,7.77357346 1.45502347,13.0738483 0.140751174,18.9655355 C13.026385,16.5203507 24.6284507,10.4390047 33.842723,1.83294787 C26.8733333,-0.0473364929 19.6366197,0.201469194 12.5305164,3.91716588 L12.5305164,3.91716588 Z" id="path-25"></path>
    </defs>
    <g id="Symbols" stroke="none" stroke-width="1" fill="none" fill-rule="evenodd">
        <g id="planet_lightgray">
            <g>
                <g id="Group-3" transform="translate(99.530516, 11.374408)">
                    <mask id="mask-2" fill="white">
                        <use xlink:href="#path-1"></use>
                    </mask>
                    <g id="Clip-2"></g>
                    <polygon id="Fill-1" fill="#999C9F" mask="url(#mask-2)" points="-4.59389671 -3.81402844 104.670423 -3.81402844 104.670423 124.305962 -4.59389671 124.305962"></polygon>
                </g>
                <g id="Group-6" transform="translate(0.000000, 20.853081)">
                    <mask id="mask-4" fill="white">
                        <use xlink:href="#path-3"></use>
                    </mask>
                    <g id="Clip-5"></g>
                    <polygon id="Fill-4" fill="#808387" mask="url(#mask-4)" points="-4.18871362 -3.89734597 115.416714 -3.89734597 115.416714 179.727589 -4.18871362 179.727589"></polygon>
                </g>
                <g id="Group-9" transform="translate(35.680751, 0.000000)">
                    <mask id="mask-6" fill="white">
                        <use xlink:href="#path-5"></use>
                    </mask>
                    <g id="Clip-8"></g>
                    <polygon id="Fill-7" fill="#B3B5B7" mask="url(#mask-6)" points="-4.25101408 -4.46767773 163.501878 -4.46767773 163.501878 203.868102 -4.25101408 203.868102"></polygon>
                </g>
                <g id="Group-12" transform="translate(129.577465, 132.701422)">
                    <mask id="mask-8" fill="white">
                        <use xlink:href="#path-7"></use>
                    </mask>
                    <g id="Clip-11"></g>
                    <polygon id="Fill-10" fill="#808387" mask="url(#mask-8)" points="-4.19539906 -4.05828436 62.2459155 -4.05828436 62.2459155 61.6021251 -4.19539906 61.6021251"></polygon>
                </g>
                <g id="Group-15" transform="translate(5.633803, 22.748815)">
                    <mask id="mask-10" fill="white">
                        <use xlink:href="#path-9"></use>
                    </mask>
                    <g id="Clip-14"></g>
                    <polygon id="Fill-13" fill="#5D6064" mask="url(#mask-10)" points="-4.58374085 -4.20445498 102.599812 -4.20445498 102.599812 174.524027 -4.58374085 174.524027"></polygon>
                </g>
                <g id="Group-18" transform="translate(83.568075, 178.199052)">
                    <mask id="mask-12" fill="white">
                        <use xlink:href="#path-11"></use>
                    </mask>
                    <g id="Clip-17"></g>
                    <polygon id="Fill-16" fill="#96999B" mask="url(#mask-12)" points="-4.23025352 -4.42134597 60.898216 -4.42134597 60.898216 20.4360768 -4.23025352 20.4360768"></polygon>
                </g>
                <g id="Group-21" transform="translate(44.131455, 18.009479)">
                    <mask id="mask-14" fill="white">
                        <use xlink:href="#path-13"></use>
                    </mask>
                    <g id="Clip-20"></g>
                    <polygon id="Fill-19" fill="#96999B" mask="url(#mask-14)" points="-3.86098592 -4.34530806 13.0103192 -4.34530806 13.0103192 10.6743128 -3.86098592 10.6743128"></polygon>
                </g>
                <g id="Group-24" transform="translate(135.211268, 166.824645)">
                    <mask id="mask-16" fill="white">
                        <use xlink:href="#path-15"></use>
                    </mask>
                    <g id="Clip-23"></g>
                    <polygon id="Fill-22" fill="#5D6064" mask="url(#mask-16)" points="-3.77342723 -4.16547867 34.959061 -4.16547867 34.959061 22.9984455 -3.77342723 22.9984455"></polygon>
                </g>
                <g id="Group-27" transform="translate(99.530516, 18.957346)">
                    <mask id="mask-18" fill="white">
                        <use xlink:href="#path-17"></use>
                    </mask>
                    <g id="Clip-26"></g>
                    <polygon id="Fill-25" fill="#B7BABC" mask="url(#mask-18)" points="-4.59389671 -4.23677725 91.1622535 -4.23677725 91.1622535 102.726957 -4.59389671 102.726957"></polygon>
                </g>
                <g id="Group-30" transform="translate(56.338028, 113.744076)">
                    <mask id="mask-20" fill="white">
                        <use xlink:href="#path-19"></use>
                    </mask>
                    <g id="Clip-29"></g>
                    <polygon id="Fill-28" fill="#A0A3A7" mask="url(#mask-20)" points="-4.38184038 -4.00198104 58.4792488 -4.00198104 58.4792488 43.4167773 -4.38184038 43.4167773"></polygon>
                </g>
                <g id="Group-33" transform="translate(49.765258, 36.966825)">
                    <mask id="mask-22" fill="white">
                        <use xlink:href="#path-21"></use>
                    </mask>
                    <g id="Clip-32"></g>
                    <polygon id="Fill-31" fill="#A0A3A7" mask="url(#mask-22)" points="-4.61315493 -3.89620853 29.3191549 -3.89620853 29.3191549 53.6541232 -4.61315493 53.6541232"></polygon>
                </g>
                <g id="Group-36" transform="translate(49.765258, 16.113744)">
                    <mask id="mask-24" fill="white">
                        <use xlink:href="#path-23"></use>
                    </mask>
                    <g id="Clip-35"></g>
                    <polygon id="Fill-34" fill="#CED0D2" mask="url(#mask-24)" points="-4.58866667 -4.03203791 132.85615 -4.03203791 132.85615 141.505962 -4.58866667 141.505962"></polygon>
                </g>
                <g id="Group-39" transform="translate(130.516432, 132.701422)">
                    <mask id="mask-26" fill="white">
                        <use xlink:href="#path-25"></use>
                    </mask>
                    <g id="Clip-38"></g>
                    <polygon id="Fill-37" fill="#A0A3A7" mask="url(#mask-26)" points="-4.55408451 -4.05553555 38.5375587 -4.05553555 38.5375587 23.704872 -4.55408451 23.704872"></polygon>
                </g>
            </g>
        </g>
    </g>
</svg>