<?xml version="1.0" encoding="UTF-8" standalone="no"?>
<svg width="200px" height="200px" viewBox="0 0 200 200" version="1.1" xmlns="http://www.w3.org/2000/svg" xmlns:xlink="http://www.w3.org/1999/xlink">
    <!-- Generator: Sketch 3.7.2 (28276) - http://www.bohemiancoding.com/sketch -->
    <title>planet_darkgray</title>
    <desc>Created with Sketch.</desc>
    <defs></defs>
    <g id="Symbols" stroke="none" stroke-width="1" fill="none" fill-rule="evenodd">
        <g id="planet_darkgray">
            <g>
                <path d="M157.978608,18.8017917 C152.07708,20.4074846 147.067848,22.5918453 145.455529,25.5205231 C140.706919,34.1210294 161.201037,41.4891056 161.450615,56.0596089 C161.801792,76.3726176 46.5519158,69.3689696 45.2046357,56.7089537 C43.8617729,44.0533552 68.2762557,44.497295 66.7589091,31.5921183 C65.9152025,24.4471163 50.2249107,22.9606909 36.4053504,23.0534544 C16.1784793,39.7619367 2.65046158,64.2912696 0.444014294,92.0076931 C22.7138922,90.0066508 54.3087155,89.145275 56.6211783,100.049409 C60.2146615,117.00747 39.5305986,115.995905 40.7674459,128.764145 C41.9976673,141.530177 181.467664,146.605668 186.172101,123.922771 C190.878747,101.239875 139.73511,108.641081 144.284941,90.0574499 C146.946372,79.1842366 174.181308,75.2881676 196.331919,73.9232182 C190.236028,51.3949275 176.46285,32.0205976 157.978608,18.8017917" id="Fill-1" fill="#53556A"></path>
                <path d="M66.7589091,31.5921183 C68.2762557,44.497295 43.8617729,44.0533552 45.2046357,56.7089537 C46.5519158,69.3689696 161.801792,76.3726176 161.450615,56.0596089 C161.201037,41.4891056 140.706919,34.1210294 145.455529,25.5205231 C147.067848,22.5918453 152.07708,20.4074846 157.978608,18.8017917 C141.623511,7.1025412 121.599836,0.2137433 99.9572166,0.2137433 C75.8099811,0.2137433 53.6704139,8.78332837 36.4053504,23.0534544 C50.2249107,22.9606909 65.9152025,24.4471163 66.7589091,31.5921183" id="Fill-2" fill="#747689"></path>
                <path d="M139.030549,168.745235 C120.464587,169.683914 88.2402968,181.115917 84.156492,166.302462 C81.6231636,157.123288 48.2702501,160.263996 23.2748908,163.974538 C41.5846486,185.919744 69.1376315,199.882867 99.9572166,199.882867 C122.993498,199.882867 144.203221,192.075268 161.101648,178.969104 C154.966002,173.288441 147.206993,168.332217 139.030549,168.745235" id="Fill-3" fill="#53556A"></path>
                <path d="M144.284941,90.0574499 C139.73511,108.641081 190.878747,101.239875 186.172101,123.922771 C181.467664,146.605668 41.9976673,141.530177 40.7674459,128.764145 C39.5305986,115.995905 60.2146615,117.00747 56.6211783,100.049409 C54.3087155,89.145275 22.7138922,90.0066508 0.444014294,92.0076931 C0.231983323,94.6647062 0.121550526,97.3393885 0.121550526,100.049409 C0.121550526,124.371129 8.8214463,146.654258 23.2748908,163.974538 C48.2702501,160.263996 81.6231636,157.123288 84.156492,166.302462 C88.2402968,181.115917 120.464587,169.683914 139.030549,168.745235 C147.206993,168.332217 154.966002,173.288441 161.101648,178.969104 C184.641503,160.710145 199.795091,132.152224 199.795091,100.049409 C199.795091,91.0049633 198.586957,82.2520598 196.331919,73.9232182 C174.181308,75.2881676 146.946372,79.1842366 144.284941,90.0574499" id="Fill-4" fill="#747689"></path>
                <path d="M23.3521938,86.391081 C23.3521938,62.2129244 32.4739428,40.1241562 47.4596734,23.3891701 C46.6071322,23.3229105 45.7369218,23.2699027 44.86892,23.2235209 C23.1335368,38.8541791 8.27590828,63.4630236 5.76466647,91.5725878 C11.4762507,91.1463173 17.5544719,90.8304795 23.4560006,90.7907236 C23.3919496,89.3285934 23.3521938,87.8642545 23.3521938,86.391081" id="Fill-5" fill="#2A2D44"></path>
                <path d="M52.2369962,18.4174856 C49.7058765,19.9061197 47.2432251,21.5118126 44.86892,23.2235209 C45.7369218,23.2699027 46.6071322,23.3229105 47.4596734,23.3891701 C48.9946893,21.6730445 50.5849216,20.0165525 52.2369962,18.4174856" id="Fill-6" fill="#4F5167"></path>
                <path d="M99.9572166,194.628474 C121.341423,194.628474 141.071347,187.474638 156.929497,175.466175 C156.101251,174.825665 155.253127,174.224911 154.385125,173.655077 C143.160736,178.363932 130.847479,180.976772 117.933467,180.976772 C95.6945106,180.976772 75.2357306,173.257519 59.0705777,160.365595 C49.8737344,160.639468 39.3318195,161.752631 29.5099265,163.086659 C46.8412498,182.434485 72.0000496,194.628474 99.9572166,194.628474" id="Fill-7" fill="#2A2D44"></path>
                <path d="M59.0705777,160.365595 C38.3909321,143.877978 24.750273,118.917957 23.4560006,90.7907236 C17.5544719,90.8304795 11.4762507,91.1463173 5.76466647,91.5725878 C5.51508835,94.3665376 5.37815168,97.1891999 5.37815168,100.049409 C5.37815168,124.243027 14.510944,146.340629 29.5099265,163.086659 C39.3318195,161.752631 49.8737344,160.639468 59.0705777,160.365595" id="Fill-8" fill="#4F5167"></path>
                <path d="M165.64927,168.023005 C162.040327,170.143314 158.278986,172.020672 154.385125,173.655077 C155.253127,174.224911 156.101251,174.825665 156.929497,175.466175 C159.984068,173.151504 162.903911,170.680018 165.64927,168.023005" id="Fill-9" fill="#4F5167"></path>
                <path d="M147.26221,23.4620558 C146.473719,24.1003574 145.855296,24.789458 145.455529,25.5205231 C140.706919,34.1210294 161.201037,41.4891056 161.450615,56.0596089 C161.748784,73.1435626 80.3156393,70.9084028 53.586485,62.2350109 C51.0266528,69.3976822 49.6263649,77.1058914 49.6263649,85.1387731 C49.6263649,88.1425452 49.8406045,91.0999355 50.2182847,94.0065267 C53.7256303,95.4178579 56.0535537,97.3791443 56.6211783,100.049409 C57.6636639,104.970295 56.6543081,108.369416 54.7438207,111.04189 C59.0727864,121.570553 65.9527497,130.791691 74.6173069,137.91019 C102.110656,140.569411 140.09733,140.403762 163.922101,135.604353 C171.186371,128.978385 177.017223,120.810775 180.893414,111.627184 C168.670712,103.31822 140.876985,103.967565 144.284941,90.0574499 C146.524519,80.9180316 166.117505,76.710542 185.460914,74.7890113 C181.993324,52.0884455 167.31018,33.0277447 147.26221,23.4620558" id="Fill-10" fill="#76788C"></path>
                <path d="M161.450615,56.0596089 C161.201037,41.4891056 140.706919,34.1210294 145.455529,25.5205231 C145.855296,24.789458 146.473719,24.1003574 147.26221,23.4620558 C138.372369,19.2126017 128.424583,16.8272533 117.933467,16.8272533 C88.2977219,16.8272533 63.0218632,35.8040252 53.586485,62.2350109 C80.3156393,70.9084028 161.748784,73.1435626 161.450615,56.0596089" id="Fill-11" fill="#9597A8"></path>
                <path d="M144.284941,90.0574499 C140.876985,103.967565 168.670712,103.31822 180.893414,111.627184 C184.336708,103.479452 186.24057,94.5277695 186.24057,85.1387731 C186.24057,81.6225928 185.973322,78.1660463 185.460914,74.7890113 C166.117505,76.710542 146.524519,80.9180316 144.284941,90.0574499" id="Fill-12" fill="#9597A8"></path>
                <path d="M56.6211783,100.049409 C56.0535537,97.3791443 53.7256303,95.4178579 50.2182847,94.0065267 C50.9957316,99.9566458 52.5307475,105.670439 54.7438207,111.04189 C56.6543081,108.369416 57.6636639,104.970295 56.6211783,100.049409" id="Fill-13" fill="#9597A8"></path>
                <path d="M74.6173069,137.91019 C86.4115297,147.615024 101.505484,153.448084 117.933467,153.448084 C135.631427,153.448084 151.774494,146.682971 163.922101,135.604353 C140.09733,140.403762 102.110656,140.569411 74.6173069,137.91019" id="Fill-14" fill="#9597A8"></path>
            </g>
        </g>
    </g>
</svg>