<?xml version="1.0" encoding="UTF-8" standalone="no"?>
<svg width="360px" height="200px" viewBox="0 0 360 200" version="1.1" xmlns="http://www.w3.org/2000/svg" xmlns:xlink="http://www.w3.org/1999/xlink">
    <!-- Generator: Sketch 3.7.2 (28276) - http://www.bohemiancoding.com/sketch -->
    <title>planet_jove</title>
    <desc>Created with Sketch.</desc>
    <defs></defs>
    <g id="Symbols" stroke="none" stroke-width="1" fill="none" fill-rule="evenodd">
        <g id="planet_jove">
            <g>
                <path d="M216.98413,7.04623656 C205.622609,2.71182796 193.274022,0.32688172 180.358043,0.32688172 C167.440109,0.32688172 155.090543,2.71182796 143.731957,7.04623656 C168.06913,9.77741935 192.645978,9.77741935 216.98413,7.04623656" id="Fill-1" fill="#95885C"></path>
                <path d="M248.64163,26.3784946 C239.476304,18.1419355 228.764348,11.5430108 216.98413,7.04623656 C192.645978,9.77741935 168.06913,9.77741935 143.731957,7.04623656 C131.951739,11.5430108 121.238804,18.1419355 112.071522,26.3784946 C157.070543,35.9526882 203.643587,35.9537634 248.64163,26.3784946" id="Fill-2" fill="#EEDDA8"></path>
                <path d="M275.511522,65.7752688 C273.274239,59.7419355 270.456848,53.9806452 267.130761,48.5580645 C210.373043,64.1354839 150.344022,64.1354839 93.5823913,48.5580645 C90.2592391,53.9806452 87.4428261,59.7419355 85.203587,65.7752688 C147.195,84.5763441 213.522065,84.5763441 275.511522,65.7752688" id="Fill-3" fill="#95885C"></path>
                <path d="M281.381087,93.2150538 C280.737391,83.6365591 278.719239,74.4268817 275.511522,65.7752688 C213.522065,84.5763441 147.195,84.5763441 85.203587,65.7752688 C81.9968478,74.4268817 79.9796739,83.6365591 79.335,93.2150538 C144.944022,114.472043 215.771087,114.472043 281.381087,93.2150538" id="Fill-4" fill="#EEDDA8"></path>
                <path d="M256.601739,165.406452 C265.226087,155.706452 271.973152,144.352688 276.27163,131.883871 C213.813587,150.996774 146.9025,150.996774 84.4444565,131.883871 C88.743913,144.352688 95.4870652,155.706452 104.115326,165.405376 C154.208152,177.37957 206.505978,177.37957 256.601739,165.406452" id="Fill-5" fill="#C98832"></path>
                <path d="M228.453261,187.526882 C196.571739,192.249462 164.14337,192.249462 132.258913,187.526882 C146.565978,195.135484 162.947935,199.458065 180.358043,199.458065 C197.766196,199.458065 214.148152,195.135484 228.453261,187.526882" id="Fill-6" fill="#95885C"></path>
                <path d="M228.453261,187.526882 C239.139783,181.843011 248.666087,174.325806 256.601739,165.406452 C206.505978,177.37957 154.208152,177.37957 104.115326,165.405376 C112.048043,174.324731 121.574348,181.843011 132.258913,187.526882 C164.14337,192.249462 196.571739,192.249462 228.453261,187.526882" id="Fill-7" fill="#DDC783"></path>
                <path d="M276.27163,131.883871 C279.735652,121.843011 281.614891,111.083871 281.614891,99.8913978 C281.614891,97.6462366 281.529783,95.4236559 281.381087,93.2150538 C215.771087,114.472043 144.944022,114.472043 79.335,93.2150538 C79.1853261,95.4236559 79.1021739,97.6462366 79.1021739,99.8913978 C79.1021739,111.083871 80.9804348,121.843011 84.4444565,131.883871 C146.9025,150.996774 213.813587,150.996774 276.27163,131.883871" id="Fill-8" fill="#BF9365"></path>
                <path d="M267.130761,48.5580645 C262.072174,40.3086022 255.833804,32.8408602 248.64163,26.3784946 C203.643587,35.9537634 157.070543,35.9526882 112.071522,26.3784946 C104.883261,32.8408602 98.6429348,40.3086022 93.5823913,48.5580645 C150.344022,64.1354839 210.373043,64.1354839 267.130761,48.5580645" id="Fill-9" fill="#DFA24A"></path>
                <path d="M127.669891,21.6096774 C124.719457,23.5064516 121.87663,25.5709677 119.139457,27.7860215 C120.086413,27.9634409 121.035326,28.1387097 121.985217,28.3107527 C123.777391,25.9989247 125.665435,23.7537634 127.669891,21.6096774" id="Fill-10" fill="#DAC68A"></path>
                <path d="M108.370761,52.7612903 C108.430435,52.6010753 108.501848,52.4430108 108.563478,52.2849462 C105.41837,51.5795699 102.280109,50.8290323 99.153587,50.0311828 C98.7681522,50.6322581 98.3758696,51.2247312 98.0051087,51.8290323 C94.9891304,56.7483871 92.4466304,61.955914 90.4118478,67.3021505 C94.8326087,68.5634409 99.2709783,69.7268817 103.726957,70.7989247 C104.661196,64.6365591 106.206848,58.5956989 108.370761,52.7612903" id="Fill-11" fill="#746634"></path>
                <path d="M102.662609,84.6655914 C102.662609,82.6688172 102.737935,80.5666667 102.880761,78.4225806 C103.054891,75.8645161 103.345435,73.3225806 103.726957,70.7989247 C99.2709783,69.7268817 94.8326087,68.5634409 90.4118478,67.3021505 C90.3257609,67.5333333 90.2259783,67.7569892 90.138913,67.988172 C87.0886957,76.211828 85.2417391,84.8473118 84.648913,93.6494624 C84.6215217,94.0569892 84.6078261,94.4537634 84.5863043,94.8623656 C91.0056522,96.8204301 97.4690217,98.5860215 103.969565,100.145161 C103.105761,95.0516129 102.662609,89.883871 102.662609,84.6655914" id="Fill-12" fill="#DAC68A"></path>
                <path d="M251.2125,163.006452 C248.99087,164.432258 246.713478,165.780645 244.367609,167.029032 C243.25337,167.621505 242.124457,168.182796 240.987717,168.729032 C242.84837,168.377419 244.708043,168.01828 246.564783,167.632258 C248.15837,166.143011 249.715761,164.608602 251.2125,163.006452" id="Fill-13" fill="#AF6606"></path>
                <path d="M107.922717,161.310753 C109.887065,163.516129 111.944348,165.616129 114.086739,167.621505 C132.668804,171.455914 151.515,173.658065 170.396413,174.233333 C164.308696,172.407527 158.409783,170.004301 152.812174,167.027957 C142.702826,161.651613 133.73413,154.607527 126.158478,146.086022 C124.681304,144.424731 123.291196,142.706452 121.945109,140.966667 C111.514891,139.07957 101.157065,136.689247 90.9088043,133.784946 C94.8981522,143.836559 100.605326,153.082796 107.922717,161.310753" id="Fill-14" fill="#AF6606"></path>
                <path d="M134.580326,182.251613 C140.738478,185.527957 147.264457,188.119355 154.005652,189.995699 C171.543913,191.409677 189.172174,191.409677 206.710435,189.997849 C213.450652,188.12043 219.975652,185.527957 226.132826,182.254839 C233.612609,178.276344 240.438913,173.363441 246.564783,167.632258 C244.708043,168.01828 242.84837,168.377419 240.987717,168.729032 C227.878043,175.045161 213.303913,178.373118 198.589891,178.373118 C189.011739,178.373118 179.493261,176.953763 170.396413,174.233333 C151.515,173.658065 132.668804,171.455914 114.086739,167.621505 C120.225326,173.362366 127.086848,178.267742 134.580326,182.251613" id="Fill-15" fill="#C6AD60"></path>
                <path d="M90.9088043,133.784946 C101.157065,136.689247 111.514891,139.07957 121.945109,140.966667 C115.755652,132.950538 110.945543,124.111828 107.659565,114.580645 C106.035652,109.868817 104.805,105.04086 103.969565,100.145161 C97.4690217,98.5860215 91.0056522,96.8204301 84.5863043,94.8623656 C84.491413,96.5806452 84.4317391,98.2731183 84.4317391,99.8913978 C84.4317391,110.132258 86.1104348,120.195699 89.4267391,129.806452 C89.8884783,131.147312 90.3893478,132.470968 90.9088043,133.784946" id="Fill-16" fill="#A4723E"></path>
                <path d="M116.235978,36.6064516 C117.99587,33.7365591 119.924022,30.9752688 121.985217,28.3107527 C121.035326,28.1387097 120.086413,27.9634409 119.139457,27.7860215 C117.887283,28.7978495 116.650761,29.8322581 115.4475,30.9129032 C109.159239,36.5623656 103.693696,42.9924731 99.153587,50.0311828 C102.280109,50.8290323 105.41837,51.5795699 108.563478,52.2849462 C110.607065,46.8623656 113.181848,41.5892473 116.235978,36.6064516" id="Fill-17" fill="#C8831F"></path>
                <path d="M235.55837,28.8580645 C232.123696,26.8268817 228.514891,25.0709677 224.727065,23.6247312 C216.4275,20.4591398 207.632935,18.8516129 198.589891,18.8516129 C189.546848,18.8516129 180.751304,20.4580645 172.455652,23.6247312 C166.490217,25.8989247 160.9425,28.9236559 155.889783,32.6333333 C182.466196,34.6182796 209.222609,33.3505376 235.55837,28.8580645" id="Fill-18" fill="#FFF3C4"></path>
                <path d="M266.020435,68.483871 C265.499022,66.4354839 264.870978,64.4086022 264.135326,62.4193548 C262.751087,58.6924731 260.973587,55.044086 258.848804,51.5795699 C258.690326,51.3236559 258.525,51.0763441 258.365543,50.8225806 C218.04163,60.6956989 176.256196,62.7989247 135.306196,57.1247312 C134.467826,58.8645161 133.709674,60.6333333 133.047391,62.4193548 C131.42837,66.7849462 130.335652,71.3247312 129.771196,75.944086 C175.075435,83.0086022 221.534022,80.5247312 266.020435,68.483871" id="Fill-19" fill="#B3A87E"></path>
                <path d="M266.099674,97.7408602 C267.274565,93.0225806 267.870326,88.1763441 267.870326,83.2709677 C267.870326,81.988172 267.821413,80.611828 267.726522,79.1870968 C267.482935,75.5655914 266.909674,71.9860215 266.020435,68.483871 C221.534022,80.5247312 175.075435,83.0086022 129.771196,75.944086 C129.63913,77.0193548 129.52663,78.0967742 129.454239,79.1827957 C129.35837,80.611828 129.309457,81.988172 129.309457,83.2709677 C129.309457,89.9483871 130.41,96.5204301 132.574891,102.803226 C132.92413,103.81828 133.304674,104.819355 133.705761,105.812903 C177.787174,112.141935 222.876196,109.450538 266.099674,97.7408602" id="Fill-20" fill="#FFF3C4"></path>
                <path d="M183.770217,146.182796 C188.619457,147.175269 193.588043,147.689247 198.589891,147.689247 C207.130109,147.689247 215.573478,146.205376 223.470978,143.366667 C210.293804,145.113978 197.034457,146.047312 183.770217,146.182796" id="Fill-21" fill="#E2A855"></path>
                <path d="M232.7625,139.266667 C240.087717,135.373118 246.54913,130.307527 251.967717,124.216129 C257.662174,117.811828 261.912717,110.608602 264.606848,102.801075 C265.182065,101.134409 265.675109,99.4473118 266.099674,97.7408602 C222.876196,109.450538 177.787174,112.141935 133.705761,105.812903 C136.398913,112.466667 140.257174,118.645161 145.210109,124.212903 C150.630652,130.307527 157.092065,135.373118 164.416304,139.266667 C170.455109,142.478495 176.993804,144.8 183.770217,146.182796 C197.034457,146.047312 210.293804,145.113978 223.470978,143.366667 C226.665,142.217204 229.77587,140.854839 232.7625,139.266667" id="Fill-22" fill="#D9B287"></path>
                <path d="M258.365543,50.8225806 C255.149022,45.7419355 251.2125,41.0795699 246.636196,36.9677419 C243.217174,33.8946237 239.508587,31.1913978 235.55837,28.8580645 C209.222609,33.3505376 182.466196,34.6182796 155.889783,32.6333333 C154.042826,33.9870968 152.254565,35.4268817 150.544565,36.9655914 C145.737391,41.283871 141.628696,46.2043011 138.332935,51.5795699 C137.226522,53.3806452 136.219891,55.2354839 135.306196,57.1247312 C176.256196,62.7989247 218.04163,60.6956989 258.365543,50.8225806" id="Fill-23" fill="#F6BF6D"></path>
                <path d="M276.472174,68.5107527 C277.236196,70.7806452 277.924891,73.083871 278.524565,75.4225806 C311.43913,82.7634409 332.343587,93.7247312 332.343587,105.972043 C332.343587,128.077419 264.295761,145.995699 180.358043,145.995699 C96.4193478,145.995699 28.3725,128.077419 28.3725,105.972043 C28.3725,93.7247312 49.2769565,82.7634409 82.1925,75.4225806 C82.7921739,73.083871 83.4779348,70.7806452 84.243913,68.5107527 C34.1041304,77.0978495 0.816847826,92.2032258 0.816847826,109.406452 C0.816847826,136.151613 81.198587,157.830108 180.358043,157.830108 C279.516522,157.830108 359.900217,136.151613 359.900217,109.406452 C359.900217,92.2032258 326.610978,77.0978495 276.472174,68.5107527" id="Fill-24" fill="#DDC783"></path>
                <path d="M42.1503261,104.253763 C42.1503261,124.039785 104.026304,140.080645 180.358043,140.080645 C256.687826,140.080645 318.565761,124.039785 318.565761,104.253763 C318.565761,94.5408602 303.649239,85.7311828 279.434348,79.2763441 C280.145543,82.6043011 280.685543,85.9924731 281.051413,89.4333333 C287.444348,92.9 291.00913,96.7548387 291.00913,100.817204 C291.00913,115.968817 241.469022,128.248387 180.358043,128.248387 C119.248043,128.248387 69.7069565,115.968817 69.7069565,100.817204 C69.7069565,96.7548387 73.2707609,92.9 79.6646739,89.4333333 C80.0295652,85.9924731 80.5705435,82.6032258 81.2827174,79.2763441 C57.0668478,85.7311828 42.1503261,94.5408602 42.1503261,104.253763" id="Fill-25" fill="#755E46"></path>
                <path d="M154.005652,189.995699 C162.54,192.373118 171.422609,193.598925 180.358043,193.598925 C189.291522,193.598925 198.175109,192.373118 206.710435,189.997849 C189.172174,191.409677 171.543913,191.409677 154.005652,189.995699" id="Fill-26" fill="#746634"></path>
            </g>
        </g>
    </g>
</svg>