<?xml version="1.0" encoding="UTF-8" standalone="no"?>
<svg width="222px" height="48px" viewBox="0 0 222 48" version="1.1" xmlns="http://www.w3.org/2000/svg" xmlns:xlink="http://www.w3.org/1999/xlink">
    <!-- Generator: Sketch 3.7.2 (28276) - http://www.bohemiancoding.com/sketch -->
    <title>dialog_top</title>
    <desc>Created with Sketch.</desc>
    <defs></defs>
    <g id="Canvas" stroke="none" stroke-width="1" fill="none" fill-rule="evenodd">
        <g id="Register" transform="translate(-32.000000, -97.000000)" fill="#F7F7F7">
            <g id="dialog_recruiting" transform="translate(32.000000, 97.000000)">
                <g id="dialog_top">
                    <path d="M0,0 L311,0 L311,48 L0,48 L0,0 Z M19.9423729,33.5 C21.0431981,33.5 21.9355932,32.6045695 21.9355932,31.5 C21.9355932,30.3954305 21.0431981,29.5 19.9423729,29.5 C18.8415477,29.5 17.9491525,30.3954305 17.9491525,31.5 C17.9491525,32.6045695 18.8415477,33.5 19.9423729,33.5 Z M12.4677966,26 C13.5686218,26 14.4610169,25.1045695 14.4610169,24 C14.4610169,22.8954305 13.5686218,22 12.4677966,22 C11.3669714,22 10.4745763,22.8954305 10.4745763,24 C10.4745763,25.1045695 11.3669714,26 12.4677966,26 Z M19.9423729,18.5 C21.0431981,18.5 21.9355932,17.6045695 21.9355932,16.5 C21.9355932,15.3954305 21.0431981,14.5 19.9423729,14.5 C18.8415477,14.5 17.9491525,15.3954305 17.9491525,16.5 C17.9491525,17.6045695 18.8415477,18.5 19.9423729,18.5 Z M190,0 L311,0 L311,48 L221.585938,48 L190,0 Z M71.11,28.75 C71.0499997,28.942001 71.0289999,29.1639987 71.047,29.416 C71.0650001,29.6680013 71.1039997,29.895999 71.164,30.1 C70.3239958,30.2800009 69.6100029,30.4449993 69.022,30.595 C68.4339971,30.7450007 67.9270021,30.8859993 67.501,31.018 C67.0749979,31.1500007 66.7090015,31.2789994 66.403,31.405 C66.0969985,31.5310006 65.8180013,31.6659993 65.566,31.81 C65.5179998,31.5099985 65.4610003,31.2340013 65.395,30.982 C65.3289997,30.7299987 65.2060009,30.4120019 65.026,30.028 C65.2780013,30.028 65.5719983,30.0070002 65.908,29.965 C66.2440017,29.9229998 66.6489976,29.8570005 67.123,29.767 C67.5970024,29.6769995 68.1579968,29.5480008 68.806,29.38 C69.4540032,29.2119992 70.2219956,29.0020013 71.11,28.75 L71.11,28.75 Z M77.518,19.75 C77.3619992,19.4739986 77.182001,19.1770016 76.978,18.859 C76.773999,18.5409984 76.5400013,18.2260016 76.276,17.914 L77.68,17.212 C77.9200012,17.5600017 78.1479989,17.8839985 78.364,18.184 C78.5800011,18.4840015 78.7719992,18.735999 78.94,18.94 L77.518,19.75 Z M66.7,23.512 C66.3999985,23.5720003 66.1270012,23.6319997 65.881,23.692 C65.6349988,23.7520003 65.4280008,23.8059998 65.26,23.854 C65.26,23.7699996 65.2480001,23.6650006 65.224,23.539 C65.1999999,23.4129994 65.1670002,23.2840007 65.125,23.152 C65.0829998,23.0199993 65.0350003,22.8910006 64.981,22.765 C64.9269997,22.6389994 64.8700003,22.5340004 64.81,22.45 C65.002001,22.3779996 65.2419986,22.1650018 65.53,21.811 C65.8180014,21.4569982 66.1149985,21.0070027 66.421,20.461 C66.7270015,19.9149973 67.0329985,19.2970034 67.339,18.607 C67.6450015,17.9169965 67.9119989,17.2000037 68.14,16.456 C68.4040013,16.6240008 68.6979984,16.7679994 69.022,16.888 C69.3460016,17.0080006 69.5979991,17.0859998 69.778,17.122 C69.9460008,17.1580002 70.03,17.2269995 70.03,17.329 C70.03,17.4310005 69.9640007,17.5119997 69.832,17.572 C69.6999993,17.6320003 69.5650007,17.7249994 69.427,17.851 C69.2889993,17.9770006 69.1060011,18.2049983 68.878,18.535 C68.6499989,18.8650016 68.3590018,19.332997 68.005,19.939 C67.6509982,20.545003 67.1860029,21.3579949 66.61,22.378 L69.004,22.018 C69.1600008,21.7419986 69.2889995,21.502001 69.391,21.298 C69.4930005,21.093999 69.5799996,20.9080008 69.652,20.74 C69.7240004,20.5719992 69.7869997,20.4130007 69.841,20.263 C69.8950003,20.1129992 69.9459998,19.9480009 69.994,19.768 C70.3420017,19.972001 70.6419987,20.1309994 70.894,20.245 C71.1460013,20.3590006 71.3919988,20.4459997 71.632,20.506 C71.7760007,20.5420002 71.845,20.6109995 71.839,20.713 C71.833,20.8150005 71.7400009,20.8899998 71.56,20.938 C71.4999997,20.9620001 71.4310004,21.0009997 71.353,21.055 C71.2749996,21.1090003 71.1580008,21.237999 71.002,21.442 C71.2180011,21.442 71.4129991,21.439 71.587,21.433 C71.7610009,21.427 71.943999,21.4120001 72.136,21.388 C72.328001,21.3639999 72.5319989,21.3340002 72.748,21.298 C72.9640011,21.2619998 73.2219985,21.2140003 73.522,21.154 C73.4979999,20.4339964 73.4800001,19.6840039 73.468,18.904 C73.4559999,18.1239961 73.4380001,17.338004 73.414,16.546 C73.6780013,16.6060003 73.9719984,16.6509998 74.296,16.681 C74.6200016,16.7110001 74.9019988,16.7140001 75.142,16.69 C75.2740007,16.6779999 75.3639998,16.7139996 75.412,16.798 C75.4600002,16.8820004 75.4180007,16.9839994 75.286,17.104 C75.2379998,17.1520002 75.1780004,17.277999 75.106,17.482 C75.0339996,17.686001 74.9920001,17.8599993 74.98,18.004 C74.9679999,18.196001 74.959,18.4179987 74.953,18.67 C74.947,18.9220013 74.9380001,19.1769987 74.926,19.435 C74.9139999,19.6930013 74.905,19.9479987 74.899,20.2 C74.893,20.4520013 74.89,20.679999 74.89,20.884 C75.3820025,20.7759995 75.8709976,20.6680005 76.357,20.56 C76.8430024,20.4519995 77.3049978,20.3470005 77.743,20.245 C78.1810022,20.1429995 78.5829982,20.0440005 78.949,19.948 C79.3150018,19.8519995 79.6299987,19.7680004 79.894,19.696 L80.182,21.082 C79.8939986,21.1180002 79.552002,21.1689997 79.156,21.235 C78.759998,21.3010003 78.3340023,21.3789995 77.878,21.469 C77.4219977,21.5590004 76.9420025,21.6519995 76.438,21.748 C75.9339975,21.8440005 75.4300025,21.9459995 74.926,22.054 C74.9500001,22.4140018 74.9769998,22.7619983 75.007,23.098 C75.0370001,23.4340017 75.0759998,23.7579984 75.124,24.07 C75.6400026,23.9619995 76.1529974,23.8510006 76.663,23.737 C77.1730025,23.6229994 77.6619977,23.5150005 78.13,23.413 C78.5980023,23.3109995 79.026998,23.2120005 79.417,23.116 C79.8070019,23.0199995 80.1399986,22.9360004 80.416,22.864 L80.704,24.25 C80.4159986,24.2860002 80.068002,24.3399996 79.66,24.412 C79.251998,24.4840004 78.8140023,24.5649995 78.346,24.655 C77.8779977,24.7450004 77.3860026,24.8409995 76.87,24.943 C76.3539974,25.0450005 75.8380026,25.1439995 75.322,25.24 C75.514001,26.2600051 75.7959981,27.1599961 76.168,27.94 C76.360001,27.7599991 76.5609989,27.5590011 76.771,27.337 C76.981001,27.1149989 77.1789991,26.8900011 77.365,26.662 C77.5510009,26.4339989 77.7279992,26.2090011 77.896,25.987 C78.0640008,25.7649989 78.2019995,25.558001 78.31,25.366 C78.4420007,25.4740005 78.5829992,25.5789995 78.733,25.681 C78.8830007,25.7830005 79.0239993,25.8789995 79.156,25.969 C79.2880007,26.0590004 79.4049995,26.1339997 79.507,26.194 C79.6090005,26.2540003 79.6779998,26.2899999 79.714,26.302 C79.8220005,26.3620003 79.876,26.4279996 79.876,26.5 C79.876,26.5720004 79.8280005,26.6139999 79.732,26.626 C79.6599996,26.626 79.5580007,26.6679996 79.426,26.752 C79.2939993,26.8360004 79.1470008,26.9439993 78.985,27.076 C78.8229992,27.2080007 78.6490009,27.3669991 78.463,27.553 C78.2769991,27.7390009 78.1000008,27.933999 77.932,28.138 C77.8239995,28.2700007 77.6830009,28.4229991 77.509,28.597 C77.3349991,28.7710009 77.1280012,28.959999 76.888,29.164 C77.3680024,29.7880031 77.9319968,30.3159978 78.58,30.748 C78.7360008,30.8560005 78.8649995,30.9249998 78.967,30.955 C79.0690005,30.9850001 79.1559996,30.9460005 79.228,30.838 C79.3000004,30.7299995 79.3599998,30.5380014 79.408,30.262 C79.4560002,29.9859986 79.5099997,29.5960025 79.57,29.092 C79.7860011,29.4040016 80.0439985,29.6469991 80.344,29.821 C80.6440015,29.9950009 80.9199987,30.0999998 81.172,30.136 C80.9559989,30.8320035 80.7640008,31.380998 80.596,31.783 C80.4279992,32.185002 80.2540009,32.4729991 80.074,32.647 C79.8939991,32.8210009 79.699001,32.8960001 79.489,32.872 C79.2789989,32.8479999 79.0300014,32.7580008 78.742,32.602 C78.0579966,32.2419982 77.4970022,31.8670019 77.059,31.477 C76.6209978,31.086998 76.2160019,30.6100028 75.844,30.046 C75.2559971,30.5020023 74.6110035,30.9639977 73.909,31.432 C73.2069965,31.9000023 72.4900037,32.3139982 71.758,32.674 C71.6499995,32.4459989 71.500001,32.2180011 71.308,31.99 C71.115999,31.7619989 70.9000012,31.5580009 70.66,31.378 C70.9960017,31.2819995 71.3049986,31.1830005 71.587,31.081 C71.8690014,30.9789995 72.1689984,30.8380009 72.487,30.658 C72.8050016,30.4779991 73.167998,30.2470014 73.576,29.965 C73.984002,29.6829986 74.487997,29.3080023 75.088,28.84 C74.5959975,27.9279954 74.2180013,26.8300064 73.954,25.546 C73.6659986,25.6180004 73.4080011,25.6779998 73.18,25.726 C72.9519989,25.7740002 72.739001,25.8219998 72.541,25.87 C72.342999,25.9180002 72.1510009,25.9689997 71.965,26.023 C71.7789991,26.0770003 71.5780011,26.1339997 71.362,26.194 L71.074,24.772 C71.3020011,24.7359998 71.511999,24.7030001 71.704,24.673 C71.896001,24.6429998 72.093999,24.6100002 72.298,24.574 C72.502001,24.5379998 72.7179989,24.5020002 72.946,24.466 C73.1740011,24.4299998 73.4379985,24.3820003 73.738,24.322 C73.7019998,24.0099984 73.6690001,23.6920016 73.639,23.368 C73.6089998,23.0439984 73.5820001,22.7080017 73.558,22.36 C73.2939987,22.4200003 73.063001,22.4769997 72.865,22.531 C72.666999,22.5850003 72.4780009,22.6329998 72.298,22.675 C72.1179991,22.7170002 71.9440008,22.7649997 71.776,22.819 C71.6079992,22.8730003 71.422001,22.9299997 71.218,22.99 L70.876,21.604 C70.7439993,21.7840009 70.582001,22.0089986 70.39,22.279 C70.197999,22.5490013 69.9670013,22.884998 69.697,23.287 C69.4269986,23.689002 69.1090018,24.1629973 68.743,24.709 C68.3769982,25.2550027 67.9540024,25.8879964 67.474,26.608 C68.1100032,26.5599998 68.7339969,26.4850005 69.346,26.383 C69.9580031,26.2809995 70.5099975,26.1640007 71.002,26.032 C70.9419997,26.236001 70.915,26.436999 70.921,26.635 C70.927,26.833001 70.9479998,27.0519988 70.984,27.292 L67.672,27.85 C67.3599984,27.9100003 67.102001,27.9579998 66.898,27.994 C66.693999,28.0300002 66.5200007,28.0599999 66.376,28.084 C66.2319993,28.1080001 66.1120005,28.1349998 66.016,28.165 C65.9199995,28.1950001 65.8360004,28.2279998 65.764,28.264 C65.764,28.0119987 65.7160005,27.7240016 65.62,27.4 C65.5239995,27.0759984 65.4160006,26.812001 65.296,26.608 C65.500001,26.5239996 65.700999,26.4190006 65.899,26.293 C66.097001,26.1669994 66.3099989,25.9810012 66.538,25.735 C66.7660011,25.4889988 67.0209986,25.168002 67.303,24.772 C67.5850014,24.375998 67.9179981,23.8600032 68.302,23.224 L66.7,23.512 Z M91.126,30.082 C92.0020044,30.082 92.8089963,30.079 93.547,30.073 C94.2850037,30.067 94.9689968,30.0550001 95.599,30.037 C96.2290031,30.0189999 96.8109973,30.0010001 97.345,29.983 C97.8790027,29.9649999 98.3859976,29.9380002 98.866,29.902 L98.866,31.702 C98.3739975,31.6659998 97.8580027,31.6390001 97.318,31.621 C96.7779973,31.6029999 96.1900032,31.5850001 95.554,31.567 C94.9179968,31.5489999 94.2280037,31.537 93.484,31.531 C92.7399963,31.525 91.9180045,31.522 91.018,31.522 C89.2299911,31.522 87.7060063,31.5369999 86.446,31.567 C85.1859937,31.5970002 84.0760048,31.6419997 83.116,31.702 L83.116,29.902 C83.9440041,29.9620003 84.8649949,30.0039999 85.879,30.028 C86.8930051,30.0520001 88.0839932,30.0699999 89.452,30.082 L89.452,21.37 C89.452,20.6499964 89.449,20.0320026 89.443,19.516 C89.437,18.9999974 89.4280001,18.5650018 89.416,18.211 C89.4039999,17.8569982 89.3890001,17.5720011 89.371,17.356 C89.3529999,17.1399989 89.3320001,16.9660007 89.308,16.834 C89.6080015,16.8940003 89.9439981,16.9359999 90.316,16.96 C90.6880019,16.9840001 91.0479983,16.996 91.396,16.996 C91.5640008,16.996 91.6569999,17.0319996 91.675,17.104 C91.6930001,17.1760004 91.6240008,17.2659995 91.468,17.374 C91.3719995,17.4460004 91.2910003,17.6349985 91.225,17.941 C91.1589997,18.2470015 91.126,18.603998 91.126,19.012 L91.126,21.388 L93.502,21.388 C94.3180041,21.388 95.0349969,21.3760001 95.653,21.352 C96.2710031,21.3279999 96.8259975,21.2920002 97.318,21.244 L97.318,23.026 C96.8379976,22.9659997 96.2860031,22.9270001 95.662,22.909 C95.0379969,22.8909999 94.3180041,22.882 93.502,22.882 L91.126,22.882 L91.126,30.082 Z M112.312,18.868 C112.216,19.660004 112.093001,20.3739968 111.943,21.01 C111.792999,21.6460032 111.595001,22.2219974 111.349,22.738 C111.102999,23.2540026 110.797002,23.7219979 110.431,24.142 C110.064998,24.5620021 109.624003,24.9519982 109.108,25.312 C108.903999,25.0239986 108.715001,24.7990008 108.541,24.637 C108.366999,24.4749992 108.154001,24.3280007 107.902,24.196 C108.382002,23.9439987 108.789998,23.6680015 109.126,23.368 C109.462002,23.0679985 109.743999,22.7110021 109.972,22.297 C110.200001,21.8829979 110.382999,21.3970028 110.521,20.839 C110.659001,20.2809972 110.764,19.6240038 110.836,18.868 C110.223997,18.8800001 109.681002,18.8949999 109.207,18.913 C108.732998,18.9310001 108.370001,18.9639998 108.118,19.012 L108.118,17.428 C108.550002,17.4880003 109.080997,17.5299999 109.711,17.554 C110.341003,17.5780001 111.183995,17.59 112.24,17.59 C113.404006,17.59 114.363996,17.5780001 115.12,17.554 C115.876004,17.5299999 116.409998,17.4880003 116.722,17.428 C116.698,17.7760017 116.665,18.1689978 116.623,18.607 C116.581,19.0450022 116.533,19.4979977 116.479,19.966 C116.425,20.4340023 116.371,20.9109976 116.317,21.397 C116.263,21.8830024 116.206,22.3539977 116.146,22.81 C116.098,23.1820019 116.017001,23.4879988 115.903,23.728 C115.788999,23.9680012 115.612001,24.1629992 115.372,24.313 C115.131999,24.4630007 114.817002,24.5769996 114.427,24.655 C114.036998,24.7330004 113.542003,24.7959998 112.942,24.844 C112.87,24.5319984 112.783001,24.2560012 112.681,24.016 C112.578999,23.7759988 112.432001,23.5120014 112.24,23.224 C112.696002,23.2600002 113.070999,23.275 113.365,23.269 C113.659001,23.263 113.895999,23.2300003 114.076,23.17 C114.256001,23.1099997 114.391,23.0170006 114.481,22.891 C114.571,22.7649994 114.634,22.5940011 114.67,22.378 C114.706,22.1259987 114.745,21.8440016 114.787,21.532 C114.829,21.2199984 114.868,20.9080016 114.904,20.596 C114.94,20.2839984 114.97,19.9780015 114.994,19.678 C115.018,19.3779985 115.036,19.1080012 115.048,18.868 L112.312,18.868 Z M109.918,31.45 L109.918,32.674 L108.424,32.674 C108.484,32.1819975 108.526,31.7530018 108.55,31.387 C108.574,31.0209982 108.586,30.6760016 108.586,30.352 L108.586,27.31 C108.586,26.8659978 108.577,26.5030014 108.559,26.221 C108.541,25.9389986 108.508,25.6900011 108.46,25.474 C108.628001,25.4980001 108.816999,25.5219999 109.027,25.546 C109.237001,25.5700001 109.491998,25.5879999 109.792,25.6 C110.092001,25.6120001 110.454998,25.621 110.881,25.627 C111.307002,25.633 111.825997,25.636 112.438,25.636 C112.966003,25.636 113.430998,25.633 113.833,25.627 C114.235002,25.621 114.591998,25.6120001 114.904,25.6 C115.216002,25.5879999 115.488999,25.5700001 115.723,25.546 C115.957001,25.5219999 116.175999,25.4980001 116.38,25.474 C116.344,25.6900011 116.317,25.9449985 116.299,26.239 C116.281,26.5330015 116.272,26.8899979 116.272,27.31 L116.272,30.208 C116.272,30.6280021 116.284,31.0119983 116.308,31.36 C116.332,31.7080017 116.374,32.0919979 116.434,32.512 L114.778,32.512 L114.778,31.45 L109.918,31.45 Z M114.778,30.28 L114.778,26.86 L109.918,26.86 L109.918,30.28 L114.778,30.28 Z M104.05,21.676 C102.957995,21.6880001 102.088003,21.7419995 101.44,21.838 L101.44,20.272 C101.764002,20.3200002 102.138998,20.3529999 102.565,20.371 C102.991002,20.3890001 103.485997,20.4039999 104.05,20.416 C104.05,19.407995 104.029,18.5860032 103.987,17.95 C103.945,17.3139968 103.894,16.8580014 103.834,16.582 C104.458003,16.6900005 105.033997,16.7320001 105.562,16.708 C105.838001,16.6959999 106,16.7319996 106.048,16.816 C106.096,16.9000004 106.024001,17.0199992 105.832,17.176 C105.699999,17.2720005 105.613,17.3619996 105.571,17.446 C105.529,17.5300004 105.508,17.6499992 105.508,17.806 L105.508,20.416 C105.964002,20.4039999 106.374998,20.3890001 106.741,20.371 C107.107002,20.3529999 107.433999,20.3200002 107.722,20.272 L107.722,21.838 C107.433999,21.7899998 107.107002,21.7570001 106.741,21.739 C106.374998,21.7209999 105.964002,21.7060001 105.508,21.694 L105.508,24.682 C105.820002,24.5739995 106.125998,24.4660005 106.426,24.358 C106.726001,24.2499995 107.013999,24.1480005 107.29,24.052 C107.23,24.3400014 107.203,24.5979989 107.209,24.826 C107.215,25.0540011 107.26,25.2819989 107.344,25.51 C107.031998,25.6060005 106.726001,25.7049995 106.426,25.807 C106.125998,25.9090005 105.820002,26.0199994 105.508,26.14 L105.508,30.982 C105.508,31.2940016 105.484,31.548999 105.436,31.747 C105.388,31.945001 105.271001,32.1099993 105.085,32.242 C104.898999,32.3740007 104.614002,32.4879995 104.23,32.584 C103.845998,32.6800005 103.324003,32.7819995 102.664,32.89 C102.604,32.6019986 102.505001,32.3140014 102.367,32.026 C102.228999,31.7379986 102.016001,31.4380016 101.728,31.126 C102.208002,31.1740002 102.600998,31.198 102.907,31.198 C103.213002,31.198 103.449999,31.1680003 103.618,31.108 C103.786001,31.0479997 103.9,30.9610006 103.96,30.847 C104.02,30.7329994 104.05,30.5920008 104.05,30.424 L104.05,26.698 C103.233996,27.0220016 102.478003,27.3699981 101.782,27.742 C101.734,27.4059983 101.671,27.0850015 101.593,26.779 C101.515,26.4729985 101.410001,26.1820014 101.278,25.906 C101.746002,25.7859994 102.210998,25.6630006 102.673,25.537 C103.135002,25.4109994 103.593998,25.2820007 104.05,25.15 L104.05,21.676 Z M128.53,28.318 C129.382004,28.318 130.104997,28.315 130.699,28.309 C131.293003,28.303 131.790998,28.297 132.193,28.291 C132.595002,28.285 132.915999,28.2760001 133.156,28.264 C133.396001,28.2519999 133.587999,28.2340001 133.732,28.21 C133.648,28.9300036 133.567,29.5449974 133.489,30.055 C133.411,30.5650025 133.321001,30.9909983 133.219,31.333 C133.116999,31.6750017 132.988001,31.944999 132.832,32.143 C132.675999,32.341001 132.475001,32.4939995 132.229,32.602 C131.982999,32.7100005 131.677002,32.7879998 131.311,32.836 C130.944998,32.8840002 130.498003,32.9259998 129.97,32.962 C130.078001,32.4699975 129.922002,31.9180031 129.502,31.306 C129.970002,31.3900004 130.356998,31.432 130.663,31.432 C130.969002,31.432 131.220999,31.3630007 131.419,31.225 C131.617001,31.0869993 131.766999,30.8770014 131.869,30.595 C131.971001,30.3129986 132.046,29.9320024 132.094,29.452 C129.477987,29.452 127.774004,29.4699998 126.982,29.506 L127.54,26.95 C126.999997,26.9620001 126.562002,26.9769999 126.226,26.995 C125.889998,27.0130001 125.566002,27.0459998 125.254,27.094 L125.254,25.618 C125.638002,25.6780003 126.207996,25.7229998 126.964,25.753 C127.720004,25.7830001 128.757993,25.798 130.078,25.798 C130.918004,25.798 131.625997,25.795 132.202,25.789 C132.778003,25.783 133.257998,25.7710001 133.642,25.753 C134.026002,25.7349999 134.331999,25.7140001 134.56,25.69 C134.788001,25.6659999 134.973999,25.6420001 135.118,25.618 L135.118,27.094 C134.985999,27.0819999 134.815001,27.0670001 134.605,27.049 C134.394999,27.0309999 134.158001,27.0130001 133.894,26.995 C133.629999,26.9769999 133.354001,26.965 133.066,26.959 C132.777999,26.953 132.496001,26.95 132.22,26.95 L128.854,26.95 L128.53,28.318 Z M129.232,19.588 L127.27,19.588 L127.27,21.064 L129.232,21.064 L129.232,19.588 Z M130.51,21.064 L132.634,21.064 L132.634,19.588 L130.51,19.588 L130.51,21.064 Z M129.232,18.472 C129.232,17.9319973 129.223,17.5180014 129.205,17.23 C129.187,16.9419986 129.16,16.7320007 129.124,16.6 C129.400001,16.6360002 129.672999,16.6629999 129.943,16.681 C130.213001,16.6990001 130.449999,16.7020001 130.654,16.69 C130.774001,16.6779999 130.843,16.7049997 130.861,16.771 C130.879,16.8370003 130.822001,16.9059996 130.69,16.978 C130.642,17.0020001 130.6,17.0829993 130.564,17.221 C130.528,17.3590007 130.51,17.5479988 130.51,17.788 L130.51,18.472 C131.302004,18.4599999 131.979997,18.4390001 132.544,18.409 C133.108003,18.3789998 133.611998,18.3400002 134.056,18.292 C134.008,18.688002 133.975,19.1769971 133.957,19.759 C133.939,20.3410029 133.93,20.9379969 133.93,21.55 C133.93,22.1380029 133.942,22.731997 133.966,23.332 C133.99,23.932003 134.02,24.4239981 134.056,24.808 C133.575998,24.7599998 133.006003,24.7210001 132.346,24.691 C131.685997,24.6609998 130.888005,24.646 129.952,24.646 C129.015995,24.646 128.221003,24.6609998 127.567,24.691 C126.912997,24.7210001 126.346002,24.7599998 125.866,24.808 C125.926,24.3879979 125.971,23.881003 126.001,23.287 C126.031,22.692997 126.046,22.096003 126.046,21.496 C126.046,20.8839969 126.031,20.2930028 126.001,19.723 C125.971,19.1529971 125.926,18.6760019 125.866,18.292 C126.310002,18.3520003 126.795997,18.3939999 127.324,18.418 C127.852003,18.4420001 128.487996,18.4599999 129.232,18.472 L129.232,18.472 Z M130.51,23.602 L132.634,23.602 L132.634,22.09 L130.51,22.09 L130.51,23.602 Z M129.232,22.09 L127.27,22.09 L127.27,23.602 L129.232,23.602 L129.232,22.09 Z M123.148,19.084 L121.132,19.084 L121.132,21.424 L123.148,21.424 L123.148,19.084 Z M123.148,22.576 L121.132,22.576 L121.132,24.97 L123.148,24.97 L123.148,22.576 Z M123.148,26.122 L121.132,26.122 L121.132,28.912 L123.148,28.606 L123.148,26.122 Z M124.372,30.964 C124.372,31.2400014 124.381,31.5549982 124.399,31.909 C124.417,32.2630018 124.444,32.6139983 124.48,32.962 L123.058,32.962 C123.082,32.6139983 123.103,32.2630018 123.121,31.909 C123.139,31.5549982 123.148,31.2400014 123.148,30.964 L123.148,29.812 C122.475997,29.9560007 121.792003,30.1119992 121.096,30.28 C120.399997,30.4480008 119.764003,30.6159992 119.188,30.784 C119.152,30.1959971 119.044001,29.6380026 118.864,29.11 C119.176002,29.11 119.523998,29.0920002 119.908,29.056 L119.908,19.102 C119.727999,19.1140001 119.563001,19.1289999 119.413,19.147 C119.262999,19.1650001 119.104001,19.1919998 118.936,19.228 L118.936,17.77 C119.092001,17.7940001 119.262999,17.8149999 119.449,17.833 C119.635001,17.8510001 119.844999,17.863 120.079,17.869 C120.313001,17.875 120.582998,17.881 120.889,17.887 C121.195002,17.893 121.557998,17.896 121.978,17.896 C122.518003,17.896 122.967998,17.893 123.328,17.887 C123.688002,17.881 123.984999,17.8720001 124.219,17.86 C124.453001,17.8479999 124.641999,17.8360001 124.786,17.824 C124.930001,17.8119999 125.055999,17.7940001 125.164,17.77 L125.164,19.246 C124.947999,19.1979998 124.684002,19.1620001 124.372,19.138 L124.372,28.354 C124.636001,28.2939997 124.890999,28.2340003 125.137,28.174 C125.383001,28.1139997 125.619999,28.0540003 125.848,27.994 C125.776,28.402002 125.752,28.8339977 125.776,29.29 C125.571999,29.3140001 125.356001,29.3469998 125.128,29.389 C124.899999,29.4310002 124.648001,29.4819997 124.372,29.542 L124.372,30.964 Z" id="Rectangle-31"></path>
                </g>
            </g>
        </g>
    </g>
</svg>