<?xml version="1.0" encoding="UTF-8" standalone="no"?>
<svg width="52px" height="99px" viewBox="0 0 52 99" version="1.1" xmlns="http://www.w3.org/2000/svg" xmlns:xlink="http://www.w3.org/1999/xlink">
    <!-- Generator: Sketch 3.7.2 (28276) - http://www.bohemiancoding.com/sketch -->
    <title>persona_back</title>
    <desc>Created with Sketch.</desc>
    <defs>
        <path d="M39.5740296,50.2027509 C41.9493536,51.692503 44.3710145,54.1200684 45.1534849,57.6521025 C46.2226003,62.4668661 46.9899898,72.8182845 47.0199612,73.258689 C47.1824909,75.4457677 45.5459297,77.35358 43.3656586,77.5110836 C43.2650833,77.5203725 43.1681287,77.5240071 43.0711741,77.5246127 C41.0162198,77.5256226 39.2810949,75.9340287 39.1288239,73.8416539 C39.1203756,73.7530079 38.5205446,65.6466213 37.7179538,60.897686 C37.7179538,60.897686 37.7239883,72.1856449 37.722379,72.1880681 L37.7340458,94.8944317 C37.7346493,97.0003356 36.0347257,98.706826 33.9399435,98.7064224 L30.8194946,98.7098549 C28.7222986,98.7092493 27.0215705,97.0041723 27.0215705,94.9017009 L27.012921,76.8824779 C27.012921,76.8824779 26.7259197,76.4889885 25.7344088,76.4889891 C24.742898,76.4889897 24.4581075,76.884497 24.4581075,76.884497 L24.4673604,94.9027108 C24.4687685,97.004778 22.7684426,98.713288 20.675672,98.7134901 L17.5538149,98.715105 C15.4564179,98.7167205 13.7575001,97.0112394 13.754684,94.906951 C13.754684,94.906951 13.745431,72.1939239 13.7452298,72.1896836 L13.7412069,60.9073785 C12.9424379,65.657525 12.3496471,73.7641138 12.3430092,73.854981 C12.1907382,75.9477599 10.4556133,77.5395559 8.40106126,77.5397574 C8.30450895,77.5427863 8.20674975,77.535315 8.1073814,77.5284494 C5.92811602,77.3729655 4.29034798,75.4663639 4.44825118,73.2788817 C4.48123988,72.8392849 5.23816951,62.4860489 6.30225607,57.6690644 C7.08814847,54.1103051 9.53795911,51.670375 11.9285091,50.1812335 C11.4600996,50.102687 11.0010155,49.9723358 10.5592059,49.7918657 C7.57312545,48.5693955 4.87790882,47.0117254 2.545769,45.1624717 C0.996507224,43.9347514 0.0911284609,42.0612665 0.091329612,40.0787405 L0.0881112025,29.2002908 C0.0836858896,21.8256901 3.3447391,15.1994334 8.50324572,10.6760515 L8.49982621,1.12103566 C8.49801585,0.55503238 8.95161041,0.0966565516 9.63612581,0.0974642622 C10.1979394,0.0966565516 10.6539477,0.555436233 10.6559592,1.11921831 L10.65958,8.98349367 C14.6632811,6.18881458 19.533539,4.54249823 24.7817587,4.54108474 L26.912748,4.53906546 C40.5356711,4.53361341 51.6240968,15.5843075 51.6289244,29.1778768 L51.6345566,40.0561247 C51.6359647,42.037641 50.7366205,43.9121356 49.1857495,45.1402597 C46.8556212,46.9943597 44.1632207,48.5522317 41.1757322,49.7781346 C40.6614876,49.9886002 40.1228013,50.130989 39.5740296,50.2027509 L39.5740296,50.2027509 L39.5740296,50.2027509 Z" id="path-1"></path>
        <path d="M39.5740296,50.2027509 C41.9493536,51.692503 44.3710145,54.1200684 45.1534849,57.6521025 C46.2226003,62.4668661 46.9899898,72.8182845 47.0199612,73.258689 C47.1824909,75.4457677 45.5459297,77.35358 43.3656586,77.5110836 C43.2650833,77.5203725 43.1681287,77.5240071 43.0711741,77.5246127 C41.0162198,77.5256226 39.2810949,75.9340287 39.1288239,73.8416539 C39.1203756,73.7530079 38.5205446,65.6466213 37.7179538,60.897686 C37.7179538,60.897686 37.7239883,72.1856449 37.722379,72.1880681 L37.7340458,94.8944317 C37.7346493,97.0003356 36.0347257,98.706826 33.9399435,98.7064224 L30.8194946,98.7098549 C28.7222986,98.7092493 27.0215705,97.0041723 27.0215705,94.9017009 L27.012921,76.8824779 C27.012921,76.8824779 26.7259197,76.4889885 25.7344088,76.4889891 C24.742898,76.4889897 24.4581075,76.884497 24.4581075,76.884497 L24.4673604,94.9027108 C24.4687685,97.004778 22.7684426,98.713288 20.675672,98.7134901 L17.5538149,98.715105 C15.4564179,98.7167205 13.7575001,97.0112394 13.754684,94.906951 C13.754684,94.906951 13.745431,72.1939239 13.7452298,72.1896836 L13.7412069,60.9073785 C12.9424379,65.657525 12.3496471,73.7641138 12.3430092,73.854981 C12.1907382,75.9477599 10.4556133,77.5395559 8.40106126,77.5397574 C8.30450895,77.5427863 8.20674975,77.535315 8.1073814,77.5284494 C5.92811602,77.3729655 4.29034798,75.4663639 4.44825118,73.2788817 C4.48123988,72.8392849 5.23816951,62.4860489 6.30225607,57.6690644 C7.08814847,54.1103051 9.53795911,51.670375 11.9285091,50.1812335 C11.4600996,50.102687 11.0010155,49.9723358 10.5592059,49.7918657 C7.57312545,48.5693955 4.87790882,47.0117254 2.545769,45.1624717 C0.996507224,43.9347514 0.0911284609,42.0612665 0.091329612,40.0787405 L0.0881112025,29.2002908 C0.0836858896,21.8256901 3.3447391,15.1994334 8.50324572,10.6760515 L8.49982621,1.12103566 C8.49801585,0.55503238 8.95161041,0.0966565516 9.63612581,0.0974642622 C10.1979394,0.0966565516 10.6539477,0.555436233 10.6559592,1.11921831 L10.65958,8.98349367 C14.6632811,6.18881458 19.533539,4.54249823 24.7817587,4.54108474 L26.912748,4.53906546 C40.5356711,4.53361341 51.6240968,15.5843075 51.6289244,29.1778768 L51.6345566,40.0561247 C51.6359647,42.037641 50.7366205,43.9121356 49.1857495,45.1402597 C46.8556212,46.9943597 44.1632207,48.5522317 41.1757322,49.7781346 C40.6614876,49.9886002 40.1228013,50.130989 39.5740296,50.2027509 L39.5740296,50.2027509 L39.5740296,50.2027509 Z" id="path-3"></path>
    </defs>
    <g id="Canvas" stroke="none" stroke-width="1" fill="none" fill-rule="evenodd">
        <g id="Case" transform="translate(-162.000000, -498.000000)">
            <g id="persona_back" transform="translate(161.949045, 498.000000)">
                <path d="M39.773274,50.3565396 C42.148598,51.8462917 44.5702589,54.2738571 45.3527293,57.8058912 C46.4218447,62.6206548 47.1892342,72.9720733 47.2192056,73.4124778 C47.3817353,75.5995564 45.7451741,77.5073688 43.564903,77.6648723 C43.4643277,77.6741612 43.3673731,77.6777958 43.2704185,77.6784015 C41.2154642,77.6794113 39.4803393,76.0878175 39.3280683,73.9954427 C39.31962,73.9067967 38.7197889,65.80041 37.9171982,61.0514748 C37.9171982,61.0514748 37.9232326,72.3394336 37.9216234,72.3418569 L37.9332902,95.0482205 C37.9338936,97.1541244 36.2339701,98.8606148 34.1391879,98.8602112 L31.018739,98.8636437 C28.921543,98.863038 27.2208148,97.1579611 27.2208148,95.0554897 L27.2121654,77.0362667 C27.2121654,77.0362667 26.9251641,76.6427773 25.9336532,76.6427779 C24.9421424,76.6427785 24.6573519,77.0382858 24.6573519,77.0382858 L24.6666048,95.0564995 C24.6680129,97.1585667 22.967687,98.8670768 20.8749164,98.8672789 L17.7530593,98.8688938 C15.6556623,98.8705093 13.9567444,97.1650282 13.9539283,95.0607398 C13.9539283,95.0607398 13.9446754,72.3477127 13.9444742,72.3434724 L13.9404512,61.0611672 C13.1416823,65.8113138 12.5488915,73.9179025 12.5422536,74.0087697 C12.3899826,76.1015487 10.6548576,77.6933446 8.60030565,77.6935461 C8.50375334,77.696575 8.40599414,77.6891038 8.30662578,77.6822381 C6.1273604,77.5267542 4.48959237,75.6201526 4.64749557,73.4326704 C4.68048427,72.9930737 5.4374139,62.6398376 6.50150046,57.8228531 C7.28739285,54.2640939 9.7372035,51.8241638 12.1277535,50.3350222 C11.659344,50.2564757 11.2002599,50.1261245 10.7584502,49.9456545 C7.77236984,48.7231843 5.07715321,47.1655142 2.74501338,45.3162605 C1.19575161,44.0885402 0.290372845,42.2150552 0.290573997,40.2325293 L0.287355587,29.3540795 C0.282930274,21.9794788 3.54398349,15.3532221 8.70249011,10.8298402 L8.69907059,1.27482441 C8.69726024,0.708821127 9.1508548,0.250445298 9.83537019,0.251253009 C10.3971837,0.250445298 10.8531921,0.70922498 10.8552036,1.27300706 L10.8588243,9.13728241 C14.8625255,6.34260332 19.7327834,4.69628697 24.9810031,4.69487348 L27.1119924,4.69285421 C40.7349154,4.68740216 51.8233412,15.7380962 51.8281688,29.3316656 L51.833801,40.2099134 C51.8352091,42.1914297 50.9358649,44.0659243 49.3849939,45.2940485 C47.0548656,47.1481484 44.362465,48.7060204 41.3749766,49.9319234 C40.860732,50.1423889 40.3220457,50.2847778 39.773274,50.3565396 L39.773274,50.3565396 L39.773274,50.3565396 Z" id="body" fill="#F7F7F7" transform="translate(26.060577, 49.560073) scale(-1, 1) translate(-26.060577, -49.560073) "></path>
                <g id="lighter-Clipped" transform="translate(0.199238, 0.153789)">
                    <mask id="mask-2" fill="white">
                        <use xlink:href="#path-1"></use>
                    </mask>
                    <g id="path-1" transform="translate(25.861333, 49.406285) scale(-1, 1) translate(-25.861333, -49.406285) "></g>
                    <path d="M34.1322837,15.2441566 C37.4523996,16.8716756 41.3253653,16.1424722 42.7827947,13.6154351 C44.2402241,11.0883981 42.7302182,7.72046499 39.4101022,6.09294597 C36.0899863,4.46542693 32.2170205,5.19463035 30.7595912,7.7216674 C29.3021618,10.2487044 30.8121676,13.6166375 34.1322837,15.2441566 L34.1322837,15.2441566 L34.1322837,15.2441566 Z" id="lighter" fill="#FFFFFF" mask="url(#mask-2)"></path>
                </g>
                <g id="shadow-Clipped" transform="translate(0.199238, 0.153789)">
                    <mask id="mask-4" fill="white">
                        <use xlink:href="#path-3"></use>
                    </mask>
                    <g id="path-1" transform="translate(25.861333, 49.406285) scale(-1, 1) translate(-25.861333, -49.406285) "></g>
                    <path d="M14.5600805,48.8882882 C14.5878016,48.8652771 14.6023428,48.8534307 14.6023428,48.8534307 L14.5284065,48.8764126 C13.8785335,48.6366388 11.9166619,48.1325101 10.0760758,47.2939566 C7.66454745,46.1952873 3.33894905,43.6813372 2.40846107,41.0476752 C1.47797308,38.4140133 1.18118335,33.0511593 1.9567143,25.5288494 C2.73224523,18.0065394 8.52822046,10.6572464 8.52822046,10.6572464 L4.56145426,13.8223125 L-1.75688577,19.1883856 L-2.88945923,43.0310447 C-2.88945923,43.0310447 5.93727447,49.3778203 9.76063735,50.3583948 L9.01732693,50.5894405 L6.45494287,52.8596994 L3.07720736,72.9563266 L4.53088044,77.2867683 L7.65522613,79.4755718 L12.2430882,77.9406544 L12.7133284,73.0687766 C12.7133284,73.0687766 12.6053507,74.1467077 11.5947742,75.029087 C10.5841977,75.9114663 9.42955144,76.2940353 7.99549031,75.8682684 C6.56142924,75.442501 6.02646201,74.0859158 6.02646201,72.9563266 C6.02646201,71.8267373 7.14456882,58.4130142 9.01732693,55.1453808 C10.3453894,52.8281453 12.5985193,50.6332717 13.796827,49.5525309 C14.2833834,49.2906077 14.5281466,49.0754662 14.7116628,49.0253247 C14.80026,49.0011176 14.7376688,48.9560285 14.5600805,48.8882882 L14.5600805,48.8882882 L14.5600805,48.8882882 L14.5600805,48.8882882 L14.5600805,48.8882882 L14.5600805,48.8882882 L14.5600805,48.8882882 L14.5600805,48.8882882 Z M13.7527263,60.9075366 C13.7527263,60.9075366 14.3441805,61.8330763 14.5508893,62.8385366 C14.7575981,63.843997 14.681089,93.3912016 14.8347038,94.8296914 C14.9883186,96.2681806 15.7359602,97.0894685 16.4478082,97.3537482 C17.1596561,97.618028 20.1642419,97.9799336 21.7794342,97.5621771 C23.3946265,97.1444206 23.8669547,96.5896582 24.3791034,95.6701454 C24.8912521,94.750632 25.2441187,92.772503 25.2441187,92.772503 L25.623234,99.7623611 L11.9542029,102.170075 L10.6519075,86.1357168 L13.4488897,69.0211811 L13.7527263,60.9075366 L13.7527263,60.9075366 L13.7527263,60.9075366 L13.7527263,60.9075366 L13.7527263,60.9075366 Z M24.4964025,76.867889 C24.4964025,76.867889 25.0796912,76.2435005 26.0535791,76.2435005 C27.027467,76.2435005 27.8852863,76.6726362 27.9880068,77.1515591 C28.0907274,77.6304813 28.0394603,93.5343469 28.2470639,95.015061 C28.4546676,96.4957757 29.1217734,97.2821756 30.0870111,97.6430333 C31.0522488,98.003891 34.2034399,98.144191 35.7747848,97.5275888 C37.3461298,96.9109865 37.8857204,95.4057158 37.8857204,95.4057158 L37.5176415,98.6844294 L28.7493694,100.012266 L25.8332239,97.6430333 L24.4964025,76.867889 L24.4964025,76.867889 L24.4964025,76.867889 L24.4964025,76.867889 L24.4964025,76.867889 Z M44.7628901,46.7784243 C39.8570604,49.0551217 36.5383156,48.9172171 36.9339855,49.0253247 C37.3296554,49.1334323 38.393075,49.6396711 40.3723724,50.5831807 C42.3516699,51.5266903 51.27735,44.0680989 51.8555679,41.5838708 C51.8555679,41.5838708 49.6687198,44.5017269 44.7628901,46.7784243 L44.7628901,46.7784243 L44.7628901,46.7784243 L44.7628901,46.7784243 L44.7628901,46.7784243 Z M37.7238283,60.9789969 C37.7238283,60.9789969 38.1274772,61.1817359 38.2986906,61.8467023 C38.469904,62.5116687 39.7763007,73.2809489 39.9806979,74.1485794 C40.1850951,75.0162099 40.7658857,75.7302888 41.8454024,76.0826119 C42.924919,76.4349344 44.6201628,76.3680044 45.3673569,75.826717 C46.1145508,75.2854301 47.1858277,74.1485794 47.28001,72.9423267 C47.3741923,71.736074 48.1260099,73.2474084 48.1260099,73.2474084 L46.9652489,77.8350919 L39.9806979,78.3850632 L38.7349267,74.2350506 L37.7238283,60.9789969 L37.7238283,60.9789969 L37.7238283,60.9789969 Z" id="shadow" fill-opacity="0.24" fill="#000000" mask="url(#mask-4)"></path>
                </g>
            </g>
        </g>
    </g>
</svg>