<?xml version="1.0" encoding="UTF-8" standalone="no"?>
<svg width="200px" height="200px" viewBox="0 0 200 200" version="1.1" xmlns="http://www.w3.org/2000/svg" xmlns:xlink="http://www.w3.org/1999/xlink">
    <!-- Generator: Sketch 3.7.2 (28276) - http://www.bohemiancoding.com/sketch -->
    <title>planet_red</title>
    <desc>Created with Sketch.</desc>
    <defs></defs>
    <g id="Symbols" stroke="none" stroke-width="1" fill="none" fill-rule="evenodd">
        <g id="planet_red">
            <g>
                <path d="M94.3358161,17.9003082 C86.5206344,39.4741479 128.778297,28.1371633 159.061297,19.6435649 C142.529437,7.41584096 122.1049,0.185231182 99.9867427,0.185231182 C90.0238774,0.185231182 80.4007306,1.65761001 71.3227904,4.39131561 C83.3040805,5.24549475 97.817516,8.28663837 94.3358161,17.9003082" id="Fill-1" fill="#C6340C"></path>
                <path d="M74.1283678,107.376404 C78.1701889,119.672263 47.865645,125.365682 50.4359052,139.519464 C53.0061654,153.674907 116.994209,148.774179 109.290057,127.03748 C101.58922,105.302444 113.076675,109.192781 138.265556,110.901139 C154.376497,111.994621 180.354187,117.001706 197.532341,120.464954 C198.891215,113.884119 199.605453,107.067304 199.605453,100.082645 C199.605453,76.3201787 191.324608,54.4954032 177.510495,37.348671 C154.578671,35.339522 114.718924,33.9402636 116.795349,48.7770561 C118.421026,60.4331115 136.666393,62.1165423 138.767676,69.9238061 C144.007627,89.4103909 49.1582324,89.1777351 48.1142195,73.8822783 C47.0702067,58.5851597 81.6684604,63.5839357 74.9055773,41.1559169 C70.7676408,27.4325486 44.3607448,30.4936341 24.4582145,34.9406835 C9.44265859,52.4347375 0.368032787,75.1934599 0.368032787,100.082645 C0.368032787,105.76277 0.845295795,111.323243 1.75176408,116.7408 C25.1177655,110.073549 71.1139879,98.2297074 74.1283678,107.376404" id="Fill-2" fill="#D12D01"></path>
                <path d="M74.9055773,41.1559169 C81.6684604,63.5839357 47.0702067,58.5851597 48.1142195,73.8822783 C49.1582324,89.1777351 144.007627,89.4103909 138.767676,69.9238061 C136.666393,62.1165423 118.421026,60.4331115 116.795349,48.7770561 C114.718924,33.9402636 154.578671,35.339522 177.510495,37.348671 C172.139629,30.6880679 165.938525,24.7354032 159.061297,19.6435649 C128.778297,28.1371633 86.5206344,39.4741479 94.3358161,17.9003082 C97.817516,8.28663837 83.3040805,5.24549475 71.3227904,4.39131561 C52.8885068,9.93184722 36.7013364,20.6855305 24.4582145,34.9406835 C44.3607448,30.4936341 70.7676408,27.4325486 74.9055773,41.1559169" id="Fill-3" fill="#FC4F13"></path>
                <path d="M194.232929,132.513201 C177.029918,131.474559 131.974964,130.379415 128.854526,148.202511 C126.730043,160.338834 147.486012,169.086692 166.462188,174.485968 C178.991999,163.217119 188.65989,148.819048 194.232929,132.513201" id="Fill-4" fill="#D12D01"></path>
                <path d="M71.86634,164.950404 C55.4852815,164.976994 43.4841055,171.042662 35.9390413,176.596489 C53.2547398,191.188993 75.5916429,199.985044 99.9867427,199.985044 C114.932698,199.985044 129.106415,196.674684 141.830114,190.763565 C134.177334,190.783507 125.823574,190.358079 117.083696,189.209757 C80.8431932,184.432004 118.421026,164.878946 71.86634,164.950404" id="Fill-5" fill="#D12D01"></path>
                <path d="M128.854526,148.202511 C131.974964,130.379415 177.029918,131.474559 194.232929,132.513201 C195.57026,128.60126 196.68056,124.576314 197.532341,120.464954 C180.354187,117.001706 154.376497,111.994621 138.265556,110.901139 C113.076675,109.192781 101.58922,105.302444 109.290057,127.03748 C116.994209,148.774179 53.0061654,153.674907 50.4359052,139.519464 C47.865645,125.365682 78.1701889,119.672263 74.1283678,107.376404 C71.1139879,98.2297074 25.1177655,110.073549 1.75176408,116.7408 C5.75215609,140.639535 18.2123664,161.656663 35.9390413,176.596489 C43.4841055,171.042662 55.4852815,164.976994 71.86634,164.950404 C118.421026,164.878946 80.8431932,184.432004 117.083696,189.209757 C125.823574,190.358079 134.177334,190.783507 141.830114,190.763565 C150.855025,186.570775 159.144155,181.06348 166.462188,174.485968 C147.486012,169.086692 126.730043,160.338834 128.854526,148.202511" id="Fill-6" fill="#FC4F13"></path>
                <path d="M146.450285,23.1101363 C137.76675,19.0785437 128.107145,16.8134733 117.92222,16.8134733 C109.303314,16.8134733 101.063899,18.4387402 93.4691197,21.3801742 C91.7539558,35.7649497 120.305221,30.0682064 146.450285,23.1101363" id="Fill-7" fill="#EB511F"></path>
                <path d="M165.738008,36.5111101 C143.142587,35.3013 115.043728,36.2618361 116.795349,48.7770561 C118.421026,60.4331115 136.666393,62.1165423 138.767676,69.9238061 C143.57345,87.7901094 64.2400748,89.0763636 50.2188168,77.3754389 C49.9304704,79.9296672 49.7630969,82.5304266 49.7630969,85.1644226 C49.7630969,92.0560197 50.7988239,98.7099754 52.697933,104.99002 C64.1423022,103.399652 72.8705809,103.565834 74.1283678,107.376404 C76.2710798,113.897413 68.7541875,118.562162 61.6051853,123.615778 C68.0880078,133.129739 76.902459,140.912075 87.2116714,146.158463 C101.118585,143.519482 112.851301,137.076578 109.290057,127.03748 C101.58922,105.302444 113.076675,109.192781 138.265556,110.901139 C149.066946,111.637329 164.301247,114.130069 178.34902,116.735814 C183.280738,107.285003 186.083001,96.551262 186.083001,85.1644226 C186.083001,66.1414876 178.289362,48.9133259 165.738008,36.5111101" id="Fill-8" fill="#EB511F"></path>
                <path d="M74.9055773,41.1559169 C74.2112259,38.847639 72.8772096,37.0279384 71.0626158,35.598767 C62.5282252,43.7167925 56.0818603,54.0151351 52.6200463,65.599732 C61.5239843,59.3911459 80.0129544,58.101568 74.9055773,41.1559169" id="Fill-9" fill="#EB511F"></path>
                <path d="M138.767676,69.9238061 C136.666393,62.1165423 118.421026,60.4331115 116.795349,48.7770561 C115.043728,36.2618361 143.142587,35.3013 165.738008,36.5111101 C160.161654,30.9971677 153.642373,26.4487469 146.450285,23.1101363 C120.305221,30.0682064 91.7539558,35.7649497 93.4691197,21.3801742 C85.0739309,24.6290462 77.480809,29.4932142 71.0626158,35.598767 C72.8772096,37.0279384 74.2112259,38.847639 74.9055773,41.1559169 C80.0129544,58.101568 61.5239843,59.3911459 52.6200463,65.599732 C51.4882038,69.4003306 50.6761939,73.3305517 50.2188168,77.3754389 C64.2400748,89.0763636 143.57345,87.7901094 138.767676,69.9238061" id="Fill-10" fill="#FF7842"></path>
                <path d="M128.854526,148.202511 C128.58938,149.714773 128.682181,151.178843 129.0799,152.588072 C143.96454,150.116935 157.228475,142.794925 167.217855,132.298825 C149.418264,133.259361 130.823236,136.981854 128.854526,148.202511" id="Fill-11" fill="#EB511F"></path>
                <path d="M74.1283678,107.376404 C72.8705809,103.565834 64.1423022,103.399652 52.697933,104.99002 C54.7246436,111.688845 57.7506237,117.955595 61.6051853,123.615778 C68.7541875,118.562162 76.2710798,113.897413 74.1283678,107.376404" id="Fill-12" fill="#FF7842"></path>
                <path d="M109.290057,127.03748 C112.851301,137.076578 101.118585,143.519482 87.2116714,146.158463 C96.4470421,150.851463 106.878885,153.515372 117.92222,153.515372 C121.722096,153.515372 125.449056,153.187992 129.0799,152.588072 C128.682181,151.178843 128.58938,149.714773 128.854526,148.202511 C130.823236,136.981854 149.418264,133.259361 167.217855,132.298825 C171.615966,127.678946 175.372755,122.44419 178.34902,116.735814 C164.301247,114.130069 149.066946,111.637329 138.265556,110.901139 C113.076675,109.192781 101.58922,105.302444 109.290057,127.03748" id="Fill-13" fill="#FF7842"></path>
                <path d="M23.5484319,86.4174403 C23.5484319,66.1930042 29.9119387,47.4326379 40.7315574,32.0358097 C38.2590699,32.349895 35.773325,32.7337771 33.3207234,33.167514 C16.208856,50.305937 5.60798289,73.9770025 5.60798289,100.082645 C5.60798289,105.265883 6.03221668,110.35606 6.837598,115.31329 C12.7420706,113.67639 19.5646115,111.868323 26.5611547,110.186553 C24.5974163,102.592004 23.5484319,94.6235426 23.5484319,86.4174403" id="Fill-14" fill="#AC0700"></path>
                <path d="M52.3714718,18.3971945 C45.4031005,22.5002457 39.001479,27.4724324 33.3207234,33.167514 C35.773325,32.7337771 38.2590699,32.349895 40.7315574,32.0358097 C44.1817712,27.1317579 48.0794191,22.5617333 52.3714718,18.3971945" id="Fill-15" fill="#DB2D00"></path>
                <path d="M165.539148,168.10289 C163.181005,169.492178 160.751604,170.770123 158.264202,171.951682 C158.993354,172.199294 159.71422,172.43195 160.443371,172.666268 C162.188364,171.202198 163.900214,169.693259 165.539148,168.10289" id="Fill-16" fill="#AC0700"></path>
                <path d="M128.397149,190.326504 C124.719904,190.075568 120.939914,189.716614 117.083696,189.209757 C103.211582,187.381747 100.159088,183.390038 99.0603885,179.160688 C86.9614398,176.687889 75.7010157,171.890194 65.7613507,165.249533 C55.266536,166.261586 46.849804,169.731481 40.5360121,173.528756 C56.7778689,186.778503 77.4675517,194.730346 99.9867427,194.730346 C109.883321,194.730346 119.425267,193.173214 128.397149,190.326504" id="Fill-17" fill="#AC0700"></path>
                <path d="M117.083696,189.209757 C120.939914,189.716614 124.719904,190.075568 128.397149,190.326504 C140.26078,186.560804 151.108571,180.498459 160.443371,172.666268 C159.71422,172.43195 158.993354,172.199294 158.264202,171.951682 C146.026051,177.784695 132.352798,181.06348 117.92222,181.06348 C111.465912,181.06348 105.155435,180.403735 99.0603885,179.160688 C100.159088,183.390038 103.211582,187.381747 117.083696,189.209757" id="Fill-18" fill="#DB2D00"></path>
                <path d="M26.5611547,110.186553 C19.5646115,111.868323 12.7420706,113.67639 6.837598,115.31329 C10.6209016,138.683565 22.970082,159.205468 40.5360121,173.528756 C46.849804,169.731481 55.266536,166.261586 65.7613507,165.249533 C46.6840877,152.51329 32.4722559,133.011749 26.5611547,110.186553" id="Fill-19" fill="#DB2D00"></path>
            </g>
        </g>
    </g>
</svg>